M48
;DRILL file {KiCad (5.0.1)-4} date 15/02/2021 21:53:38
;FORMAT={-:-/ absolute / metric / decimal}
FMAT,2
METRIC,TZ
T1C0.800
T2C1.000
T3C1.016
T4C1.200
T5C1.300
T6C2.800
%
G90
G05
M71
T1
X69.74Y46.905
X74.74Y46.905
X28.003Y52.086
X28.003Y47.086
X34.815Y27.22
X39.815Y27.22
X45.61Y41.825
X45.61Y39.285
X45.61Y36.745
X45.61Y34.205
X45.61Y31.665
X45.61Y29.125
X45.61Y26.585
X53.23Y41.825
X53.23Y39.285
X53.23Y36.745
X53.23Y34.205
X53.23Y31.665
X53.23Y29.125
X53.23Y26.585
X58.31Y46.905
X58.31Y44.365
X58.31Y41.825
X58.31Y39.285
X58.31Y36.745
X58.31Y34.205
X58.31Y31.665
X65.93Y46.905
X65.93Y44.365
X65.93Y41.825
X65.93Y39.285
X65.93Y36.745
X65.93Y34.205
X65.93Y31.665
X32.275Y45.635
X32.275Y43.095
X32.275Y40.555
X32.275Y38.015
X32.275Y35.475
X32.275Y32.935
X32.275Y30.395
X39.895Y45.635
X39.895Y43.095
X39.895Y40.555
X39.895Y38.015
X39.895Y35.475
X39.895Y32.935
X39.895Y30.395
T2
X32.275Y74.845
X32.275Y51.985
X34.815Y74.845
X34.815Y51.985
X37.355Y74.845
X37.355Y51.985
X39.895Y74.845
X39.895Y51.985
X42.435Y74.845
X42.435Y51.985
X44.975Y74.845
X44.975Y51.985
X47.515Y74.845
X47.515Y51.985
X50.055Y74.845
X50.055Y51.985
X52.595Y74.845
X52.595Y51.985
X55.135Y74.845
X55.135Y51.985
X57.675Y74.845
X57.675Y51.985
X60.215Y74.845
X60.215Y51.985
X62.755Y74.845
X62.755Y51.985
X65.295Y74.845
X65.295Y51.985
X67.835Y74.845
X67.835Y51.985
X70.375Y74.845
X70.375Y51.985
X60.388Y27.23
X65.468Y27.22
X46.418Y47.086
X48.958Y47.086
X51.498Y47.086
T3
X17.208Y71.67
X17.208Y69.13
X17.208Y66.59
X17.208Y64.05
X17.208Y61.51
X17.208Y58.97
X17.208Y56.43
X17.208Y53.89
X19.748Y71.67
X19.748Y69.13
X19.748Y66.59
X19.748Y64.05
X19.748Y61.51
X19.748Y58.97
X19.748Y56.43
X19.748Y53.89
T4
X73.55Y39.92
X73.55Y36.11
X73.55Y32.3
X73.55Y28.49
X73.55Y24.68
X73.55Y20.87
X73.55Y17.06
X73.55Y13.25
X73.55Y9.44
X73.55Y5.63
X15.468Y22.636
X15.468Y2.636
X65.468Y22.636
X65.468Y2.636
T5
X20.21Y44.365
X20.21Y39.285
X20.21Y34.205
X20.21Y29.125
T6
X3.Y3.
X27.Y77.
T0
M30
