G04 #@! TF.GenerationSoftware,KiCad,Pcbnew,(5.0.1)-4*
G04 #@! TF.CreationDate,2021-02-15T21:01:42+01:00*
G04 #@! TF.ProjectId,baby_foot,626162795F666F6F742E6B696361645F,rev?*
G04 #@! TF.SameCoordinates,PX5204180PY8954400*
G04 #@! TF.FileFunction,Legend,Bot*
G04 #@! TF.FilePolarity,Positive*
%FSLAX46Y46*%
G04 Gerber Fmt 4.6, Leading zero omitted, Abs format (unit mm)*
G04 Created by KiCad (PCBNEW (5.0.1)-4) date 15/02/2021 21:01:42*
%MOMM*%
%LPD*%
G01*
G04 APERTURE LIST*
%ADD10C,0.300000*%
G04 APERTURE END LIST*
D10*
X42285714Y7155953D02*
X42166666Y7275000D01*
X41928571Y7394048D01*
X41333333Y7394048D01*
X41095238Y7275000D01*
X40976190Y7155953D01*
X40857142Y6917858D01*
X40857142Y6679762D01*
X40976190Y6322620D01*
X42404761Y4894048D01*
X40857142Y4894048D01*
X39309523Y7394048D02*
X39071428Y7394048D01*
X38833333Y7275000D01*
X38714285Y7155953D01*
X38595238Y6917858D01*
X38476190Y6441667D01*
X38476190Y5846429D01*
X38595238Y5370239D01*
X38714285Y5132143D01*
X38833333Y5013096D01*
X39071428Y4894048D01*
X39309523Y4894048D01*
X39547619Y5013096D01*
X39666666Y5132143D01*
X39785714Y5370239D01*
X39904761Y5846429D01*
X39904761Y6441667D01*
X39785714Y6917858D01*
X39666666Y7155953D01*
X39547619Y7275000D01*
X39309523Y7394048D01*
X37523809Y7155953D02*
X37404761Y7275000D01*
X37166666Y7394048D01*
X36571428Y7394048D01*
X36333333Y7275000D01*
X36214285Y7155953D01*
X36095238Y6917858D01*
X36095238Y6679762D01*
X36214285Y6322620D01*
X37642857Y4894048D01*
X36095238Y4894048D01*
X33714285Y4894048D02*
X35142857Y4894048D01*
X34428571Y4894048D02*
X34428571Y7394048D01*
X34666666Y7036905D01*
X34904761Y6798810D01*
X35142857Y6679762D01*
X52642857Y844048D02*
X52642857Y3344048D01*
X51452380Y844048D02*
X51452380Y3344048D01*
X50023809Y844048D01*
X50023809Y3344048D01*
X48833333Y844048D02*
X48833333Y3344048D01*
X47404761Y844048D01*
X47404761Y3344048D01*
X45738095Y3344048D02*
X45261904Y3344048D01*
X45023809Y3225000D01*
X44785714Y2986905D01*
X44666666Y2510715D01*
X44666666Y1677381D01*
X44785714Y1201191D01*
X45023809Y963096D01*
X45261904Y844048D01*
X45738095Y844048D01*
X45976190Y963096D01*
X46214285Y1201191D01*
X46333333Y1677381D01*
X46333333Y2510715D01*
X46214285Y2986905D01*
X45976190Y3225000D01*
X45738095Y3344048D01*
X42285714Y3225000D02*
X42523809Y3344048D01*
X42880952Y3344048D01*
X43238095Y3225000D01*
X43476190Y2986905D01*
X43595238Y2748810D01*
X43714285Y2272620D01*
X43714285Y1915477D01*
X43595238Y1439286D01*
X43476190Y1201191D01*
X43238095Y963096D01*
X42880952Y844048D01*
X42642857Y844048D01*
X42285714Y963096D01*
X42166666Y1082143D01*
X42166666Y1915477D01*
X42642857Y1915477D01*
X39666666Y844048D02*
X40500000Y2034524D01*
X41095238Y844048D02*
X41095238Y3344048D01*
X40142857Y3344048D01*
X39904761Y3225000D01*
X39785714Y3105953D01*
X39666666Y2867858D01*
X39666666Y2510715D01*
X39785714Y2272620D01*
X39904761Y2153572D01*
X40142857Y2034524D01*
X41095238Y2034524D01*
X38595238Y2153572D02*
X37761904Y2153572D01*
X37404761Y844048D02*
X38595238Y844048D01*
X38595238Y3344048D01*
X37404761Y3344048D01*
X36333333Y2153572D02*
X35500000Y2153572D01*
X35142857Y844048D02*
X36333333Y844048D01*
X36333333Y3344048D01*
X35142857Y3344048D01*
X34071428Y844048D02*
X34071428Y3344048D01*
X32642857Y844048D01*
X32642857Y3344048D01*
X31809523Y3344048D02*
X30380952Y3344048D01*
X31095238Y844048D02*
X31095238Y3344048D01*
X29547619Y2153572D02*
X28714285Y2153572D01*
X28357142Y844048D02*
X29547619Y844048D01*
X29547619Y3344048D01*
X28357142Y3344048D01*
X25857142Y1082143D02*
X25976190Y963096D01*
X26333333Y844048D01*
X26571428Y844048D01*
X26928571Y963096D01*
X27166666Y1201191D01*
X27285714Y1439286D01*
X27404761Y1915477D01*
X27404761Y2272620D01*
X27285714Y2748810D01*
X27166666Y2986905D01*
X26928571Y3225000D01*
X26571428Y3344048D01*
X26333333Y3344048D01*
X25976190Y3225000D01*
X25857142Y3105953D01*
X24785714Y844048D02*
X24785714Y3344048D01*
X24785714Y2153572D02*
X23357142Y2153572D01*
X23357142Y844048D02*
X23357142Y3344048D01*
M02*
