G04 #@! TF.GenerationSoftware,KiCad,Pcbnew,(5.0.1)-4*
G04 #@! TF.CreationDate,2021-02-15T21:01:42+01:00*
G04 #@! TF.ProjectId,baby_foot,626162795F666F6F742E6B696361645F,rev?*
G04 #@! TF.SameCoordinates,PX5204180PY8954400*
G04 #@! TF.FileFunction,Copper,L1,Top,Signal*
G04 #@! TF.FilePolarity,Positive*
%FSLAX46Y46*%
G04 Gerber Fmt 4.6, Leading zero omitted, Abs format (unit mm)*
G04 Created by KiCad (PCBNEW (5.0.1)-4) date 15/02/2021 21:01:42*
%MOMM*%
%LPD*%
G01*
G04 APERTURE LIST*
G04 #@! TA.AperFunction,ComponentPad*
%ADD10O,1.600000X2.400000*%
G04 #@! TD*
G04 #@! TA.AperFunction,ComponentPad*
%ADD11R,2.400000X2.400000*%
G04 #@! TD*
G04 #@! TA.AperFunction,ComponentPad*
%ADD12C,2.400000*%
G04 #@! TD*
G04 #@! TA.AperFunction,ComponentPad*
%ADD13R,2.400000X1.600000*%
G04 #@! TD*
G04 #@! TA.AperFunction,ComponentPad*
%ADD14O,2.400000X1.600000*%
G04 #@! TD*
G04 #@! TA.AperFunction,ComponentPad*
%ADD15C,4.000000*%
G04 #@! TD*
G04 #@! TA.AperFunction,ComponentPad*
%ADD16C,1.600000*%
G04 #@! TD*
G04 #@! TA.AperFunction,ComponentPad*
%ADD17C,2.000000*%
G04 #@! TD*
G04 #@! TA.AperFunction,ComponentPad*
%ADD18R,2.600000X2.600000*%
G04 #@! TD*
G04 #@! TA.AperFunction,ComponentPad*
%ADD19C,2.600000*%
G04 #@! TD*
G04 #@! TA.AperFunction,ComponentPad*
%ADD20O,1.727200X1.727200*%
G04 #@! TD*
G04 #@! TA.AperFunction,ComponentPad*
%ADD21R,1.727200X1.727200*%
G04 #@! TD*
G04 #@! TA.AperFunction,ComponentPad*
%ADD22R,1.700000X1.700000*%
G04 #@! TD*
G04 #@! TA.AperFunction,ComponentPad*
%ADD23O,1.700000X1.700000*%
G04 #@! TD*
G04 #@! TA.AperFunction,ViaPad*
%ADD24C,3.000000*%
G04 #@! TD*
G04 #@! TA.AperFunction,Conductor*
%ADD25C,0.800000*%
G04 #@! TD*
G04 #@! TA.AperFunction,Conductor*
%ADD26C,0.400000*%
G04 #@! TD*
G04 #@! TA.AperFunction,Conductor*
%ADD27C,0.254000*%
G04 #@! TD*
G04 APERTURE END LIST*
D10*
G04 #@! TO.P,U5,1*
G04 #@! TO.N,GND*
X32275000Y51985000D03*
G04 #@! TO.P,U5,2*
G04 #@! TO.N,N/C*
X34815000Y51985000D03*
G04 #@! TO.P,U5,3*
G04 #@! TO.N,Goal_J1*
X37355000Y51985000D03*
G04 #@! TO.P,U5,4*
G04 #@! TO.N,Gam_J1*
X39895000Y51985000D03*
G04 #@! TO.P,U5,5*
G04 #@! TO.N,Goal_J2*
X42435000Y51985000D03*
G04 #@! TO.P,U5,6*
G04 #@! TO.N,Gam_J2*
X44975000Y51985000D03*
G04 #@! TO.P,U5,7*
G04 #@! TO.N,LESS*
X47515000Y51985000D03*
G04 #@! TO.P,U5,8*
G04 #@! TO.N,MORE*
X50055000Y51985000D03*
G04 #@! TO.P,U5,9*
G04 #@! TO.N,Reset*
X52595000Y51985000D03*
G04 #@! TO.P,U5,10*
G04 #@! TO.N,LED_1*
X55135000Y51985000D03*
G04 #@! TO.P,U5,11*
G04 #@! TO.N,OK*
X57675000Y51985000D03*
G04 #@! TO.P,U5,12*
G04 #@! TO.N,LED_2*
X60215000Y51985000D03*
G04 #@! TO.P,U5,13*
G04 #@! TO.N,RX*
X62755000Y51985000D03*
G04 #@! TO.P,U5,14*
G04 #@! TO.N,TX*
X65295000Y51985000D03*
G04 #@! TO.P,U5,15*
G04 #@! TO.N,+5V*
X67835000Y51985000D03*
G04 #@! TO.P,U5,16*
G04 #@! TO.N,GND*
X70375000Y51985000D03*
G04 #@! TO.P,U5,17*
G04 #@! TO.N,OE*
X32275000Y74845000D03*
G04 #@! TO.P,U5,18*
G04 #@! TO.N,CLK*
X34815000Y74845000D03*
G04 #@! TO.P,U5,19*
G04 #@! TO.N,N/C*
X37355000Y74845000D03*
G04 #@! TO.P,U5,20*
G04 #@! TO.N,LAT*
X39895000Y74845000D03*
G04 #@! TO.P,U5,21*
G04 #@! TO.N,D*
X42435000Y74845000D03*
G04 #@! TO.P,U5,22*
G04 #@! TO.N,C*
X44975000Y74845000D03*
G04 #@! TO.P,U5,23*
G04 #@! TO.N,B*
X47515000Y74845000D03*
G04 #@! TO.P,U5,24*
G04 #@! TO.N,A*
X50055000Y74845000D03*
G04 #@! TO.P,U5,25*
G04 #@! TO.N,B2*
X52595000Y74845000D03*
G04 #@! TO.P,U5,26*
G04 #@! TO.N,G2*
X55135000Y74845000D03*
G04 #@! TO.P,U5,27*
G04 #@! TO.N,R2*
X57675000Y74845000D03*
G04 #@! TO.P,U5,28*
G04 #@! TO.N,B1*
X60215000Y74845000D03*
G04 #@! TO.P,U5,29*
G04 #@! TO.N,G1*
X62755000Y74845000D03*
G04 #@! TO.P,U5,30*
G04 #@! TO.N,R1*
X65295000Y74845000D03*
G04 #@! TO.P,U5,31*
G04 #@! TO.N,+3V3*
X67835000Y74845000D03*
G04 #@! TO.P,U5,32*
G04 #@! TO.N,GND*
X70375000Y74845000D03*
G04 #@! TD*
D11*
G04 #@! TO.P,J2,1*
G04 #@! TO.N,Net-(J2-Pad1)*
X73550000Y5630000D03*
D12*
G04 #@! TO.P,J2,2*
G04 #@! TO.N,Net-(J2-Pad2)*
X73550000Y9440000D03*
G04 #@! TO.P,J2,3*
G04 #@! TO.N,Net-(J2-Pad3)*
X73550000Y13250000D03*
G04 #@! TO.P,J2,4*
G04 #@! TO.N,Net-(J2-Pad4)*
X73550000Y17060000D03*
G04 #@! TO.P,J2,5*
G04 #@! TO.N,GND*
X73550000Y20870000D03*
G04 #@! TO.P,J2,6*
G04 #@! TO.N,+5V*
X73550000Y24680000D03*
G04 #@! TO.P,J2,7*
G04 #@! TO.N,LED_1*
X73550000Y28490000D03*
G04 #@! TO.P,J2,8*
G04 #@! TO.N,LED_2*
X73550000Y32300000D03*
G04 #@! TO.P,J2,9*
G04 #@! TO.N,RX*
X73550000Y36110000D03*
G04 #@! TO.P,J2,10*
G04 #@! TO.N,TX*
X73550000Y39920000D03*
G04 #@! TD*
D13*
G04 #@! TO.P,U1,1*
G04 #@! TO.N,Net-(J2-Pad2)*
X45610000Y41825000D03*
D14*
G04 #@! TO.P,U1,8*
G04 #@! TO.N,Net-(J2-Pad4)*
X53230000Y26585000D03*
G04 #@! TO.P,U1,2*
G04 #@! TO.N,+5V*
X45610000Y39285000D03*
G04 #@! TO.P,U1,9*
X53230000Y29125000D03*
G04 #@! TO.P,U1,3*
G04 #@! TO.N,Net-(U1-Pad3)*
X45610000Y36745000D03*
G04 #@! TO.P,U1,10*
G04 #@! TO.N,Net-(U1-Pad10)*
X53230000Y31665000D03*
G04 #@! TO.P,U1,4*
G04 #@! TO.N,Net-(U1-Pad4)*
X45610000Y34205000D03*
G04 #@! TO.P,U1,11*
G04 #@! TO.N,Net-(U1-Pad11)*
X53230000Y34205000D03*
G04 #@! TO.P,U1,5*
G04 #@! TO.N,Net-(J2-Pad1)*
X45610000Y31665000D03*
G04 #@! TO.P,U1,12*
G04 #@! TO.N,Net-(J2-Pad3)*
X53230000Y36745000D03*
G04 #@! TO.P,U1,6*
G04 #@! TO.N,+5V*
X45610000Y29125000D03*
G04 #@! TO.P,U1,13*
X53230000Y39285000D03*
G04 #@! TO.P,U1,7*
G04 #@! TO.N,GND*
X45610000Y26585000D03*
G04 #@! TO.P,U1,14*
G04 #@! TO.N,+5V*
X53230000Y41825000D03*
G04 #@! TD*
D15*
G04 #@! TO.P,U4,1*
G04 #@! TO.N,Net-(J1-Pad4)*
X15467566Y22635870D03*
G04 #@! TO.P,U4,2*
G04 #@! TO.N,GND*
X15467566Y2635870D03*
G04 #@! TO.P,U4,3*
G04 #@! TO.N,Net-(F1-Pad1)*
X65467566Y22635870D03*
G04 #@! TO.P,U4,4*
G04 #@! TO.N,GND*
X65467566Y2635870D03*
G04 #@! TD*
D16*
G04 #@! TO.P,C1,2*
G04 #@! TO.N,GND*
X39815000Y27220000D03*
G04 #@! TO.P,C1,1*
G04 #@! TO.N,+5V*
X34815000Y27220000D03*
G04 #@! TD*
G04 #@! TO.P,C2,1*
G04 #@! TO.N,+3V3*
X69740000Y46905000D03*
G04 #@! TO.P,C2,2*
G04 #@! TO.N,GND*
X74740000Y46905000D03*
G04 #@! TD*
G04 #@! TO.P,C3,1*
G04 #@! TO.N,+3V3*
X28002566Y47085870D03*
G04 #@! TO.P,C3,2*
G04 #@! TO.N,GND*
X28002566Y52085870D03*
G04 #@! TD*
D17*
G04 #@! TO.P,F1,1*
G04 #@! TO.N,Net-(F1-Pad1)*
X65467566Y27220000D03*
G04 #@! TO.P,F1,2*
G04 #@! TO.N,+5V*
X60387566Y27230000D03*
G04 #@! TD*
D18*
G04 #@! TO.P,J1,1*
G04 #@! TO.N,+5V*
X20210000Y29125000D03*
D19*
G04 #@! TO.P,J1,2*
G04 #@! TO.N,GND*
X20210000Y34205000D03*
G04 #@! TO.P,J1,3*
X20210000Y39285000D03*
G04 #@! TO.P,J1,4*
G04 #@! TO.N,Net-(J1-Pad4)*
X20210000Y44365000D03*
G04 #@! TD*
D20*
G04 #@! TO.P,J3,16*
G04 #@! TO.N,GND*
X17207566Y71670000D03*
G04 #@! TO.P,J3,15*
G04 #@! TO.N,OE*
X19747566Y71670000D03*
G04 #@! TO.P,J3,14*
G04 #@! TO.N,LAT*
X17207566Y69130000D03*
G04 #@! TO.P,J3,13*
G04 #@! TO.N,CLK*
X19747566Y69130000D03*
G04 #@! TO.P,J3,12*
G04 #@! TO.N,D*
X17207566Y66590000D03*
G04 #@! TO.P,J3,11*
G04 #@! TO.N,C*
X19747566Y66590000D03*
G04 #@! TO.P,J3,10*
G04 #@! TO.N,B*
X17207566Y64050000D03*
G04 #@! TO.P,J3,9*
G04 #@! TO.N,A*
X19747566Y64050000D03*
G04 #@! TO.P,J3,8*
G04 #@! TO.N,GND*
X17207566Y61510000D03*
G04 #@! TO.P,J3,7*
G04 #@! TO.N,B2*
X19747566Y61510000D03*
G04 #@! TO.P,J3,6*
G04 #@! TO.N,G2*
X17207566Y58970000D03*
G04 #@! TO.P,J3,5*
G04 #@! TO.N,R2*
X19747566Y58970000D03*
G04 #@! TO.P,J3,4*
G04 #@! TO.N,GND*
X17207566Y56430000D03*
G04 #@! TO.P,J3,3*
G04 #@! TO.N,B1*
X19747566Y56430000D03*
G04 #@! TO.P,J3,2*
G04 #@! TO.N,G1*
X17207566Y53890000D03*
D21*
G04 #@! TO.P,J3,1*
G04 #@! TO.N,R1*
X19747566Y53890000D03*
G04 #@! TD*
D13*
G04 #@! TO.P,U2,1*
G04 #@! TO.N,Net-(U1-Pad3)*
X32275000Y45635000D03*
D14*
G04 #@! TO.P,U2,8*
G04 #@! TO.N,Net-(U1-Pad4)*
X39895000Y30395000D03*
G04 #@! TO.P,U2,2*
G04 #@! TO.N,Net-(U2-Pad2)*
X32275000Y43095000D03*
G04 #@! TO.P,U2,9*
G04 #@! TO.N,Net-(U2-Pad11)*
X39895000Y32935000D03*
G04 #@! TO.P,U2,3*
G04 #@! TO.N,Goal_J1*
X32275000Y40555000D03*
G04 #@! TO.P,U2,10*
G04 #@! TO.N,Gam_J1*
X39895000Y35475000D03*
G04 #@! TO.P,U2,4*
G04 #@! TO.N,Net-(U2-Pad2)*
X32275000Y38015000D03*
G04 #@! TO.P,U2,11*
G04 #@! TO.N,Net-(U2-Pad11)*
X39895000Y38015000D03*
G04 #@! TO.P,U2,5*
G04 #@! TO.N,Goal_J1*
X32275000Y35475000D03*
G04 #@! TO.P,U2,12*
G04 #@! TO.N,Gam_J1*
X39895000Y40555000D03*
G04 #@! TO.P,U2,6*
G04 #@! TO.N,Reset*
X32275000Y32935000D03*
G04 #@! TO.P,U2,13*
X39895000Y43095000D03*
G04 #@! TO.P,U2,7*
G04 #@! TO.N,GND*
X32275000Y30395000D03*
G04 #@! TO.P,U2,14*
G04 #@! TO.N,+3V3*
X39895000Y45635000D03*
G04 #@! TD*
G04 #@! TO.P,U3,14*
G04 #@! TO.N,+3V3*
X65930000Y46905000D03*
G04 #@! TO.P,U3,7*
G04 #@! TO.N,GND*
X58310000Y31665000D03*
G04 #@! TO.P,U3,13*
G04 #@! TO.N,Reset*
X65930000Y44365000D03*
G04 #@! TO.P,U3,6*
X58310000Y34205000D03*
G04 #@! TO.P,U3,12*
G04 #@! TO.N,Gam_J2*
X65930000Y41825000D03*
G04 #@! TO.P,U3,5*
G04 #@! TO.N,Goal_J2*
X58310000Y36745000D03*
G04 #@! TO.P,U3,11*
G04 #@! TO.N,Net-(U3-Pad11)*
X65930000Y39285000D03*
G04 #@! TO.P,U3,4*
G04 #@! TO.N,Net-(U3-Pad2)*
X58310000Y39285000D03*
G04 #@! TO.P,U3,10*
G04 #@! TO.N,Gam_J2*
X65930000Y36745000D03*
G04 #@! TO.P,U3,3*
G04 #@! TO.N,Goal_J2*
X58310000Y41825000D03*
G04 #@! TO.P,U3,9*
G04 #@! TO.N,Net-(U3-Pad11)*
X65930000Y34205000D03*
G04 #@! TO.P,U3,2*
G04 #@! TO.N,Net-(U3-Pad2)*
X58310000Y44365000D03*
G04 #@! TO.P,U3,8*
G04 #@! TO.N,Net-(U1-Pad11)*
X65930000Y31665000D03*
D13*
G04 #@! TO.P,U3,1*
G04 #@! TO.N,Net-(U1-Pad10)*
X58310000Y46905000D03*
G04 #@! TD*
D22*
G04 #@! TO.P,J4,1*
G04 #@! TO.N,LESS*
X46417566Y47085870D03*
D23*
G04 #@! TO.P,J4,2*
G04 #@! TO.N,MORE*
X48957566Y47085870D03*
G04 #@! TO.P,J4,3*
G04 #@! TO.N,OK*
X51497566Y47085870D03*
G04 #@! TD*
D24*
G04 #@! TO.N,*
X27000000Y77000000D03*
X3000000Y3000000D03*
G04 #@! TD*
D25*
G04 #@! TO.N,GND*
X65467566Y2635870D02*
X65467566Y14692566D01*
X71645000Y20870000D02*
X73550000Y20870000D01*
X70375000Y43671370D02*
X70375000Y19600000D01*
X73608630Y46905000D02*
X70375000Y43671370D01*
X74740000Y46905000D02*
X73608630Y46905000D01*
X65467566Y14692566D02*
X70375000Y19600000D01*
X70375000Y19600000D02*
X71645000Y20870000D01*
X70214913Y74845000D02*
X55609913Y60240000D01*
X70375000Y74845000D02*
X70214913Y74845000D01*
X36156696Y60240000D02*
X28002566Y52085870D01*
X55609913Y60240000D02*
X36156696Y60240000D01*
X28103436Y51985000D02*
X28002566Y52085870D01*
X32275000Y51985000D02*
X28103436Y51985000D01*
D26*
X15986252Y71670000D02*
X15570000Y71253748D01*
X17207566Y71670000D02*
X15986252Y71670000D01*
X15570000Y63147566D02*
X17207566Y61510000D01*
X15570000Y71253748D02*
X15570000Y63147566D01*
D25*
G04 #@! TO.N,+5V*
X60387566Y27230000D02*
X60387566Y24217566D01*
X60387566Y24217566D02*
X59849990Y23679990D01*
X34815000Y25950000D02*
X34815000Y27220000D01*
X37085010Y23679990D02*
X34815000Y25950000D01*
X48150000Y29125000D02*
X45610000Y29125000D01*
X48785000Y29760000D02*
X48150000Y29125000D01*
X48785000Y38110000D02*
X48785000Y29760000D01*
X45610000Y39285000D02*
X47610000Y39285000D01*
X47610000Y39285000D02*
X48785000Y38110000D01*
X49960000Y39285000D02*
X53230000Y39285000D01*
X48785000Y38110000D02*
X49960000Y39285000D01*
X48785000Y29760000D02*
X48785000Y23679990D01*
X59849990Y23679990D02*
X48785000Y23679990D01*
X48785000Y23679990D02*
X37085010Y23679990D01*
G04 #@! TO.N,+3V3*
X39495000Y45635000D02*
X36320000Y48810000D01*
X39895000Y45635000D02*
X39495000Y45635000D01*
X29726696Y48810000D02*
X28002566Y47085870D01*
X36320000Y48810000D02*
X29726696Y48810000D01*
G04 #@! TO.N,LED_1*
X76140001Y48599912D02*
X69579913Y55160000D01*
X76140001Y32225999D02*
X76140001Y48599912D01*
X73550000Y28490000D02*
X73550000Y29635998D01*
X73550000Y29635998D02*
X76140001Y32225999D01*
X55135000Y52385000D02*
X55135000Y51985000D01*
X57910000Y55160000D02*
X55135000Y52385000D01*
X69579913Y55160000D02*
X57910000Y55160000D01*
G04 #@! TO.N,Net-(U1-Pad3)*
X45610000Y36745000D02*
X45610000Y36905087D01*
X45610000Y36584913D02*
X42435000Y33409913D01*
X45610000Y36745000D02*
X45610000Y36584913D01*
X42435000Y33409913D02*
X42435000Y28490000D01*
X40487001Y28620001D02*
X27960001Y28620001D01*
X42435000Y28490000D02*
X40617002Y28490000D01*
X40617002Y28490000D02*
X40487001Y28620001D01*
X27960001Y28620001D02*
X27830000Y28750002D01*
X27830000Y28750002D02*
X27830000Y43730000D01*
X29735000Y45635000D02*
X32275000Y45635000D01*
X27830000Y43730000D02*
X29735000Y45635000D01*
G04 #@! TO.N,Net-(U1-Pad10)*
X57910000Y46905000D02*
X55770000Y44765000D01*
X58310000Y46905000D02*
X57910000Y46905000D01*
X55770000Y44765000D02*
X55770000Y31665000D01*
X55770000Y31665000D02*
X53230000Y31665000D01*
G04 #@! TO.N,Net-(U1-Pad11)*
X51325000Y26110087D02*
X51325000Y34205000D01*
X52755087Y24680000D02*
X51325000Y26110087D01*
X60689913Y31665000D02*
X58149913Y29125000D01*
X58149913Y29125000D02*
X57040000Y29125000D01*
X57040000Y29125000D02*
X55770000Y27855000D01*
X51325000Y34205000D02*
X53230000Y34205000D01*
X55770000Y27855000D02*
X55770000Y24680000D01*
X55770000Y24680000D02*
X52755087Y24680000D01*
X60689913Y31665000D02*
X65930000Y31665000D01*
G04 #@! TO.N,Goal_J1*
X30275000Y40555000D02*
X29735000Y40015000D01*
X32275000Y40555000D02*
X30275000Y40555000D01*
X29735000Y40015000D02*
X29735000Y36110000D01*
X29735000Y36110000D02*
X30370000Y35475000D01*
X30370000Y35475000D02*
X32275000Y35475000D01*
G04 #@! TO.N,Reset*
X58710000Y34205000D02*
X62755000Y38250000D01*
X58310000Y34205000D02*
X58710000Y34205000D01*
X65530000Y44365000D02*
X65930000Y44365000D01*
X62755000Y41590000D02*
X65530000Y44365000D01*
X62755000Y38250000D02*
X62755000Y41590000D01*
X63930000Y44365000D02*
X58850000Y49445000D01*
X65930000Y44365000D02*
X63930000Y44365000D01*
X52595000Y51585000D02*
X52595000Y51985000D01*
X54735000Y49445000D02*
X52595000Y51585000D01*
X58850000Y49445000D02*
X54735000Y49445000D01*
X32675000Y32935000D02*
X36085000Y36345000D01*
X32275000Y32935000D02*
X32675000Y32935000D01*
X39495000Y43095000D02*
X39895000Y43095000D01*
X36085000Y39685000D02*
X39495000Y43095000D01*
X36085000Y36345000D02*
X36085000Y39685000D01*
G04 #@! TO.N,Gam_J2*
X65530000Y36745000D02*
X65930000Y36745000D01*
X63930000Y38345000D02*
X65530000Y36745000D01*
X63930000Y40225000D02*
X63930000Y38345000D01*
X65530000Y41825000D02*
X63930000Y40225000D01*
X65930000Y41825000D02*
X65530000Y41825000D01*
G04 #@! TO.N,Net-(U3-Pad2)*
X60310000Y39285000D02*
X58310000Y39285000D01*
X60850000Y39825000D02*
X60310000Y39285000D01*
X60850000Y43730000D02*
X60850000Y39825000D01*
X60215000Y44365000D02*
X60850000Y43730000D01*
X58310000Y44365000D02*
X60215000Y44365000D01*
G04 #@! TO.N,Net-(J2-Pad2)*
X45610000Y41825000D02*
X46010000Y41825000D01*
G04 #@! TD*
D27*
G04 #@! TO.N,GND*
G36*
X27812783Y79635260D02*
X28376418Y79389704D01*
X28871653Y79025371D01*
X29273856Y78560383D01*
X29571020Y78002883D01*
X29611760Y77891234D01*
X29621325Y77843148D01*
X29710175Y77710175D01*
X29843148Y77621325D01*
X29960410Y77598000D01*
X78598001Y77598000D01*
X78598000Y402000D01*
X2999767Y402000D01*
X2974358Y412899D01*
X2922838Y424809D01*
X2286580Y530894D01*
X1737698Y761240D01*
X1256528Y1111678D01*
X868881Y1563413D01*
X595554Y2092204D01*
X451206Y2669695D01*
X443581Y3264902D01*
X465539Y3363413D01*
X1173000Y3363413D01*
X1173000Y2636587D01*
X1451144Y1965088D01*
X1965088Y1451144D01*
X2636587Y1173000D01*
X3363413Y1173000D01*
X4034912Y1451144D01*
X4548856Y1965088D01*
X4827000Y2636587D01*
X4827000Y3363413D01*
X4548856Y4034912D01*
X4034912Y4548856D01*
X3363413Y4827000D01*
X2636587Y4827000D01*
X1965088Y4548856D01*
X1451144Y4034912D01*
X1173000Y3363413D01*
X465539Y3363413D01*
X573088Y3845902D01*
X832782Y4381527D01*
X1208725Y4843037D01*
X1680764Y5205690D01*
X2223563Y5450021D01*
X2824664Y5566143D01*
X3015960Y5573298D01*
X3113695Y5588415D01*
X3138658Y5598547D01*
X3164919Y5598375D01*
X3204723Y5602084D01*
X3243961Y5609728D01*
X3282246Y5621232D01*
X3303826Y5629613D01*
X3861151Y5864739D01*
X3863120Y5865688D01*
X3865167Y5866459D01*
X3886124Y5876296D01*
X5320145Y6600573D01*
X5327465Y6604739D01*
X5335012Y6608477D01*
X5354888Y6620347D01*
X5684017Y6830000D01*
X72016594Y6830000D01*
X72016594Y4430000D01*
X72041973Y4302411D01*
X72114246Y4194246D01*
X72222411Y4121973D01*
X72350000Y4096594D01*
X74750000Y4096594D01*
X74877589Y4121973D01*
X74985754Y4194246D01*
X75058027Y4302411D01*
X75083406Y4430000D01*
X75083406Y6830000D01*
X75058027Y6957589D01*
X74985754Y7065754D01*
X74877589Y7138027D01*
X74750000Y7163406D01*
X72350000Y7163406D01*
X72222411Y7138027D01*
X72114246Y7065754D01*
X72041973Y6957589D01*
X72016594Y6830000D01*
X5684017Y6830000D01*
X6709884Y7483469D01*
X6716752Y7488340D01*
X6723892Y7492810D01*
X6742468Y7506580D01*
X6742491Y7506596D01*
X6742500Y7506604D01*
X8005062Y8500027D01*
X8011406Y8505550D01*
X8018074Y8510713D01*
X8035211Y8526278D01*
X9192873Y9640196D01*
X9198647Y9646333D01*
X9204758Y9652122D01*
X9220265Y9669312D01*
X9283614Y9743739D01*
X72023000Y9743739D01*
X72023000Y9136261D01*
X72255472Y8575024D01*
X72685024Y8145472D01*
X73246261Y7913000D01*
X73853739Y7913000D01*
X74414976Y8145472D01*
X74844528Y8575024D01*
X75077000Y9136261D01*
X75077000Y9743739D01*
X74844528Y10304976D01*
X74414976Y10734528D01*
X73853739Y10967000D01*
X73246261Y10967000D01*
X72685024Y10734528D01*
X72255472Y10304976D01*
X72023000Y9743739D01*
X9283614Y9743739D01*
X10261568Y10892701D01*
X10266701Y10899377D01*
X10272210Y10905748D01*
X10285933Y10924393D01*
X11200581Y12245154D01*
X11205024Y12252305D01*
X11209875Y12259194D01*
X11221678Y12279110D01*
X11928309Y13553739D01*
X72023000Y13553739D01*
X72023000Y12946261D01*
X72255472Y12385024D01*
X72685024Y11955472D01*
X73246261Y11723000D01*
X73853739Y11723000D01*
X74414976Y11955472D01*
X74844528Y12385024D01*
X75077000Y12946261D01*
X75077000Y13553739D01*
X74844528Y14114976D01*
X74414976Y14544528D01*
X73853739Y14777000D01*
X73246261Y14777000D01*
X72685024Y14544528D01*
X72255472Y14114976D01*
X72023000Y13553739D01*
X11928309Y13553739D01*
X12000626Y13684184D01*
X12004343Y13691753D01*
X12008479Y13699078D01*
X12018247Y13720067D01*
X12653791Y15195559D01*
X12656732Y15203444D01*
X12660127Y15211159D01*
X12667761Y15233015D01*
X13153618Y16764333D01*
X13155765Y16772487D01*
X13158372Y16780485D01*
X13163798Y16802991D01*
X13281998Y17363739D01*
X72023000Y17363739D01*
X72023000Y16756261D01*
X72255472Y16195024D01*
X72685024Y15765472D01*
X73246261Y15533000D01*
X73853739Y15533000D01*
X74414976Y15765472D01*
X74844528Y16195024D01*
X75077000Y16756261D01*
X75077000Y17363739D01*
X74844528Y17924976D01*
X74414976Y18354528D01*
X73853739Y18587000D01*
X73246261Y18587000D01*
X72685024Y18354528D01*
X72255472Y17924976D01*
X72023000Y17363739D01*
X13281998Y17363739D01*
X13495162Y18374993D01*
X13501452Y18414472D01*
X13503790Y18454379D01*
X13502154Y18494321D01*
X13496558Y18533903D01*
X13487058Y18572735D01*
X13473749Y18610431D01*
X13456761Y18646617D01*
X13436264Y18680938D01*
X13412460Y18713054D01*
X13402000Y18724571D01*
X13402000Y21541842D01*
X13494830Y21317730D01*
X14149426Y20663134D01*
X15004697Y20308870D01*
X15930435Y20308870D01*
X16785706Y20663134D01*
X17440302Y21317730D01*
X17794566Y22173001D01*
X17794566Y23098739D01*
X17440302Y23954010D01*
X16785706Y24608606D01*
X15930435Y24962870D01*
X15004697Y24962870D01*
X14149426Y24608606D01*
X13494830Y23954010D01*
X13402000Y23729898D01*
X13402000Y30425000D01*
X18576594Y30425000D01*
X18576594Y27825000D01*
X18601973Y27697411D01*
X18674246Y27589246D01*
X18782411Y27516973D01*
X18910000Y27491594D01*
X21510000Y27491594D01*
X21637589Y27516973D01*
X21745754Y27589246D01*
X21818027Y27697411D01*
X21843406Y27825000D01*
X21843406Y30425000D01*
X21818027Y30552589D01*
X21745754Y30660754D01*
X21637589Y30733027D01*
X21510000Y30758406D01*
X18910000Y30758406D01*
X18782411Y30733027D01*
X18674246Y30660754D01*
X18601973Y30552589D01*
X18576594Y30425000D01*
X13402000Y30425000D01*
X13402000Y44688630D01*
X18583000Y44688630D01*
X18583000Y44041370D01*
X18830696Y43443378D01*
X19288378Y42985696D01*
X19886370Y42738000D01*
X20533630Y42738000D01*
X21131622Y42985696D01*
X21589304Y43443378D01*
X21708026Y43730000D01*
X27088759Y43730000D01*
X27103001Y43658400D01*
X27103000Y28821597D01*
X27088759Y28750002D01*
X27103000Y28678407D01*
X27103000Y28678404D01*
X27145182Y28466342D01*
X27305863Y28225866D01*
X27366562Y28185308D01*
X27395305Y28156565D01*
X27435864Y28095864D01*
X27676340Y27935183D01*
X27888402Y27893001D01*
X27888407Y27893001D01*
X27960000Y27878760D01*
X28031594Y27893001D01*
X33894183Y27893001D01*
X33859576Y27858394D01*
X33688000Y27444174D01*
X33688000Y26995826D01*
X33859576Y26581606D01*
X34088000Y26353182D01*
X34088000Y26021595D01*
X34073759Y25950000D01*
X34088000Y25878405D01*
X34088000Y25878402D01*
X34130182Y25666340D01*
X34290863Y25425864D01*
X34351562Y25385306D01*
X36520316Y23216552D01*
X36560873Y23155853D01*
X36801349Y22995172D01*
X37013411Y22952990D01*
X37013415Y22952990D01*
X37085010Y22938749D01*
X37156605Y22952990D01*
X48713401Y22952990D01*
X48785000Y22938748D01*
X48856599Y22952990D01*
X59778395Y22952990D01*
X59849990Y22938749D01*
X59921585Y22952990D01*
X59921589Y22952990D01*
X60133651Y22995172D01*
X60288649Y23098739D01*
X63140566Y23098739D01*
X63140566Y22173001D01*
X63494830Y21317730D01*
X64149426Y20663134D01*
X65004697Y20308870D01*
X65930435Y20308870D01*
X66785706Y20663134D01*
X67440302Y21317730D01*
X67794566Y22173001D01*
X67794566Y23098739D01*
X67440302Y23954010D01*
X66785706Y24608606D01*
X65930435Y24962870D01*
X65004697Y24962870D01*
X64149426Y24608606D01*
X63494830Y23954010D01*
X63140566Y23098739D01*
X60288649Y23098739D01*
X60374127Y23155853D01*
X60414686Y23216554D01*
X60851004Y23652871D01*
X60911703Y23693429D01*
X61072384Y23933905D01*
X61114566Y24145967D01*
X61114566Y24145971D01*
X61128807Y24217565D01*
X61114566Y24289159D01*
X61114566Y24983739D01*
X72023000Y24983739D01*
X72023000Y24376261D01*
X72255472Y23815024D01*
X72685024Y23385472D01*
X73246261Y23153000D01*
X73853739Y23153000D01*
X74414976Y23385472D01*
X74844528Y23815024D01*
X75077000Y24376261D01*
X75077000Y24983739D01*
X74844528Y25544976D01*
X74414976Y25974528D01*
X73853739Y26207000D01*
X73246261Y26207000D01*
X72685024Y25974528D01*
X72255472Y25544976D01*
X72023000Y24983739D01*
X61114566Y24983739D01*
X61114566Y26094799D01*
X61139251Y26105024D01*
X61512542Y26478315D01*
X61714566Y26966043D01*
X61714566Y27483957D01*
X64140566Y27483957D01*
X64140566Y26956043D01*
X64342590Y26468315D01*
X64715881Y26095024D01*
X65203609Y25893000D01*
X65731523Y25893000D01*
X66219251Y26095024D01*
X66592542Y26468315D01*
X66794566Y26956043D01*
X66794566Y27483957D01*
X66592542Y27971685D01*
X66219251Y28344976D01*
X65731523Y28547000D01*
X65203609Y28547000D01*
X64715881Y28344976D01*
X64342590Y27971685D01*
X64140566Y27483957D01*
X61714566Y27483957D01*
X61714566Y27493957D01*
X61512542Y27981685D01*
X61139251Y28354976D01*
X60651523Y28557000D01*
X60123609Y28557000D01*
X59635881Y28354976D01*
X59262590Y27981685D01*
X59060566Y27493957D01*
X59060566Y26966043D01*
X59262590Y26478315D01*
X59635881Y26105024D01*
X59660566Y26094799D01*
X59660567Y24518699D01*
X59548858Y24406990D01*
X56456937Y24406990D01*
X56497000Y24608401D01*
X56511242Y24680000D01*
X56497000Y24751599D01*
X56497000Y27553868D01*
X57341133Y28398000D01*
X58078318Y28398000D01*
X58149913Y28383759D01*
X58221508Y28398000D01*
X58221512Y28398000D01*
X58433574Y28440182D01*
X58674050Y28600863D01*
X58714609Y28661564D01*
X60991046Y30938000D01*
X64660334Y30938000D01*
X64717478Y30852478D01*
X65090267Y30603389D01*
X65419001Y30538000D01*
X66440999Y30538000D01*
X66769733Y30603389D01*
X67142522Y30852478D01*
X67391611Y31225267D01*
X67479079Y31665000D01*
X67391611Y32104733D01*
X67142522Y32477522D01*
X66769733Y32726611D01*
X66440999Y32792000D01*
X65419001Y32792000D01*
X65090267Y32726611D01*
X64717478Y32477522D01*
X64660334Y32392000D01*
X60761506Y32392000D01*
X60689912Y32406241D01*
X60618318Y32392000D01*
X60618314Y32392000D01*
X60406252Y32349818D01*
X60165776Y32189137D01*
X60125219Y32128439D01*
X57848781Y29852000D01*
X57111593Y29852000D01*
X57039999Y29866241D01*
X56968405Y29852000D01*
X56968401Y29852000D01*
X56756339Y29809818D01*
X56515863Y29649137D01*
X56475305Y29588438D01*
X55306562Y28419694D01*
X55245863Y28379136D01*
X55085182Y28138660D01*
X55043000Y27926598D01*
X55043000Y27926595D01*
X55028759Y27855000D01*
X55043000Y27783405D01*
X55043001Y25407000D01*
X53056220Y25407000D01*
X53005220Y25458000D01*
X53740999Y25458000D01*
X54069733Y25523389D01*
X54442522Y25772478D01*
X54691611Y26145267D01*
X54779079Y26585000D01*
X54691611Y27024733D01*
X54442522Y27397522D01*
X54069733Y27646611D01*
X53740999Y27712000D01*
X52719001Y27712000D01*
X52390267Y27646611D01*
X52052000Y27420589D01*
X52052000Y28289411D01*
X52390267Y28063389D01*
X52719001Y27998000D01*
X53740999Y27998000D01*
X54069733Y28063389D01*
X54442522Y28312478D01*
X54691611Y28685267D01*
X54779079Y29125000D01*
X54691611Y29564733D01*
X54442522Y29937522D01*
X54069733Y30186611D01*
X53740999Y30252000D01*
X52719001Y30252000D01*
X52390267Y30186611D01*
X52052000Y29960589D01*
X52052000Y30829411D01*
X52390267Y30603389D01*
X52719001Y30538000D01*
X53740999Y30538000D01*
X54069733Y30603389D01*
X54442522Y30852478D01*
X54499666Y30938000D01*
X55698401Y30938000D01*
X55770000Y30923758D01*
X56053661Y30980182D01*
X56294137Y31140863D01*
X56454818Y31381339D01*
X56497000Y31593401D01*
X56511242Y31665000D01*
X56497000Y31736599D01*
X56497000Y41825000D01*
X56760921Y41825000D01*
X56848389Y41385267D01*
X57097478Y41012478D01*
X57470267Y40763389D01*
X57799001Y40698000D01*
X58820999Y40698000D01*
X59149733Y40763389D01*
X59522522Y41012478D01*
X59771611Y41385267D01*
X59859079Y41825000D01*
X59771611Y42264733D01*
X59522522Y42637522D01*
X59149733Y42886611D01*
X58820999Y42952000D01*
X57799001Y42952000D01*
X57470267Y42886611D01*
X57097478Y42637522D01*
X56848389Y42264733D01*
X56760921Y41825000D01*
X56497000Y41825000D01*
X56497000Y44463868D01*
X56869580Y44836448D01*
X56848389Y44804733D01*
X56760921Y44365000D01*
X56848389Y43925267D01*
X57097478Y43552478D01*
X57470267Y43303389D01*
X57799001Y43238000D01*
X58820999Y43238000D01*
X59149733Y43303389D01*
X59522522Y43552478D01*
X59579666Y43638000D01*
X59913867Y43638000D01*
X60123000Y43428867D01*
X60123001Y40126133D01*
X60008868Y40012000D01*
X59579666Y40012000D01*
X59522522Y40097522D01*
X59149733Y40346611D01*
X58820999Y40412000D01*
X57799001Y40412000D01*
X57470267Y40346611D01*
X57097478Y40097522D01*
X56848389Y39724733D01*
X56760921Y39285000D01*
X56848389Y38845267D01*
X57097478Y38472478D01*
X57470267Y38223389D01*
X57799001Y38158000D01*
X58820999Y38158000D01*
X59149733Y38223389D01*
X59522522Y38472478D01*
X59579666Y38558000D01*
X60238405Y38558000D01*
X60310000Y38543759D01*
X60381595Y38558000D01*
X60381599Y38558000D01*
X60593661Y38600182D01*
X60834137Y38760863D01*
X60874696Y38821564D01*
X61313438Y39260305D01*
X61374137Y39300863D01*
X61534818Y39541339D01*
X61577000Y39753401D01*
X61577000Y39753405D01*
X61591241Y39824999D01*
X61577000Y39896593D01*
X61577000Y43658405D01*
X61591241Y43730000D01*
X61577000Y43801595D01*
X61577000Y43801599D01*
X61534818Y44013661D01*
X61528071Y44023759D01*
X61414695Y44193439D01*
X61414690Y44193444D01*
X61374136Y44254137D01*
X61313443Y44294691D01*
X60779696Y44828436D01*
X60739137Y44889137D01*
X60498661Y45049818D01*
X60286599Y45092000D01*
X60286595Y45092000D01*
X60215000Y45106241D01*
X60143405Y45092000D01*
X59579666Y45092000D01*
X59522522Y45177522D01*
X59149733Y45426611D01*
X58820999Y45492000D01*
X57799001Y45492000D01*
X57470267Y45426611D01*
X57438553Y45405420D01*
X57804727Y45771594D01*
X59510000Y45771594D01*
X59637589Y45796973D01*
X59745754Y45869246D01*
X59818027Y45977411D01*
X59843406Y46105000D01*
X59843406Y47423462D01*
X63365305Y43901562D01*
X63405863Y43840863D01*
X63646339Y43680182D01*
X63788726Y43651859D01*
X62291562Y42154694D01*
X62230864Y42114137D01*
X62190307Y42053439D01*
X62190306Y42053438D01*
X62070182Y41873660D01*
X62013759Y41590000D01*
X62028001Y41518400D01*
X62028000Y38551133D01*
X59750420Y36273552D01*
X59771611Y36305267D01*
X59859079Y36745000D01*
X59771611Y37184733D01*
X59522522Y37557522D01*
X59149733Y37806611D01*
X58820999Y37872000D01*
X57799001Y37872000D01*
X57470267Y37806611D01*
X57097478Y37557522D01*
X56848389Y37184733D01*
X56760921Y36745000D01*
X56848389Y36305267D01*
X57097478Y35932478D01*
X57470267Y35683389D01*
X57799001Y35618000D01*
X58820999Y35618000D01*
X59149733Y35683389D01*
X59181448Y35704580D01*
X58808868Y35332000D01*
X57799001Y35332000D01*
X57470267Y35266611D01*
X57097478Y35017522D01*
X56848389Y34644733D01*
X56760921Y34205000D01*
X56848389Y33765267D01*
X57097478Y33392478D01*
X57470267Y33143389D01*
X57799001Y33078000D01*
X58820999Y33078000D01*
X59149733Y33143389D01*
X59522522Y33392478D01*
X59771611Y33765267D01*
X59859079Y34205000D01*
X64380921Y34205000D01*
X64468389Y33765267D01*
X64717478Y33392478D01*
X65090267Y33143389D01*
X65419001Y33078000D01*
X66440999Y33078000D01*
X66769733Y33143389D01*
X67142522Y33392478D01*
X67391611Y33765267D01*
X67479079Y34205000D01*
X67391611Y34644733D01*
X67142522Y35017522D01*
X66769733Y35266611D01*
X66440999Y35332000D01*
X65419001Y35332000D01*
X65090267Y35266611D01*
X64717478Y35017522D01*
X64468389Y34644733D01*
X64380921Y34205000D01*
X59859079Y34205000D01*
X59839013Y34305881D01*
X63218441Y37685308D01*
X63279136Y37725863D01*
X63319692Y37786559D01*
X63319694Y37786561D01*
X63374239Y37868193D01*
X63405864Y37820863D01*
X63466562Y37780306D01*
X64400987Y36845880D01*
X64380921Y36745000D01*
X64468389Y36305267D01*
X64717478Y35932478D01*
X65090267Y35683389D01*
X65419001Y35618000D01*
X66440999Y35618000D01*
X66769733Y35683389D01*
X67142522Y35932478D01*
X67391611Y36305267D01*
X67413187Y36413739D01*
X72023000Y36413739D01*
X72023000Y35806261D01*
X72255472Y35245024D01*
X72685024Y34815472D01*
X73246261Y34583000D01*
X73853739Y34583000D01*
X74414976Y34815472D01*
X74844528Y35245024D01*
X75077000Y35806261D01*
X75077000Y36413739D01*
X74844528Y36974976D01*
X74414976Y37404528D01*
X73853739Y37637000D01*
X73246261Y37637000D01*
X72685024Y37404528D01*
X72255472Y36974976D01*
X72023000Y36413739D01*
X67413187Y36413739D01*
X67479079Y36745000D01*
X67391611Y37184733D01*
X67142522Y37557522D01*
X66769733Y37806611D01*
X66440999Y37872000D01*
X65431133Y37872000D01*
X65058552Y38244580D01*
X65090267Y38223389D01*
X65419001Y38158000D01*
X66440999Y38158000D01*
X66769733Y38223389D01*
X67142522Y38472478D01*
X67391611Y38845267D01*
X67479079Y39285000D01*
X67391611Y39724733D01*
X67142522Y40097522D01*
X66953625Y40223739D01*
X72023000Y40223739D01*
X72023000Y39616261D01*
X72255472Y39055024D01*
X72685024Y38625472D01*
X73246261Y38393000D01*
X73853739Y38393000D01*
X74414976Y38625472D01*
X74844528Y39055024D01*
X75077000Y39616261D01*
X75077000Y40223739D01*
X74844528Y40784976D01*
X74414976Y41214528D01*
X73853739Y41447000D01*
X73246261Y41447000D01*
X72685024Y41214528D01*
X72255472Y40784976D01*
X72023000Y40223739D01*
X66953625Y40223739D01*
X66769733Y40346611D01*
X66440999Y40412000D01*
X65419001Y40412000D01*
X65090267Y40346611D01*
X65058552Y40325420D01*
X65431133Y40698000D01*
X66440999Y40698000D01*
X66769733Y40763389D01*
X67142522Y41012478D01*
X67391611Y41385267D01*
X67479079Y41825000D01*
X67391611Y42264733D01*
X67142522Y42637522D01*
X66769733Y42886611D01*
X66440999Y42952000D01*
X65419001Y42952000D01*
X65090267Y42886611D01*
X65058555Y42865422D01*
X65431134Y43238000D01*
X66440999Y43238000D01*
X66769733Y43303389D01*
X67142522Y43552478D01*
X67391611Y43925267D01*
X67479079Y44365000D01*
X67391611Y44804733D01*
X67142522Y45177522D01*
X66769733Y45426611D01*
X66440999Y45492000D01*
X65419001Y45492000D01*
X65090267Y45426611D01*
X64717478Y45177522D01*
X64660334Y45092000D01*
X64231133Y45092000D01*
X62418133Y46905000D01*
X64380921Y46905000D01*
X64468389Y46465267D01*
X64717478Y46092478D01*
X65090267Y45843389D01*
X65419001Y45778000D01*
X66440999Y45778000D01*
X66769733Y45843389D01*
X67142522Y46092478D01*
X67391611Y46465267D01*
X67479079Y46905000D01*
X67434489Y47129174D01*
X68613000Y47129174D01*
X68613000Y46680826D01*
X68784576Y46266606D01*
X69101606Y45949576D01*
X69515826Y45778000D01*
X69964174Y45778000D01*
X70378394Y45949576D01*
X70695424Y46266606D01*
X70867000Y46680826D01*
X70867000Y47129174D01*
X70695424Y47543394D01*
X70378394Y47860424D01*
X69964174Y48032000D01*
X69515826Y48032000D01*
X69101606Y47860424D01*
X68784576Y47543394D01*
X68613000Y47129174D01*
X67434489Y47129174D01*
X67391611Y47344733D01*
X67142522Y47717522D01*
X66769733Y47966611D01*
X66440999Y48032000D01*
X65419001Y48032000D01*
X65090267Y47966611D01*
X64717478Y47717522D01*
X64468389Y47344733D01*
X64380921Y46905000D01*
X62418133Y46905000D01*
X59414696Y49908436D01*
X59374137Y49969137D01*
X59133661Y50129818D01*
X58921599Y50172000D01*
X58921595Y50172000D01*
X58850000Y50186241D01*
X58778405Y50172000D01*
X55036133Y50172000D01*
X54663551Y50544581D01*
X54695268Y50523389D01*
X55135000Y50435921D01*
X55574733Y50523389D01*
X55947522Y50772478D01*
X56196611Y51145267D01*
X56262000Y51474002D01*
X56262000Y52483868D01*
X56634581Y52856448D01*
X56613389Y52824732D01*
X56548000Y52495998D01*
X56548000Y51474001D01*
X56613389Y51145267D01*
X56862479Y50772478D01*
X57235268Y50523389D01*
X57675000Y50435921D01*
X58114733Y50523389D01*
X58487522Y50772478D01*
X58736611Y51145267D01*
X58802000Y51474002D01*
X58802000Y52495998D01*
X59088000Y52495998D01*
X59088000Y51474001D01*
X59153389Y51145267D01*
X59402479Y50772478D01*
X59775268Y50523389D01*
X60215000Y50435921D01*
X60654733Y50523389D01*
X61027522Y50772478D01*
X61276611Y51145267D01*
X61342000Y51474002D01*
X61342000Y52495998D01*
X61628000Y52495998D01*
X61628000Y51474001D01*
X61693389Y51145267D01*
X61942479Y50772478D01*
X62315268Y50523389D01*
X62755000Y50435921D01*
X63194733Y50523389D01*
X63567522Y50772478D01*
X63816611Y51145267D01*
X63882000Y51474002D01*
X63882000Y52495998D01*
X64168000Y52495998D01*
X64168000Y51474001D01*
X64233389Y51145267D01*
X64482479Y50772478D01*
X64855268Y50523389D01*
X65295000Y50435921D01*
X65734733Y50523389D01*
X66107522Y50772478D01*
X66356611Y51145267D01*
X66422000Y51474002D01*
X66422000Y52495998D01*
X66708000Y52495998D01*
X66708000Y51474001D01*
X66773389Y51145267D01*
X67022479Y50772478D01*
X67395268Y50523389D01*
X67835000Y50435921D01*
X68274733Y50523389D01*
X68647522Y50772478D01*
X68896611Y51145267D01*
X68962000Y51474002D01*
X68962000Y52495999D01*
X68896611Y52824733D01*
X68647522Y53197522D01*
X68274732Y53446611D01*
X67835000Y53534079D01*
X67395267Y53446611D01*
X67022478Y53197522D01*
X66773389Y52824732D01*
X66708000Y52495998D01*
X66422000Y52495998D01*
X66422000Y52495999D01*
X66356611Y52824733D01*
X66107522Y53197522D01*
X65734732Y53446611D01*
X65295000Y53534079D01*
X64855267Y53446611D01*
X64482478Y53197522D01*
X64233389Y52824732D01*
X64168000Y52495998D01*
X63882000Y52495998D01*
X63882000Y52495999D01*
X63816611Y52824733D01*
X63567522Y53197522D01*
X63194732Y53446611D01*
X62755000Y53534079D01*
X62315267Y53446611D01*
X61942478Y53197522D01*
X61693389Y52824732D01*
X61628000Y52495998D01*
X61342000Y52495998D01*
X61342000Y52495999D01*
X61276611Y52824733D01*
X61027522Y53197522D01*
X60654732Y53446611D01*
X60215000Y53534079D01*
X59775267Y53446611D01*
X59402478Y53197522D01*
X59153389Y52824732D01*
X59088000Y52495998D01*
X58802000Y52495998D01*
X58802000Y52495999D01*
X58736611Y52824733D01*
X58487522Y53197522D01*
X58114732Y53446611D01*
X57675000Y53534079D01*
X57235267Y53446611D01*
X57203555Y53425422D01*
X58211134Y54433000D01*
X69278781Y54433000D01*
X75413002Y48298778D01*
X75413001Y32527133D01*
X75077000Y32191132D01*
X75077000Y32603739D01*
X74844528Y33164976D01*
X74414976Y33594528D01*
X73853739Y33827000D01*
X73246261Y33827000D01*
X72685024Y33594528D01*
X72255472Y33164976D01*
X72023000Y32603739D01*
X72023000Y31996261D01*
X72255472Y31435024D01*
X72685024Y31005472D01*
X73246261Y30773000D01*
X73658869Y30773000D01*
X73086562Y30200692D01*
X73025864Y30160135D01*
X72985307Y30099437D01*
X72985306Y30099436D01*
X72865182Y29919658D01*
X72852066Y29853719D01*
X72685024Y29784528D01*
X72255472Y29354976D01*
X72023000Y28793739D01*
X72023000Y28186261D01*
X72255472Y27625024D01*
X72685024Y27195472D01*
X73246261Y26963000D01*
X73853739Y26963000D01*
X74414976Y27195472D01*
X74844528Y27625024D01*
X75077000Y28186261D01*
X75077000Y28793739D01*
X74844528Y29354976D01*
X74570819Y29628685D01*
X76603444Y31661308D01*
X76664137Y31701862D01*
X76704691Y31762555D01*
X76704696Y31762560D01*
X76824819Y31942338D01*
X76835545Y31996261D01*
X76867001Y32154400D01*
X76867001Y32154404D01*
X76881242Y32225999D01*
X76867001Y32297594D01*
X76867001Y48528319D01*
X76881242Y48599913D01*
X76867001Y48671507D01*
X76867001Y48671511D01*
X76824819Y48883573D01*
X76664138Y49124049D01*
X76603440Y49164606D01*
X70144609Y55623436D01*
X70104050Y55684137D01*
X69863574Y55844818D01*
X69651512Y55887000D01*
X69651508Y55887000D01*
X69579913Y55901241D01*
X69508318Y55887000D01*
X57981595Y55887000D01*
X57910000Y55901241D01*
X57838405Y55887000D01*
X57838401Y55887000D01*
X57626339Y55844818D01*
X57446561Y55724695D01*
X57446558Y55724692D01*
X57385863Y55684137D01*
X57345307Y55623441D01*
X55235880Y53514013D01*
X55135000Y53534079D01*
X54695267Y53446611D01*
X54322478Y53197522D01*
X54073389Y52824732D01*
X54008000Y52495998D01*
X54008000Y51474001D01*
X54073389Y51145267D01*
X54094580Y51113552D01*
X53722000Y51486132D01*
X53722000Y52495999D01*
X53656611Y52824733D01*
X53407522Y53197522D01*
X53034732Y53446611D01*
X52595000Y53534079D01*
X52155267Y53446611D01*
X51782478Y53197522D01*
X51533389Y52824732D01*
X51468000Y52495998D01*
X51468000Y51474001D01*
X51533389Y51145267D01*
X51782479Y50772478D01*
X52155268Y50523389D01*
X52595000Y50435921D01*
X52695880Y50455987D01*
X54170306Y48981562D01*
X54210863Y48920863D01*
X54451339Y48760182D01*
X54663401Y48718000D01*
X54663404Y48718000D01*
X54734999Y48703759D01*
X54806594Y48718000D01*
X58548868Y48718000D01*
X59228462Y48038406D01*
X57110000Y48038406D01*
X56982411Y48013027D01*
X56874246Y47940754D01*
X56801973Y47832589D01*
X56776594Y47705000D01*
X56776594Y46799727D01*
X55306562Y45329694D01*
X55245863Y45289136D01*
X55085182Y45048660D01*
X55043000Y44836598D01*
X55043000Y44836595D01*
X55028759Y44765000D01*
X55043000Y44693405D01*
X55043001Y32392000D01*
X54499666Y32392000D01*
X54442522Y32477522D01*
X54069733Y32726611D01*
X53740999Y32792000D01*
X52719001Y32792000D01*
X52390267Y32726611D01*
X52052000Y32500589D01*
X52052000Y33369411D01*
X52390267Y33143389D01*
X52719001Y33078000D01*
X53740999Y33078000D01*
X54069733Y33143389D01*
X54442522Y33392478D01*
X54691611Y33765267D01*
X54779079Y34205000D01*
X54691611Y34644733D01*
X54442522Y35017522D01*
X54069733Y35266611D01*
X53740999Y35332000D01*
X52719001Y35332000D01*
X52390267Y35266611D01*
X52017478Y35017522D01*
X51960334Y34932000D01*
X51396599Y34932000D01*
X51325000Y34946242D01*
X51253401Y34932000D01*
X51041339Y34889818D01*
X50800863Y34729137D01*
X50640182Y34488661D01*
X50583758Y34205000D01*
X50598001Y34133396D01*
X50598000Y26181682D01*
X50583759Y26110087D01*
X50598000Y26038492D01*
X50598000Y26038489D01*
X50640182Y25826427D01*
X50800863Y25585951D01*
X50861562Y25545393D01*
X51999964Y24406990D01*
X49512000Y24406990D01*
X49512000Y29688405D01*
X49526241Y29760000D01*
X49512000Y29831595D01*
X49512000Y36745000D01*
X51680921Y36745000D01*
X51768389Y36305267D01*
X52017478Y35932478D01*
X52390267Y35683389D01*
X52719001Y35618000D01*
X53740999Y35618000D01*
X54069733Y35683389D01*
X54442522Y35932478D01*
X54691611Y36305267D01*
X54779079Y36745000D01*
X54691611Y37184733D01*
X54442522Y37557522D01*
X54069733Y37806611D01*
X53740999Y37872000D01*
X52719001Y37872000D01*
X52390267Y37806611D01*
X52017478Y37557522D01*
X51768389Y37184733D01*
X51680921Y36745000D01*
X49512000Y36745000D01*
X49512000Y37808868D01*
X50261133Y38558000D01*
X51960334Y38558000D01*
X52017478Y38472478D01*
X52390267Y38223389D01*
X52719001Y38158000D01*
X53740999Y38158000D01*
X54069733Y38223389D01*
X54442522Y38472478D01*
X54691611Y38845267D01*
X54779079Y39285000D01*
X54691611Y39724733D01*
X54442522Y40097522D01*
X54069733Y40346611D01*
X53740999Y40412000D01*
X52719001Y40412000D01*
X52390267Y40346611D01*
X52017478Y40097522D01*
X51960334Y40012000D01*
X50031595Y40012000D01*
X49960000Y40026241D01*
X49888405Y40012000D01*
X49888401Y40012000D01*
X49676339Y39969818D01*
X49435863Y39809137D01*
X49395305Y39748438D01*
X48785000Y39138133D01*
X48174696Y39748436D01*
X48134137Y39809137D01*
X47893661Y39969818D01*
X47681599Y40012000D01*
X47681595Y40012000D01*
X47610000Y40026241D01*
X47538405Y40012000D01*
X46879666Y40012000D01*
X46822522Y40097522D01*
X46449733Y40346611D01*
X46120999Y40412000D01*
X45099001Y40412000D01*
X44770267Y40346611D01*
X44397478Y40097522D01*
X44148389Y39724733D01*
X44060921Y39285000D01*
X44148389Y38845267D01*
X44397478Y38472478D01*
X44770267Y38223389D01*
X45099001Y38158000D01*
X46120999Y38158000D01*
X46449733Y38223389D01*
X46822522Y38472478D01*
X46879666Y38558000D01*
X47308868Y38558000D01*
X48058000Y37808867D01*
X48058001Y30061134D01*
X47848867Y29852000D01*
X46879666Y29852000D01*
X46822522Y29937522D01*
X46449733Y30186611D01*
X46120999Y30252000D01*
X45099001Y30252000D01*
X44770267Y30186611D01*
X44397478Y29937522D01*
X44148389Y29564733D01*
X44060921Y29125000D01*
X44148389Y28685267D01*
X44397478Y28312478D01*
X44770267Y28063389D01*
X45099001Y27998000D01*
X46120999Y27998000D01*
X46449733Y28063389D01*
X46822522Y28312478D01*
X46879666Y28398000D01*
X48058000Y28398000D01*
X48058001Y24406990D01*
X37386143Y24406990D01*
X35542000Y26251132D01*
X35542000Y26353182D01*
X35770424Y26581606D01*
X35942000Y26995826D01*
X35942000Y27444174D01*
X35770424Y27858394D01*
X35735817Y27893001D01*
X40201911Y27893001D01*
X40333341Y27805182D01*
X40545403Y27763000D01*
X40545408Y27763000D01*
X40617001Y27748759D01*
X40688595Y27763000D01*
X42363401Y27763000D01*
X42435000Y27748758D01*
X42718661Y27805182D01*
X42959137Y27965863D01*
X43119818Y28206339D01*
X43162000Y28418401D01*
X43162000Y28418402D01*
X43176242Y28490000D01*
X43162000Y28561599D01*
X43162000Y31665000D01*
X44060921Y31665000D01*
X44148389Y31225267D01*
X44397478Y30852478D01*
X44770267Y30603389D01*
X45099001Y30538000D01*
X46120999Y30538000D01*
X46449733Y30603389D01*
X46822522Y30852478D01*
X47071611Y31225267D01*
X47159079Y31665000D01*
X47071611Y32104733D01*
X46822522Y32477522D01*
X46449733Y32726611D01*
X46120999Y32792000D01*
X45099001Y32792000D01*
X44770267Y32726611D01*
X44397478Y32477522D01*
X44148389Y32104733D01*
X44060921Y31665000D01*
X43162000Y31665000D01*
X43162000Y33108781D01*
X44093655Y34040435D01*
X44148389Y33765267D01*
X44397478Y33392478D01*
X44770267Y33143389D01*
X45099001Y33078000D01*
X46120999Y33078000D01*
X46449733Y33143389D01*
X46822522Y33392478D01*
X47071611Y33765267D01*
X47159079Y34205000D01*
X47071611Y34644733D01*
X46822522Y35017522D01*
X46449733Y35266611D01*
X46120999Y35332000D01*
X45385220Y35332000D01*
X45671220Y35618000D01*
X46120999Y35618000D01*
X46449733Y35683389D01*
X46822522Y35932478D01*
X47071611Y36305267D01*
X47159079Y36745000D01*
X47071611Y37184733D01*
X46822522Y37557522D01*
X46449733Y37806611D01*
X46120999Y37872000D01*
X45099001Y37872000D01*
X44770267Y37806611D01*
X44397478Y37557522D01*
X44148389Y37184733D01*
X44060921Y36745000D01*
X44148389Y36305267D01*
X44210005Y36213051D01*
X41971562Y33974607D01*
X41910863Y33934049D01*
X41750182Y33693573D01*
X41708000Y33481511D01*
X41708000Y33481508D01*
X41693759Y33409913D01*
X41708000Y33338318D01*
X41708001Y29217000D01*
X40902092Y29217000D01*
X40770662Y29304819D01*
X40680882Y29322677D01*
X40734733Y29333389D01*
X41107522Y29582478D01*
X41356611Y29955267D01*
X41444079Y30395000D01*
X41356611Y30834733D01*
X41107522Y31207522D01*
X40734733Y31456611D01*
X40405999Y31522000D01*
X39384001Y31522000D01*
X39055267Y31456611D01*
X38682478Y31207522D01*
X38433389Y30834733D01*
X38345921Y30395000D01*
X38433389Y29955267D01*
X38682478Y29582478D01*
X39034895Y29347001D01*
X28557000Y29347001D01*
X28557000Y40015000D01*
X28993759Y40015000D01*
X29008000Y39943405D01*
X29008001Y36181600D01*
X28993759Y36110000D01*
X29050182Y35826340D01*
X29170306Y35646562D01*
X29210864Y35585863D01*
X29271562Y35545306D01*
X29805307Y35011559D01*
X29845863Y34950863D01*
X29906558Y34910308D01*
X29906561Y34910305D01*
X30048490Y34815472D01*
X30086339Y34790182D01*
X30298401Y34748000D01*
X30298405Y34748000D01*
X30370000Y34733759D01*
X30441595Y34748000D01*
X31005334Y34748000D01*
X31062478Y34662478D01*
X31435267Y34413389D01*
X31764001Y34348000D01*
X32785999Y34348000D01*
X33114733Y34413389D01*
X33146448Y34434580D01*
X32773868Y34062000D01*
X31764001Y34062000D01*
X31435267Y33996611D01*
X31062478Y33747522D01*
X30813389Y33374733D01*
X30725921Y32935000D01*
X30813389Y32495267D01*
X31062478Y32122478D01*
X31435267Y31873389D01*
X31764001Y31808000D01*
X32785999Y31808000D01*
X33114733Y31873389D01*
X33487522Y32122478D01*
X33736611Y32495267D01*
X33824079Y32935000D01*
X38345921Y32935000D01*
X38433389Y32495267D01*
X38682478Y32122478D01*
X39055267Y31873389D01*
X39384001Y31808000D01*
X40405999Y31808000D01*
X40734733Y31873389D01*
X41107522Y32122478D01*
X41356611Y32495267D01*
X41444079Y32935000D01*
X41356611Y33374733D01*
X41107522Y33747522D01*
X40734733Y33996611D01*
X40405999Y34062000D01*
X39384001Y34062000D01*
X39055267Y33996611D01*
X38682478Y33747522D01*
X38433389Y33374733D01*
X38345921Y32935000D01*
X33824079Y32935000D01*
X33804013Y33035881D01*
X36243132Y35475000D01*
X38345921Y35475000D01*
X38433389Y35035267D01*
X38682478Y34662478D01*
X39055267Y34413389D01*
X39384001Y34348000D01*
X40405999Y34348000D01*
X40734733Y34413389D01*
X41107522Y34662478D01*
X41356611Y35035267D01*
X41444079Y35475000D01*
X41356611Y35914733D01*
X41107522Y36287522D01*
X40734733Y36536611D01*
X40405999Y36602000D01*
X39384001Y36602000D01*
X39055267Y36536611D01*
X38682478Y36287522D01*
X38433389Y35914733D01*
X38345921Y35475000D01*
X36243132Y35475000D01*
X36548441Y35780308D01*
X36609136Y35820863D01*
X36649692Y35881559D01*
X36649694Y35881561D01*
X36769045Y36060182D01*
X36769818Y36061339D01*
X36812000Y36273401D01*
X36812000Y36273405D01*
X36826241Y36344999D01*
X36812000Y36416593D01*
X36812000Y38015000D01*
X38345921Y38015000D01*
X38433389Y37575267D01*
X38682478Y37202478D01*
X39055267Y36953389D01*
X39384001Y36888000D01*
X40405999Y36888000D01*
X40734733Y36953389D01*
X41107522Y37202478D01*
X41356611Y37575267D01*
X41444079Y38015000D01*
X41356611Y38454733D01*
X41107522Y38827522D01*
X40734733Y39076611D01*
X40405999Y39142000D01*
X39384001Y39142000D01*
X39055267Y39076611D01*
X38682478Y38827522D01*
X38433389Y38454733D01*
X38345921Y38015000D01*
X36812000Y38015000D01*
X36812000Y39383868D01*
X38454580Y41026447D01*
X38433389Y40994733D01*
X38345921Y40555000D01*
X38433389Y40115267D01*
X38682478Y39742478D01*
X39055267Y39493389D01*
X39384001Y39428000D01*
X40405999Y39428000D01*
X40734733Y39493389D01*
X41107522Y39742478D01*
X41356611Y40115267D01*
X41444079Y40555000D01*
X41356611Y40994733D01*
X41107522Y41367522D01*
X40734733Y41616611D01*
X40405999Y41682000D01*
X39384001Y41682000D01*
X39055267Y41616611D01*
X39023553Y41595421D01*
X39396133Y41968000D01*
X40405999Y41968000D01*
X40734733Y42033389D01*
X41107522Y42282478D01*
X41336387Y42625000D01*
X44076594Y42625000D01*
X44076594Y41025000D01*
X44101973Y40897411D01*
X44174246Y40789246D01*
X44282411Y40716973D01*
X44410000Y40691594D01*
X46810000Y40691594D01*
X46937589Y40716973D01*
X47045754Y40789246D01*
X47118027Y40897411D01*
X47143406Y41025000D01*
X47143406Y41825000D01*
X51680921Y41825000D01*
X51768389Y41385267D01*
X52017478Y41012478D01*
X52390267Y40763389D01*
X52719001Y40698000D01*
X53740999Y40698000D01*
X54069733Y40763389D01*
X54442522Y41012478D01*
X54691611Y41385267D01*
X54779079Y41825000D01*
X54691611Y42264733D01*
X54442522Y42637522D01*
X54069733Y42886611D01*
X53740999Y42952000D01*
X52719001Y42952000D01*
X52390267Y42886611D01*
X52017478Y42637522D01*
X51768389Y42264733D01*
X51680921Y41825000D01*
X47143406Y41825000D01*
X47143406Y42625000D01*
X47118027Y42752589D01*
X47045754Y42860754D01*
X46937589Y42933027D01*
X46810000Y42958406D01*
X44410000Y42958406D01*
X44282411Y42933027D01*
X44174246Y42860754D01*
X44101973Y42752589D01*
X44076594Y42625000D01*
X41336387Y42625000D01*
X41356611Y42655267D01*
X41444079Y43095000D01*
X41356611Y43534733D01*
X41107522Y43907522D01*
X40734733Y44156611D01*
X40405999Y44222000D01*
X39384001Y44222000D01*
X39055267Y44156611D01*
X38682478Y43907522D01*
X38433389Y43534733D01*
X38345921Y43095000D01*
X38365987Y42994120D01*
X35621562Y40249694D01*
X35560864Y40209137D01*
X35520307Y40148439D01*
X35520306Y40148438D01*
X35400182Y39968660D01*
X35343759Y39685000D01*
X35358001Y39613400D01*
X35358000Y36646133D01*
X33715420Y35003553D01*
X33736611Y35035267D01*
X33824079Y35475000D01*
X33736611Y35914733D01*
X33487522Y36287522D01*
X33114733Y36536611D01*
X32785999Y36602000D01*
X31764001Y36602000D01*
X31435267Y36536611D01*
X31062478Y36287522D01*
X31005334Y36202000D01*
X30671133Y36202000D01*
X30462000Y36411133D01*
X30462000Y38015000D01*
X30725921Y38015000D01*
X30813389Y37575267D01*
X31062478Y37202478D01*
X31435267Y36953389D01*
X31764001Y36888000D01*
X32785999Y36888000D01*
X33114733Y36953389D01*
X33487522Y37202478D01*
X33736611Y37575267D01*
X33824079Y38015000D01*
X33736611Y38454733D01*
X33487522Y38827522D01*
X33114733Y39076611D01*
X32785999Y39142000D01*
X31764001Y39142000D01*
X31435267Y39076611D01*
X31062478Y38827522D01*
X30813389Y38454733D01*
X30725921Y38015000D01*
X30462000Y38015000D01*
X30462000Y39713868D01*
X30576133Y39828000D01*
X31005334Y39828000D01*
X31062478Y39742478D01*
X31435267Y39493389D01*
X31764001Y39428000D01*
X32785999Y39428000D01*
X33114733Y39493389D01*
X33487522Y39742478D01*
X33736611Y40115267D01*
X33824079Y40555000D01*
X33736611Y40994733D01*
X33487522Y41367522D01*
X33114733Y41616611D01*
X32785999Y41682000D01*
X31764001Y41682000D01*
X31435267Y41616611D01*
X31062478Y41367522D01*
X31005334Y41282000D01*
X30346593Y41282000D01*
X30274999Y41296241D01*
X30203405Y41282000D01*
X30203401Y41282000D01*
X29991339Y41239818D01*
X29750863Y41079137D01*
X29710305Y41018438D01*
X29271562Y40579694D01*
X29210863Y40539136D01*
X29050182Y40298660D01*
X29008000Y40086598D01*
X29008000Y40086595D01*
X28993759Y40015000D01*
X28557000Y40015000D01*
X28557000Y43095000D01*
X30725921Y43095000D01*
X30813389Y42655267D01*
X31062478Y42282478D01*
X31435267Y42033389D01*
X31764001Y41968000D01*
X32785999Y41968000D01*
X33114733Y42033389D01*
X33487522Y42282478D01*
X33736611Y42655267D01*
X33824079Y43095000D01*
X33736611Y43534733D01*
X33487522Y43907522D01*
X33114733Y44156611D01*
X32785999Y44222000D01*
X31764001Y44222000D01*
X31435267Y44156611D01*
X31062478Y43907522D01*
X30813389Y43534733D01*
X30725921Y43095000D01*
X28557000Y43095000D01*
X28557000Y43428868D01*
X30036133Y44908000D01*
X30741594Y44908000D01*
X30741594Y44835000D01*
X30766973Y44707411D01*
X30839246Y44599246D01*
X30947411Y44526973D01*
X31075000Y44501594D01*
X33475000Y44501594D01*
X33602589Y44526973D01*
X33710754Y44599246D01*
X33783027Y44707411D01*
X33808406Y44835000D01*
X33808406Y46435000D01*
X33783027Y46562589D01*
X33710754Y46670754D01*
X33602589Y46743027D01*
X33475000Y46768406D01*
X31075000Y46768406D01*
X30947411Y46743027D01*
X30839246Y46670754D01*
X30766973Y46562589D01*
X30741594Y46435000D01*
X30741594Y46362000D01*
X29806595Y46362000D01*
X29735000Y46376241D01*
X29663405Y46362000D01*
X29663401Y46362000D01*
X29451339Y46319818D01*
X29210863Y46159137D01*
X29170306Y46098439D01*
X27366562Y44294694D01*
X27305864Y44254137D01*
X27265307Y44193439D01*
X27265306Y44193438D01*
X27145182Y44013660D01*
X27088759Y43730000D01*
X21708026Y43730000D01*
X21837000Y44041370D01*
X21837000Y44688630D01*
X21589304Y45286622D01*
X21131622Y45744304D01*
X20533630Y45992000D01*
X19886370Y45992000D01*
X19288378Y45744304D01*
X18830696Y45286622D01*
X18583000Y44688630D01*
X13402000Y44688630D01*
X13402000Y47310044D01*
X26875566Y47310044D01*
X26875566Y46861696D01*
X27047142Y46447476D01*
X27364172Y46130446D01*
X27778392Y45958870D01*
X28226740Y45958870D01*
X28640960Y46130446D01*
X28957990Y46447476D01*
X29129566Y46861696D01*
X29129566Y47184738D01*
X30027829Y48083000D01*
X36018868Y48083000D01*
X38365987Y45735880D01*
X38345921Y45635000D01*
X38433389Y45195267D01*
X38682478Y44822478D01*
X39055267Y44573389D01*
X39384001Y44508000D01*
X40405999Y44508000D01*
X40734733Y44573389D01*
X41107522Y44822478D01*
X41356611Y45195267D01*
X41444079Y45635000D01*
X41356611Y46074733D01*
X41107522Y46447522D01*
X40734733Y46696611D01*
X40405999Y46762000D01*
X39396133Y46762000D01*
X38222263Y47935870D01*
X45234160Y47935870D01*
X45234160Y46235870D01*
X45259539Y46108281D01*
X45331812Y46000116D01*
X45439977Y45927843D01*
X45567566Y45902464D01*
X47267566Y45902464D01*
X47395155Y45927843D01*
X47503320Y46000116D01*
X47575593Y46108281D01*
X47600972Y46235870D01*
X47600972Y47085870D01*
X47757508Y47085870D01*
X47848857Y46626628D01*
X48108997Y46237301D01*
X48498324Y45977161D01*
X48841646Y45908870D01*
X49073486Y45908870D01*
X49416808Y45977161D01*
X49806135Y46237301D01*
X50066275Y46626628D01*
X50157624Y47085870D01*
X50297508Y47085870D01*
X50388857Y46626628D01*
X50648997Y46237301D01*
X51038324Y45977161D01*
X51381646Y45908870D01*
X51613486Y45908870D01*
X51956808Y45977161D01*
X52346135Y46237301D01*
X52606275Y46626628D01*
X52697624Y47085870D01*
X52606275Y47545112D01*
X52346135Y47934439D01*
X51956808Y48194579D01*
X51613486Y48262870D01*
X51381646Y48262870D01*
X51038324Y48194579D01*
X50648997Y47934439D01*
X50388857Y47545112D01*
X50297508Y47085870D01*
X50157624Y47085870D01*
X50066275Y47545112D01*
X49806135Y47934439D01*
X49416808Y48194579D01*
X49073486Y48262870D01*
X48841646Y48262870D01*
X48498324Y48194579D01*
X48108997Y47934439D01*
X47848857Y47545112D01*
X47757508Y47085870D01*
X47600972Y47085870D01*
X47600972Y47935870D01*
X47575593Y48063459D01*
X47503320Y48171624D01*
X47395155Y48243897D01*
X47267566Y48269276D01*
X45567566Y48269276D01*
X45439977Y48243897D01*
X45331812Y48171624D01*
X45259539Y48063459D01*
X45234160Y47935870D01*
X38222263Y47935870D01*
X36884696Y49273436D01*
X36844137Y49334137D01*
X36603661Y49494818D01*
X36391599Y49537000D01*
X36391595Y49537000D01*
X36320000Y49551241D01*
X36248405Y49537000D01*
X29798290Y49537000D01*
X29726695Y49551241D01*
X29655100Y49537000D01*
X29655097Y49537000D01*
X29443035Y49494818D01*
X29202559Y49334137D01*
X29162002Y49273438D01*
X28101434Y48212870D01*
X27778392Y48212870D01*
X27364172Y48041294D01*
X27047142Y47724264D01*
X26875566Y47310044D01*
X13402000Y47310044D01*
X13402000Y52495998D01*
X33688000Y52495998D01*
X33688000Y51474001D01*
X33753389Y51145267D01*
X34002479Y50772478D01*
X34375268Y50523389D01*
X34815000Y50435921D01*
X35254733Y50523389D01*
X35627522Y50772478D01*
X35876611Y51145267D01*
X35942000Y51474002D01*
X35942000Y52495998D01*
X36228000Y52495998D01*
X36228000Y51474001D01*
X36293389Y51145267D01*
X36542479Y50772478D01*
X36915268Y50523389D01*
X37355000Y50435921D01*
X37794733Y50523389D01*
X38167522Y50772478D01*
X38416611Y51145267D01*
X38482000Y51474002D01*
X38482000Y52495998D01*
X38768000Y52495998D01*
X38768000Y51474001D01*
X38833389Y51145267D01*
X39082479Y50772478D01*
X39455268Y50523389D01*
X39895000Y50435921D01*
X40334733Y50523389D01*
X40707522Y50772478D01*
X40956611Y51145267D01*
X41022000Y51474002D01*
X41022000Y52495998D01*
X41308000Y52495998D01*
X41308000Y51474001D01*
X41373389Y51145267D01*
X41622479Y50772478D01*
X41995268Y50523389D01*
X42435000Y50435921D01*
X42874733Y50523389D01*
X43247522Y50772478D01*
X43496611Y51145267D01*
X43562000Y51474002D01*
X43562000Y52495998D01*
X43848000Y52495998D01*
X43848000Y51474001D01*
X43913389Y51145267D01*
X44162479Y50772478D01*
X44535268Y50523389D01*
X44975000Y50435921D01*
X45414733Y50523389D01*
X45787522Y50772478D01*
X46036611Y51145267D01*
X46102000Y51474002D01*
X46102000Y52495998D01*
X46388000Y52495998D01*
X46388000Y51474001D01*
X46453389Y51145267D01*
X46702479Y50772478D01*
X47075268Y50523389D01*
X47515000Y50435921D01*
X47954733Y50523389D01*
X48327522Y50772478D01*
X48576611Y51145267D01*
X48642000Y51474002D01*
X48642000Y52495998D01*
X48928000Y52495998D01*
X48928000Y51474001D01*
X48993389Y51145267D01*
X49242479Y50772478D01*
X49615268Y50523389D01*
X50055000Y50435921D01*
X50494733Y50523389D01*
X50867522Y50772478D01*
X51116611Y51145267D01*
X51182000Y51474002D01*
X51182000Y52495999D01*
X51116611Y52824733D01*
X50867522Y53197522D01*
X50494732Y53446611D01*
X50055000Y53534079D01*
X49615267Y53446611D01*
X49242478Y53197522D01*
X48993389Y52824732D01*
X48928000Y52495998D01*
X48642000Y52495998D01*
X48642000Y52495999D01*
X48576611Y52824733D01*
X48327522Y53197522D01*
X47954732Y53446611D01*
X47515000Y53534079D01*
X47075267Y53446611D01*
X46702478Y53197522D01*
X46453389Y52824732D01*
X46388000Y52495998D01*
X46102000Y52495998D01*
X46102000Y52495999D01*
X46036611Y52824733D01*
X45787522Y53197522D01*
X45414732Y53446611D01*
X44975000Y53534079D01*
X44535267Y53446611D01*
X44162478Y53197522D01*
X43913389Y52824732D01*
X43848000Y52495998D01*
X43562000Y52495998D01*
X43562000Y52495999D01*
X43496611Y52824733D01*
X43247522Y53197522D01*
X42874732Y53446611D01*
X42435000Y53534079D01*
X41995267Y53446611D01*
X41622478Y53197522D01*
X41373389Y52824732D01*
X41308000Y52495998D01*
X41022000Y52495998D01*
X41022000Y52495999D01*
X40956611Y52824733D01*
X40707522Y53197522D01*
X40334732Y53446611D01*
X39895000Y53534079D01*
X39455267Y53446611D01*
X39082478Y53197522D01*
X38833389Y52824732D01*
X38768000Y52495998D01*
X38482000Y52495998D01*
X38482000Y52495999D01*
X38416611Y52824733D01*
X38167522Y53197522D01*
X37794732Y53446611D01*
X37355000Y53534079D01*
X36915267Y53446611D01*
X36542478Y53197522D01*
X36293389Y52824732D01*
X36228000Y52495998D01*
X35942000Y52495998D01*
X35942000Y52495999D01*
X35876611Y52824733D01*
X35627522Y53197522D01*
X35254732Y53446611D01*
X34815000Y53534079D01*
X34375267Y53446611D01*
X34002478Y53197522D01*
X33753389Y52824732D01*
X33688000Y52495998D01*
X13402000Y52495998D01*
X13402000Y53890000D01*
X15993641Y53890000D01*
X16086046Y53425451D01*
X16349191Y53031625D01*
X16743017Y52768480D01*
X17090304Y52699400D01*
X17324828Y52699400D01*
X17672115Y52768480D01*
X18065941Y53031625D01*
X18329086Y53425451D01*
X18421491Y53890000D01*
X18329086Y54354549D01*
X18065941Y54748375D01*
X18058122Y54753600D01*
X18550560Y54753600D01*
X18550560Y53026400D01*
X18575939Y52898811D01*
X18648212Y52790646D01*
X18756377Y52718373D01*
X18883966Y52692994D01*
X20611166Y52692994D01*
X20738755Y52718373D01*
X20846920Y52790646D01*
X20919193Y52898811D01*
X20944572Y53026400D01*
X20944572Y54753600D01*
X20919193Y54881189D01*
X20846920Y54989354D01*
X20738755Y55061627D01*
X20611166Y55087006D01*
X18883966Y55087006D01*
X18756377Y55061627D01*
X18648212Y54989354D01*
X18575939Y54881189D01*
X18550560Y54753600D01*
X18058122Y54753600D01*
X17672115Y55011520D01*
X17324828Y55080600D01*
X17090304Y55080600D01*
X16743017Y55011520D01*
X16349191Y54748375D01*
X16086046Y54354549D01*
X15993641Y53890000D01*
X13402000Y53890000D01*
X13402000Y56430000D01*
X18533641Y56430000D01*
X18626046Y55965451D01*
X18889191Y55571625D01*
X19283017Y55308480D01*
X19630304Y55239400D01*
X19864828Y55239400D01*
X20212115Y55308480D01*
X20605941Y55571625D01*
X20869086Y55965451D01*
X20961491Y56430000D01*
X20869086Y56894549D01*
X20605941Y57288375D01*
X20212115Y57551520D01*
X19864828Y57620600D01*
X19630304Y57620600D01*
X19283017Y57551520D01*
X18889191Y57288375D01*
X18626046Y56894549D01*
X18533641Y56430000D01*
X13402000Y56430000D01*
X13402000Y58970000D01*
X15993641Y58970000D01*
X16086046Y58505451D01*
X16349191Y58111625D01*
X16743017Y57848480D01*
X17090304Y57779400D01*
X17324828Y57779400D01*
X17672115Y57848480D01*
X18065941Y58111625D01*
X18329086Y58505451D01*
X18421491Y58970000D01*
X18533641Y58970000D01*
X18626046Y58505451D01*
X18889191Y58111625D01*
X19283017Y57848480D01*
X19630304Y57779400D01*
X19864828Y57779400D01*
X20212115Y57848480D01*
X20605941Y58111625D01*
X20869086Y58505451D01*
X20961491Y58970000D01*
X20869086Y59434549D01*
X20605941Y59828375D01*
X20212115Y60091520D01*
X19864828Y60160600D01*
X19630304Y60160600D01*
X19283017Y60091520D01*
X18889191Y59828375D01*
X18626046Y59434549D01*
X18533641Y58970000D01*
X18421491Y58970000D01*
X18329086Y59434549D01*
X18065941Y59828375D01*
X17672115Y60091520D01*
X17324828Y60160600D01*
X17090304Y60160600D01*
X16743017Y60091520D01*
X16349191Y59828375D01*
X16086046Y59434549D01*
X15993641Y58970000D01*
X13402000Y58970000D01*
X13402000Y61510000D01*
X18533641Y61510000D01*
X18626046Y61045451D01*
X18889191Y60651625D01*
X19283017Y60388480D01*
X19630304Y60319400D01*
X19864828Y60319400D01*
X20212115Y60388480D01*
X20605941Y60651625D01*
X20869086Y61045451D01*
X20961491Y61510000D01*
X20869086Y61974549D01*
X20605941Y62368375D01*
X20212115Y62631520D01*
X19864828Y62700600D01*
X19630304Y62700600D01*
X19283017Y62631520D01*
X18889191Y62368375D01*
X18626046Y61974549D01*
X18533641Y61510000D01*
X13402000Y61510000D01*
X13402000Y64050000D01*
X15993641Y64050000D01*
X16086046Y63585451D01*
X16349191Y63191625D01*
X16743017Y62928480D01*
X17090304Y62859400D01*
X17324828Y62859400D01*
X17672115Y62928480D01*
X18065941Y63191625D01*
X18329086Y63585451D01*
X18421491Y64050000D01*
X18533641Y64050000D01*
X18626046Y63585451D01*
X18889191Y63191625D01*
X19283017Y62928480D01*
X19630304Y62859400D01*
X19864828Y62859400D01*
X20212115Y62928480D01*
X20605941Y63191625D01*
X20869086Y63585451D01*
X20961491Y64050000D01*
X20869086Y64514549D01*
X20605941Y64908375D01*
X20212115Y65171520D01*
X19864828Y65240600D01*
X19630304Y65240600D01*
X19283017Y65171520D01*
X18889191Y64908375D01*
X18626046Y64514549D01*
X18533641Y64050000D01*
X18421491Y64050000D01*
X18329086Y64514549D01*
X18065941Y64908375D01*
X17672115Y65171520D01*
X17324828Y65240600D01*
X17090304Y65240600D01*
X16743017Y65171520D01*
X16349191Y64908375D01*
X16086046Y64514549D01*
X15993641Y64050000D01*
X13402000Y64050000D01*
X13402000Y66590000D01*
X15993641Y66590000D01*
X16086046Y66125451D01*
X16349191Y65731625D01*
X16743017Y65468480D01*
X17090304Y65399400D01*
X17324828Y65399400D01*
X17672115Y65468480D01*
X18065941Y65731625D01*
X18329086Y66125451D01*
X18421491Y66590000D01*
X18533641Y66590000D01*
X18626046Y66125451D01*
X18889191Y65731625D01*
X19283017Y65468480D01*
X19630304Y65399400D01*
X19864828Y65399400D01*
X20212115Y65468480D01*
X20605941Y65731625D01*
X20869086Y66125451D01*
X20961491Y66590000D01*
X20869086Y67054549D01*
X20605941Y67448375D01*
X20212115Y67711520D01*
X19864828Y67780600D01*
X19630304Y67780600D01*
X19283017Y67711520D01*
X18889191Y67448375D01*
X18626046Y67054549D01*
X18533641Y66590000D01*
X18421491Y66590000D01*
X18329086Y67054549D01*
X18065941Y67448375D01*
X17672115Y67711520D01*
X17324828Y67780600D01*
X17090304Y67780600D01*
X16743017Y67711520D01*
X16349191Y67448375D01*
X16086046Y67054549D01*
X15993641Y66590000D01*
X13402000Y66590000D01*
X13402000Y69130000D01*
X15993641Y69130000D01*
X16086046Y68665451D01*
X16349191Y68271625D01*
X16743017Y68008480D01*
X17090304Y67939400D01*
X17324828Y67939400D01*
X17672115Y68008480D01*
X18065941Y68271625D01*
X18329086Y68665451D01*
X18421491Y69130000D01*
X18533641Y69130000D01*
X18626046Y68665451D01*
X18889191Y68271625D01*
X19283017Y68008480D01*
X19630304Y67939400D01*
X19864828Y67939400D01*
X20212115Y68008480D01*
X20605941Y68271625D01*
X20869086Y68665451D01*
X20961491Y69130000D01*
X20869086Y69594549D01*
X20605941Y69988375D01*
X20212115Y70251520D01*
X19864828Y70320600D01*
X19630304Y70320600D01*
X19283017Y70251520D01*
X18889191Y69988375D01*
X18626046Y69594549D01*
X18533641Y69130000D01*
X18421491Y69130000D01*
X18329086Y69594549D01*
X18065941Y69988375D01*
X17672115Y70251520D01*
X17324828Y70320600D01*
X17090304Y70320600D01*
X16743017Y70251520D01*
X16349191Y69988375D01*
X16086046Y69594549D01*
X15993641Y69130000D01*
X13402000Y69130000D01*
X13402000Y71670000D01*
X18533641Y71670000D01*
X18626046Y71205451D01*
X18889191Y70811625D01*
X19283017Y70548480D01*
X19630304Y70479400D01*
X19864828Y70479400D01*
X20212115Y70548480D01*
X20605941Y70811625D01*
X20869086Y71205451D01*
X20961491Y71670000D01*
X20869086Y72134549D01*
X20605941Y72528375D01*
X20212115Y72791520D01*
X19864828Y72860600D01*
X19630304Y72860600D01*
X19283017Y72791520D01*
X18889191Y72528375D01*
X18626046Y72134549D01*
X18533641Y71670000D01*
X13402000Y71670000D01*
X13402000Y77363413D01*
X25173000Y77363413D01*
X25173000Y76636587D01*
X25451144Y75965088D01*
X25965088Y75451144D01*
X26636587Y75173000D01*
X27363413Y75173000D01*
X27805209Y75355998D01*
X31148000Y75355998D01*
X31148000Y74334001D01*
X31213389Y74005267D01*
X31462479Y73632478D01*
X31835268Y73383389D01*
X32275000Y73295921D01*
X32714733Y73383389D01*
X33087522Y73632478D01*
X33336611Y74005267D01*
X33402000Y74334002D01*
X33402000Y75355998D01*
X33688000Y75355998D01*
X33688000Y74334001D01*
X33753389Y74005267D01*
X34002479Y73632478D01*
X34375268Y73383389D01*
X34815000Y73295921D01*
X35254733Y73383389D01*
X35627522Y73632478D01*
X35876611Y74005267D01*
X35942000Y74334002D01*
X35942000Y75355998D01*
X36228000Y75355998D01*
X36228000Y74334001D01*
X36293389Y74005267D01*
X36542479Y73632478D01*
X36915268Y73383389D01*
X37355000Y73295921D01*
X37794733Y73383389D01*
X38167522Y73632478D01*
X38416611Y74005267D01*
X38482000Y74334002D01*
X38482000Y75355998D01*
X38768000Y75355998D01*
X38768000Y74334001D01*
X38833389Y74005267D01*
X39082479Y73632478D01*
X39455268Y73383389D01*
X39895000Y73295921D01*
X40334733Y73383389D01*
X40707522Y73632478D01*
X40956611Y74005267D01*
X41022000Y74334002D01*
X41022000Y75355998D01*
X41308000Y75355998D01*
X41308000Y74334001D01*
X41373389Y74005267D01*
X41622479Y73632478D01*
X41995268Y73383389D01*
X42435000Y73295921D01*
X42874733Y73383389D01*
X43247522Y73632478D01*
X43496611Y74005267D01*
X43562000Y74334002D01*
X43562000Y75355998D01*
X43848000Y75355998D01*
X43848000Y74334001D01*
X43913389Y74005267D01*
X44162479Y73632478D01*
X44535268Y73383389D01*
X44975000Y73295921D01*
X45414733Y73383389D01*
X45787522Y73632478D01*
X46036611Y74005267D01*
X46102000Y74334002D01*
X46102000Y75355998D01*
X46388000Y75355998D01*
X46388000Y74334001D01*
X46453389Y74005267D01*
X46702479Y73632478D01*
X47075268Y73383389D01*
X47515000Y73295921D01*
X47954733Y73383389D01*
X48327522Y73632478D01*
X48576611Y74005267D01*
X48642000Y74334002D01*
X48642000Y75355998D01*
X48928000Y75355998D01*
X48928000Y74334001D01*
X48993389Y74005267D01*
X49242479Y73632478D01*
X49615268Y73383389D01*
X50055000Y73295921D01*
X50494733Y73383389D01*
X50867522Y73632478D01*
X51116611Y74005267D01*
X51182000Y74334002D01*
X51182000Y75355998D01*
X51468000Y75355998D01*
X51468000Y74334001D01*
X51533389Y74005267D01*
X51782479Y73632478D01*
X52155268Y73383389D01*
X52595000Y73295921D01*
X53034733Y73383389D01*
X53407522Y73632478D01*
X53656611Y74005267D01*
X53722000Y74334002D01*
X53722000Y75355998D01*
X54008000Y75355998D01*
X54008000Y74334001D01*
X54073389Y74005267D01*
X54322479Y73632478D01*
X54695268Y73383389D01*
X55135000Y73295921D01*
X55574733Y73383389D01*
X55947522Y73632478D01*
X56196611Y74005267D01*
X56262000Y74334002D01*
X56262000Y75355998D01*
X56548000Y75355998D01*
X56548000Y74334001D01*
X56613389Y74005267D01*
X56862479Y73632478D01*
X57235268Y73383389D01*
X57675000Y73295921D01*
X58114733Y73383389D01*
X58487522Y73632478D01*
X58736611Y74005267D01*
X58802000Y74334002D01*
X58802000Y75355998D01*
X59088000Y75355998D01*
X59088000Y74334001D01*
X59153389Y74005267D01*
X59402479Y73632478D01*
X59775268Y73383389D01*
X60215000Y73295921D01*
X60654733Y73383389D01*
X61027522Y73632478D01*
X61276611Y74005267D01*
X61342000Y74334002D01*
X61342000Y75355998D01*
X61628000Y75355998D01*
X61628000Y74334001D01*
X61693389Y74005267D01*
X61942479Y73632478D01*
X62315268Y73383389D01*
X62755000Y73295921D01*
X63194733Y73383389D01*
X63567522Y73632478D01*
X63816611Y74005267D01*
X63882000Y74334002D01*
X63882000Y75355998D01*
X64168000Y75355998D01*
X64168000Y74334001D01*
X64233389Y74005267D01*
X64482479Y73632478D01*
X64855268Y73383389D01*
X65295000Y73295921D01*
X65734733Y73383389D01*
X66107522Y73632478D01*
X66356611Y74005267D01*
X66422000Y74334002D01*
X66422000Y75355998D01*
X66708000Y75355998D01*
X66708000Y74334001D01*
X66773389Y74005267D01*
X67022479Y73632478D01*
X67395268Y73383389D01*
X67835000Y73295921D01*
X68274733Y73383389D01*
X68647522Y73632478D01*
X68896611Y74005267D01*
X68962000Y74334002D01*
X68962000Y75355999D01*
X68896611Y75684733D01*
X68647522Y76057522D01*
X68274732Y76306611D01*
X67835000Y76394079D01*
X67395267Y76306611D01*
X67022478Y76057522D01*
X66773389Y75684732D01*
X66708000Y75355998D01*
X66422000Y75355998D01*
X66422000Y75355999D01*
X66356611Y75684733D01*
X66107522Y76057522D01*
X65734732Y76306611D01*
X65295000Y76394079D01*
X64855267Y76306611D01*
X64482478Y76057522D01*
X64233389Y75684732D01*
X64168000Y75355998D01*
X63882000Y75355998D01*
X63882000Y75355999D01*
X63816611Y75684733D01*
X63567522Y76057522D01*
X63194732Y76306611D01*
X62755000Y76394079D01*
X62315267Y76306611D01*
X61942478Y76057522D01*
X61693389Y75684732D01*
X61628000Y75355998D01*
X61342000Y75355998D01*
X61342000Y75355999D01*
X61276611Y75684733D01*
X61027522Y76057522D01*
X60654732Y76306611D01*
X60215000Y76394079D01*
X59775267Y76306611D01*
X59402478Y76057522D01*
X59153389Y75684732D01*
X59088000Y75355998D01*
X58802000Y75355998D01*
X58802000Y75355999D01*
X58736611Y75684733D01*
X58487522Y76057522D01*
X58114732Y76306611D01*
X57675000Y76394079D01*
X57235267Y76306611D01*
X56862478Y76057522D01*
X56613389Y75684732D01*
X56548000Y75355998D01*
X56262000Y75355998D01*
X56262000Y75355999D01*
X56196611Y75684733D01*
X55947522Y76057522D01*
X55574732Y76306611D01*
X55135000Y76394079D01*
X54695267Y76306611D01*
X54322478Y76057522D01*
X54073389Y75684732D01*
X54008000Y75355998D01*
X53722000Y75355998D01*
X53722000Y75355999D01*
X53656611Y75684733D01*
X53407522Y76057522D01*
X53034732Y76306611D01*
X52595000Y76394079D01*
X52155267Y76306611D01*
X51782478Y76057522D01*
X51533389Y75684732D01*
X51468000Y75355998D01*
X51182000Y75355998D01*
X51182000Y75355999D01*
X51116611Y75684733D01*
X50867522Y76057522D01*
X50494732Y76306611D01*
X50055000Y76394079D01*
X49615267Y76306611D01*
X49242478Y76057522D01*
X48993389Y75684732D01*
X48928000Y75355998D01*
X48642000Y75355998D01*
X48642000Y75355999D01*
X48576611Y75684733D01*
X48327522Y76057522D01*
X47954732Y76306611D01*
X47515000Y76394079D01*
X47075267Y76306611D01*
X46702478Y76057522D01*
X46453389Y75684732D01*
X46388000Y75355998D01*
X46102000Y75355998D01*
X46102000Y75355999D01*
X46036611Y75684733D01*
X45787522Y76057522D01*
X45414732Y76306611D01*
X44975000Y76394079D01*
X44535267Y76306611D01*
X44162478Y76057522D01*
X43913389Y75684732D01*
X43848000Y75355998D01*
X43562000Y75355998D01*
X43562000Y75355999D01*
X43496611Y75684733D01*
X43247522Y76057522D01*
X42874732Y76306611D01*
X42435000Y76394079D01*
X41995267Y76306611D01*
X41622478Y76057522D01*
X41373389Y75684732D01*
X41308000Y75355998D01*
X41022000Y75355998D01*
X41022000Y75355999D01*
X40956611Y75684733D01*
X40707522Y76057522D01*
X40334732Y76306611D01*
X39895000Y76394079D01*
X39455267Y76306611D01*
X39082478Y76057522D01*
X38833389Y75684732D01*
X38768000Y75355998D01*
X38482000Y75355998D01*
X38482000Y75355999D01*
X38416611Y75684733D01*
X38167522Y76057522D01*
X37794732Y76306611D01*
X37355000Y76394079D01*
X36915267Y76306611D01*
X36542478Y76057522D01*
X36293389Y75684732D01*
X36228000Y75355998D01*
X35942000Y75355998D01*
X35942000Y75355999D01*
X35876611Y75684733D01*
X35627522Y76057522D01*
X35254732Y76306611D01*
X34815000Y76394079D01*
X34375267Y76306611D01*
X34002478Y76057522D01*
X33753389Y75684732D01*
X33688000Y75355998D01*
X33402000Y75355998D01*
X33402000Y75355999D01*
X33336611Y75684733D01*
X33087522Y76057522D01*
X32714732Y76306611D01*
X32275000Y76394079D01*
X31835267Y76306611D01*
X31462478Y76057522D01*
X31213389Y75684732D01*
X31148000Y75355998D01*
X27805209Y75355998D01*
X28034912Y75451144D01*
X28548856Y75965088D01*
X28827000Y76636587D01*
X28827000Y77363413D01*
X28548856Y78034912D01*
X28034912Y78548856D01*
X27363413Y78827000D01*
X26636587Y78827000D01*
X25965088Y78548856D01*
X25451144Y78034912D01*
X25173000Y77363413D01*
X13402000Y77363413D01*
X13402000Y77649740D01*
X23724033Y77649740D01*
X23742047Y77632621D01*
X23819075Y77586811D01*
X23904338Y77559204D01*
X23993598Y77551174D01*
X24082420Y77563118D01*
X24166388Y77594443D01*
X24241329Y77643594D01*
X24303518Y77708126D01*
X24349866Y77784831D01*
X24352179Y77789946D01*
X24619963Y78393068D01*
X24987741Y78885743D01*
X25455535Y79284696D01*
X26000085Y79570094D01*
X26594334Y79727755D01*
X27208740Y79749844D01*
X27812783Y79635260D01*
X27812783Y79635260D01*
G37*
X27812783Y79635260D02*
X28376418Y79389704D01*
X28871653Y79025371D01*
X29273856Y78560383D01*
X29571020Y78002883D01*
X29611760Y77891234D01*
X29621325Y77843148D01*
X29710175Y77710175D01*
X29843148Y77621325D01*
X29960410Y77598000D01*
X78598001Y77598000D01*
X78598000Y402000D01*
X2999767Y402000D01*
X2974358Y412899D01*
X2922838Y424809D01*
X2286580Y530894D01*
X1737698Y761240D01*
X1256528Y1111678D01*
X868881Y1563413D01*
X595554Y2092204D01*
X451206Y2669695D01*
X443581Y3264902D01*
X465539Y3363413D01*
X1173000Y3363413D01*
X1173000Y2636587D01*
X1451144Y1965088D01*
X1965088Y1451144D01*
X2636587Y1173000D01*
X3363413Y1173000D01*
X4034912Y1451144D01*
X4548856Y1965088D01*
X4827000Y2636587D01*
X4827000Y3363413D01*
X4548856Y4034912D01*
X4034912Y4548856D01*
X3363413Y4827000D01*
X2636587Y4827000D01*
X1965088Y4548856D01*
X1451144Y4034912D01*
X1173000Y3363413D01*
X465539Y3363413D01*
X573088Y3845902D01*
X832782Y4381527D01*
X1208725Y4843037D01*
X1680764Y5205690D01*
X2223563Y5450021D01*
X2824664Y5566143D01*
X3015960Y5573298D01*
X3113695Y5588415D01*
X3138658Y5598547D01*
X3164919Y5598375D01*
X3204723Y5602084D01*
X3243961Y5609728D01*
X3282246Y5621232D01*
X3303826Y5629613D01*
X3861151Y5864739D01*
X3863120Y5865688D01*
X3865167Y5866459D01*
X3886124Y5876296D01*
X5320145Y6600573D01*
X5327465Y6604739D01*
X5335012Y6608477D01*
X5354888Y6620347D01*
X5684017Y6830000D01*
X72016594Y6830000D01*
X72016594Y4430000D01*
X72041973Y4302411D01*
X72114246Y4194246D01*
X72222411Y4121973D01*
X72350000Y4096594D01*
X74750000Y4096594D01*
X74877589Y4121973D01*
X74985754Y4194246D01*
X75058027Y4302411D01*
X75083406Y4430000D01*
X75083406Y6830000D01*
X75058027Y6957589D01*
X74985754Y7065754D01*
X74877589Y7138027D01*
X74750000Y7163406D01*
X72350000Y7163406D01*
X72222411Y7138027D01*
X72114246Y7065754D01*
X72041973Y6957589D01*
X72016594Y6830000D01*
X5684017Y6830000D01*
X6709884Y7483469D01*
X6716752Y7488340D01*
X6723892Y7492810D01*
X6742468Y7506580D01*
X6742491Y7506596D01*
X6742500Y7506604D01*
X8005062Y8500027D01*
X8011406Y8505550D01*
X8018074Y8510713D01*
X8035211Y8526278D01*
X9192873Y9640196D01*
X9198647Y9646333D01*
X9204758Y9652122D01*
X9220265Y9669312D01*
X9283614Y9743739D01*
X72023000Y9743739D01*
X72023000Y9136261D01*
X72255472Y8575024D01*
X72685024Y8145472D01*
X73246261Y7913000D01*
X73853739Y7913000D01*
X74414976Y8145472D01*
X74844528Y8575024D01*
X75077000Y9136261D01*
X75077000Y9743739D01*
X74844528Y10304976D01*
X74414976Y10734528D01*
X73853739Y10967000D01*
X73246261Y10967000D01*
X72685024Y10734528D01*
X72255472Y10304976D01*
X72023000Y9743739D01*
X9283614Y9743739D01*
X10261568Y10892701D01*
X10266701Y10899377D01*
X10272210Y10905748D01*
X10285933Y10924393D01*
X11200581Y12245154D01*
X11205024Y12252305D01*
X11209875Y12259194D01*
X11221678Y12279110D01*
X11928309Y13553739D01*
X72023000Y13553739D01*
X72023000Y12946261D01*
X72255472Y12385024D01*
X72685024Y11955472D01*
X73246261Y11723000D01*
X73853739Y11723000D01*
X74414976Y11955472D01*
X74844528Y12385024D01*
X75077000Y12946261D01*
X75077000Y13553739D01*
X74844528Y14114976D01*
X74414976Y14544528D01*
X73853739Y14777000D01*
X73246261Y14777000D01*
X72685024Y14544528D01*
X72255472Y14114976D01*
X72023000Y13553739D01*
X11928309Y13553739D01*
X12000626Y13684184D01*
X12004343Y13691753D01*
X12008479Y13699078D01*
X12018247Y13720067D01*
X12653791Y15195559D01*
X12656732Y15203444D01*
X12660127Y15211159D01*
X12667761Y15233015D01*
X13153618Y16764333D01*
X13155765Y16772487D01*
X13158372Y16780485D01*
X13163798Y16802991D01*
X13281998Y17363739D01*
X72023000Y17363739D01*
X72023000Y16756261D01*
X72255472Y16195024D01*
X72685024Y15765472D01*
X73246261Y15533000D01*
X73853739Y15533000D01*
X74414976Y15765472D01*
X74844528Y16195024D01*
X75077000Y16756261D01*
X75077000Y17363739D01*
X74844528Y17924976D01*
X74414976Y18354528D01*
X73853739Y18587000D01*
X73246261Y18587000D01*
X72685024Y18354528D01*
X72255472Y17924976D01*
X72023000Y17363739D01*
X13281998Y17363739D01*
X13495162Y18374993D01*
X13501452Y18414472D01*
X13503790Y18454379D01*
X13502154Y18494321D01*
X13496558Y18533903D01*
X13487058Y18572735D01*
X13473749Y18610431D01*
X13456761Y18646617D01*
X13436264Y18680938D01*
X13412460Y18713054D01*
X13402000Y18724571D01*
X13402000Y21541842D01*
X13494830Y21317730D01*
X14149426Y20663134D01*
X15004697Y20308870D01*
X15930435Y20308870D01*
X16785706Y20663134D01*
X17440302Y21317730D01*
X17794566Y22173001D01*
X17794566Y23098739D01*
X17440302Y23954010D01*
X16785706Y24608606D01*
X15930435Y24962870D01*
X15004697Y24962870D01*
X14149426Y24608606D01*
X13494830Y23954010D01*
X13402000Y23729898D01*
X13402000Y30425000D01*
X18576594Y30425000D01*
X18576594Y27825000D01*
X18601973Y27697411D01*
X18674246Y27589246D01*
X18782411Y27516973D01*
X18910000Y27491594D01*
X21510000Y27491594D01*
X21637589Y27516973D01*
X21745754Y27589246D01*
X21818027Y27697411D01*
X21843406Y27825000D01*
X21843406Y30425000D01*
X21818027Y30552589D01*
X21745754Y30660754D01*
X21637589Y30733027D01*
X21510000Y30758406D01*
X18910000Y30758406D01*
X18782411Y30733027D01*
X18674246Y30660754D01*
X18601973Y30552589D01*
X18576594Y30425000D01*
X13402000Y30425000D01*
X13402000Y44688630D01*
X18583000Y44688630D01*
X18583000Y44041370D01*
X18830696Y43443378D01*
X19288378Y42985696D01*
X19886370Y42738000D01*
X20533630Y42738000D01*
X21131622Y42985696D01*
X21589304Y43443378D01*
X21708026Y43730000D01*
X27088759Y43730000D01*
X27103001Y43658400D01*
X27103000Y28821597D01*
X27088759Y28750002D01*
X27103000Y28678407D01*
X27103000Y28678404D01*
X27145182Y28466342D01*
X27305863Y28225866D01*
X27366562Y28185308D01*
X27395305Y28156565D01*
X27435864Y28095864D01*
X27676340Y27935183D01*
X27888402Y27893001D01*
X27888407Y27893001D01*
X27960000Y27878760D01*
X28031594Y27893001D01*
X33894183Y27893001D01*
X33859576Y27858394D01*
X33688000Y27444174D01*
X33688000Y26995826D01*
X33859576Y26581606D01*
X34088000Y26353182D01*
X34088000Y26021595D01*
X34073759Y25950000D01*
X34088000Y25878405D01*
X34088000Y25878402D01*
X34130182Y25666340D01*
X34290863Y25425864D01*
X34351562Y25385306D01*
X36520316Y23216552D01*
X36560873Y23155853D01*
X36801349Y22995172D01*
X37013411Y22952990D01*
X37013415Y22952990D01*
X37085010Y22938749D01*
X37156605Y22952990D01*
X48713401Y22952990D01*
X48785000Y22938748D01*
X48856599Y22952990D01*
X59778395Y22952990D01*
X59849990Y22938749D01*
X59921585Y22952990D01*
X59921589Y22952990D01*
X60133651Y22995172D01*
X60288649Y23098739D01*
X63140566Y23098739D01*
X63140566Y22173001D01*
X63494830Y21317730D01*
X64149426Y20663134D01*
X65004697Y20308870D01*
X65930435Y20308870D01*
X66785706Y20663134D01*
X67440302Y21317730D01*
X67794566Y22173001D01*
X67794566Y23098739D01*
X67440302Y23954010D01*
X66785706Y24608606D01*
X65930435Y24962870D01*
X65004697Y24962870D01*
X64149426Y24608606D01*
X63494830Y23954010D01*
X63140566Y23098739D01*
X60288649Y23098739D01*
X60374127Y23155853D01*
X60414686Y23216554D01*
X60851004Y23652871D01*
X60911703Y23693429D01*
X61072384Y23933905D01*
X61114566Y24145967D01*
X61114566Y24145971D01*
X61128807Y24217565D01*
X61114566Y24289159D01*
X61114566Y24983739D01*
X72023000Y24983739D01*
X72023000Y24376261D01*
X72255472Y23815024D01*
X72685024Y23385472D01*
X73246261Y23153000D01*
X73853739Y23153000D01*
X74414976Y23385472D01*
X74844528Y23815024D01*
X75077000Y24376261D01*
X75077000Y24983739D01*
X74844528Y25544976D01*
X74414976Y25974528D01*
X73853739Y26207000D01*
X73246261Y26207000D01*
X72685024Y25974528D01*
X72255472Y25544976D01*
X72023000Y24983739D01*
X61114566Y24983739D01*
X61114566Y26094799D01*
X61139251Y26105024D01*
X61512542Y26478315D01*
X61714566Y26966043D01*
X61714566Y27483957D01*
X64140566Y27483957D01*
X64140566Y26956043D01*
X64342590Y26468315D01*
X64715881Y26095024D01*
X65203609Y25893000D01*
X65731523Y25893000D01*
X66219251Y26095024D01*
X66592542Y26468315D01*
X66794566Y26956043D01*
X66794566Y27483957D01*
X66592542Y27971685D01*
X66219251Y28344976D01*
X65731523Y28547000D01*
X65203609Y28547000D01*
X64715881Y28344976D01*
X64342590Y27971685D01*
X64140566Y27483957D01*
X61714566Y27483957D01*
X61714566Y27493957D01*
X61512542Y27981685D01*
X61139251Y28354976D01*
X60651523Y28557000D01*
X60123609Y28557000D01*
X59635881Y28354976D01*
X59262590Y27981685D01*
X59060566Y27493957D01*
X59060566Y26966043D01*
X59262590Y26478315D01*
X59635881Y26105024D01*
X59660566Y26094799D01*
X59660567Y24518699D01*
X59548858Y24406990D01*
X56456937Y24406990D01*
X56497000Y24608401D01*
X56511242Y24680000D01*
X56497000Y24751599D01*
X56497000Y27553868D01*
X57341133Y28398000D01*
X58078318Y28398000D01*
X58149913Y28383759D01*
X58221508Y28398000D01*
X58221512Y28398000D01*
X58433574Y28440182D01*
X58674050Y28600863D01*
X58714609Y28661564D01*
X60991046Y30938000D01*
X64660334Y30938000D01*
X64717478Y30852478D01*
X65090267Y30603389D01*
X65419001Y30538000D01*
X66440999Y30538000D01*
X66769733Y30603389D01*
X67142522Y30852478D01*
X67391611Y31225267D01*
X67479079Y31665000D01*
X67391611Y32104733D01*
X67142522Y32477522D01*
X66769733Y32726611D01*
X66440999Y32792000D01*
X65419001Y32792000D01*
X65090267Y32726611D01*
X64717478Y32477522D01*
X64660334Y32392000D01*
X60761506Y32392000D01*
X60689912Y32406241D01*
X60618318Y32392000D01*
X60618314Y32392000D01*
X60406252Y32349818D01*
X60165776Y32189137D01*
X60125219Y32128439D01*
X57848781Y29852000D01*
X57111593Y29852000D01*
X57039999Y29866241D01*
X56968405Y29852000D01*
X56968401Y29852000D01*
X56756339Y29809818D01*
X56515863Y29649137D01*
X56475305Y29588438D01*
X55306562Y28419694D01*
X55245863Y28379136D01*
X55085182Y28138660D01*
X55043000Y27926598D01*
X55043000Y27926595D01*
X55028759Y27855000D01*
X55043000Y27783405D01*
X55043001Y25407000D01*
X53056220Y25407000D01*
X53005220Y25458000D01*
X53740999Y25458000D01*
X54069733Y25523389D01*
X54442522Y25772478D01*
X54691611Y26145267D01*
X54779079Y26585000D01*
X54691611Y27024733D01*
X54442522Y27397522D01*
X54069733Y27646611D01*
X53740999Y27712000D01*
X52719001Y27712000D01*
X52390267Y27646611D01*
X52052000Y27420589D01*
X52052000Y28289411D01*
X52390267Y28063389D01*
X52719001Y27998000D01*
X53740999Y27998000D01*
X54069733Y28063389D01*
X54442522Y28312478D01*
X54691611Y28685267D01*
X54779079Y29125000D01*
X54691611Y29564733D01*
X54442522Y29937522D01*
X54069733Y30186611D01*
X53740999Y30252000D01*
X52719001Y30252000D01*
X52390267Y30186611D01*
X52052000Y29960589D01*
X52052000Y30829411D01*
X52390267Y30603389D01*
X52719001Y30538000D01*
X53740999Y30538000D01*
X54069733Y30603389D01*
X54442522Y30852478D01*
X54499666Y30938000D01*
X55698401Y30938000D01*
X55770000Y30923758D01*
X56053661Y30980182D01*
X56294137Y31140863D01*
X56454818Y31381339D01*
X56497000Y31593401D01*
X56511242Y31665000D01*
X56497000Y31736599D01*
X56497000Y41825000D01*
X56760921Y41825000D01*
X56848389Y41385267D01*
X57097478Y41012478D01*
X57470267Y40763389D01*
X57799001Y40698000D01*
X58820999Y40698000D01*
X59149733Y40763389D01*
X59522522Y41012478D01*
X59771611Y41385267D01*
X59859079Y41825000D01*
X59771611Y42264733D01*
X59522522Y42637522D01*
X59149733Y42886611D01*
X58820999Y42952000D01*
X57799001Y42952000D01*
X57470267Y42886611D01*
X57097478Y42637522D01*
X56848389Y42264733D01*
X56760921Y41825000D01*
X56497000Y41825000D01*
X56497000Y44463868D01*
X56869580Y44836448D01*
X56848389Y44804733D01*
X56760921Y44365000D01*
X56848389Y43925267D01*
X57097478Y43552478D01*
X57470267Y43303389D01*
X57799001Y43238000D01*
X58820999Y43238000D01*
X59149733Y43303389D01*
X59522522Y43552478D01*
X59579666Y43638000D01*
X59913867Y43638000D01*
X60123000Y43428867D01*
X60123001Y40126133D01*
X60008868Y40012000D01*
X59579666Y40012000D01*
X59522522Y40097522D01*
X59149733Y40346611D01*
X58820999Y40412000D01*
X57799001Y40412000D01*
X57470267Y40346611D01*
X57097478Y40097522D01*
X56848389Y39724733D01*
X56760921Y39285000D01*
X56848389Y38845267D01*
X57097478Y38472478D01*
X57470267Y38223389D01*
X57799001Y38158000D01*
X58820999Y38158000D01*
X59149733Y38223389D01*
X59522522Y38472478D01*
X59579666Y38558000D01*
X60238405Y38558000D01*
X60310000Y38543759D01*
X60381595Y38558000D01*
X60381599Y38558000D01*
X60593661Y38600182D01*
X60834137Y38760863D01*
X60874696Y38821564D01*
X61313438Y39260305D01*
X61374137Y39300863D01*
X61534818Y39541339D01*
X61577000Y39753401D01*
X61577000Y39753405D01*
X61591241Y39824999D01*
X61577000Y39896593D01*
X61577000Y43658405D01*
X61591241Y43730000D01*
X61577000Y43801595D01*
X61577000Y43801599D01*
X61534818Y44013661D01*
X61528071Y44023759D01*
X61414695Y44193439D01*
X61414690Y44193444D01*
X61374136Y44254137D01*
X61313443Y44294691D01*
X60779696Y44828436D01*
X60739137Y44889137D01*
X60498661Y45049818D01*
X60286599Y45092000D01*
X60286595Y45092000D01*
X60215000Y45106241D01*
X60143405Y45092000D01*
X59579666Y45092000D01*
X59522522Y45177522D01*
X59149733Y45426611D01*
X58820999Y45492000D01*
X57799001Y45492000D01*
X57470267Y45426611D01*
X57438553Y45405420D01*
X57804727Y45771594D01*
X59510000Y45771594D01*
X59637589Y45796973D01*
X59745754Y45869246D01*
X59818027Y45977411D01*
X59843406Y46105000D01*
X59843406Y47423462D01*
X63365305Y43901562D01*
X63405863Y43840863D01*
X63646339Y43680182D01*
X63788726Y43651859D01*
X62291562Y42154694D01*
X62230864Y42114137D01*
X62190307Y42053439D01*
X62190306Y42053438D01*
X62070182Y41873660D01*
X62013759Y41590000D01*
X62028001Y41518400D01*
X62028000Y38551133D01*
X59750420Y36273552D01*
X59771611Y36305267D01*
X59859079Y36745000D01*
X59771611Y37184733D01*
X59522522Y37557522D01*
X59149733Y37806611D01*
X58820999Y37872000D01*
X57799001Y37872000D01*
X57470267Y37806611D01*
X57097478Y37557522D01*
X56848389Y37184733D01*
X56760921Y36745000D01*
X56848389Y36305267D01*
X57097478Y35932478D01*
X57470267Y35683389D01*
X57799001Y35618000D01*
X58820999Y35618000D01*
X59149733Y35683389D01*
X59181448Y35704580D01*
X58808868Y35332000D01*
X57799001Y35332000D01*
X57470267Y35266611D01*
X57097478Y35017522D01*
X56848389Y34644733D01*
X56760921Y34205000D01*
X56848389Y33765267D01*
X57097478Y33392478D01*
X57470267Y33143389D01*
X57799001Y33078000D01*
X58820999Y33078000D01*
X59149733Y33143389D01*
X59522522Y33392478D01*
X59771611Y33765267D01*
X59859079Y34205000D01*
X64380921Y34205000D01*
X64468389Y33765267D01*
X64717478Y33392478D01*
X65090267Y33143389D01*
X65419001Y33078000D01*
X66440999Y33078000D01*
X66769733Y33143389D01*
X67142522Y33392478D01*
X67391611Y33765267D01*
X67479079Y34205000D01*
X67391611Y34644733D01*
X67142522Y35017522D01*
X66769733Y35266611D01*
X66440999Y35332000D01*
X65419001Y35332000D01*
X65090267Y35266611D01*
X64717478Y35017522D01*
X64468389Y34644733D01*
X64380921Y34205000D01*
X59859079Y34205000D01*
X59839013Y34305881D01*
X63218441Y37685308D01*
X63279136Y37725863D01*
X63319692Y37786559D01*
X63319694Y37786561D01*
X63374239Y37868193D01*
X63405864Y37820863D01*
X63466562Y37780306D01*
X64400987Y36845880D01*
X64380921Y36745000D01*
X64468389Y36305267D01*
X64717478Y35932478D01*
X65090267Y35683389D01*
X65419001Y35618000D01*
X66440999Y35618000D01*
X66769733Y35683389D01*
X67142522Y35932478D01*
X67391611Y36305267D01*
X67413187Y36413739D01*
X72023000Y36413739D01*
X72023000Y35806261D01*
X72255472Y35245024D01*
X72685024Y34815472D01*
X73246261Y34583000D01*
X73853739Y34583000D01*
X74414976Y34815472D01*
X74844528Y35245024D01*
X75077000Y35806261D01*
X75077000Y36413739D01*
X74844528Y36974976D01*
X74414976Y37404528D01*
X73853739Y37637000D01*
X73246261Y37637000D01*
X72685024Y37404528D01*
X72255472Y36974976D01*
X72023000Y36413739D01*
X67413187Y36413739D01*
X67479079Y36745000D01*
X67391611Y37184733D01*
X67142522Y37557522D01*
X66769733Y37806611D01*
X66440999Y37872000D01*
X65431133Y37872000D01*
X65058552Y38244580D01*
X65090267Y38223389D01*
X65419001Y38158000D01*
X66440999Y38158000D01*
X66769733Y38223389D01*
X67142522Y38472478D01*
X67391611Y38845267D01*
X67479079Y39285000D01*
X67391611Y39724733D01*
X67142522Y40097522D01*
X66953625Y40223739D01*
X72023000Y40223739D01*
X72023000Y39616261D01*
X72255472Y39055024D01*
X72685024Y38625472D01*
X73246261Y38393000D01*
X73853739Y38393000D01*
X74414976Y38625472D01*
X74844528Y39055024D01*
X75077000Y39616261D01*
X75077000Y40223739D01*
X74844528Y40784976D01*
X74414976Y41214528D01*
X73853739Y41447000D01*
X73246261Y41447000D01*
X72685024Y41214528D01*
X72255472Y40784976D01*
X72023000Y40223739D01*
X66953625Y40223739D01*
X66769733Y40346611D01*
X66440999Y40412000D01*
X65419001Y40412000D01*
X65090267Y40346611D01*
X65058552Y40325420D01*
X65431133Y40698000D01*
X66440999Y40698000D01*
X66769733Y40763389D01*
X67142522Y41012478D01*
X67391611Y41385267D01*
X67479079Y41825000D01*
X67391611Y42264733D01*
X67142522Y42637522D01*
X66769733Y42886611D01*
X66440999Y42952000D01*
X65419001Y42952000D01*
X65090267Y42886611D01*
X65058555Y42865422D01*
X65431134Y43238000D01*
X66440999Y43238000D01*
X66769733Y43303389D01*
X67142522Y43552478D01*
X67391611Y43925267D01*
X67479079Y44365000D01*
X67391611Y44804733D01*
X67142522Y45177522D01*
X66769733Y45426611D01*
X66440999Y45492000D01*
X65419001Y45492000D01*
X65090267Y45426611D01*
X64717478Y45177522D01*
X64660334Y45092000D01*
X64231133Y45092000D01*
X62418133Y46905000D01*
X64380921Y46905000D01*
X64468389Y46465267D01*
X64717478Y46092478D01*
X65090267Y45843389D01*
X65419001Y45778000D01*
X66440999Y45778000D01*
X66769733Y45843389D01*
X67142522Y46092478D01*
X67391611Y46465267D01*
X67479079Y46905000D01*
X67434489Y47129174D01*
X68613000Y47129174D01*
X68613000Y46680826D01*
X68784576Y46266606D01*
X69101606Y45949576D01*
X69515826Y45778000D01*
X69964174Y45778000D01*
X70378394Y45949576D01*
X70695424Y46266606D01*
X70867000Y46680826D01*
X70867000Y47129174D01*
X70695424Y47543394D01*
X70378394Y47860424D01*
X69964174Y48032000D01*
X69515826Y48032000D01*
X69101606Y47860424D01*
X68784576Y47543394D01*
X68613000Y47129174D01*
X67434489Y47129174D01*
X67391611Y47344733D01*
X67142522Y47717522D01*
X66769733Y47966611D01*
X66440999Y48032000D01*
X65419001Y48032000D01*
X65090267Y47966611D01*
X64717478Y47717522D01*
X64468389Y47344733D01*
X64380921Y46905000D01*
X62418133Y46905000D01*
X59414696Y49908436D01*
X59374137Y49969137D01*
X59133661Y50129818D01*
X58921599Y50172000D01*
X58921595Y50172000D01*
X58850000Y50186241D01*
X58778405Y50172000D01*
X55036133Y50172000D01*
X54663551Y50544581D01*
X54695268Y50523389D01*
X55135000Y50435921D01*
X55574733Y50523389D01*
X55947522Y50772478D01*
X56196611Y51145267D01*
X56262000Y51474002D01*
X56262000Y52483868D01*
X56634581Y52856448D01*
X56613389Y52824732D01*
X56548000Y52495998D01*
X56548000Y51474001D01*
X56613389Y51145267D01*
X56862479Y50772478D01*
X57235268Y50523389D01*
X57675000Y50435921D01*
X58114733Y50523389D01*
X58487522Y50772478D01*
X58736611Y51145267D01*
X58802000Y51474002D01*
X58802000Y52495998D01*
X59088000Y52495998D01*
X59088000Y51474001D01*
X59153389Y51145267D01*
X59402479Y50772478D01*
X59775268Y50523389D01*
X60215000Y50435921D01*
X60654733Y50523389D01*
X61027522Y50772478D01*
X61276611Y51145267D01*
X61342000Y51474002D01*
X61342000Y52495998D01*
X61628000Y52495998D01*
X61628000Y51474001D01*
X61693389Y51145267D01*
X61942479Y50772478D01*
X62315268Y50523389D01*
X62755000Y50435921D01*
X63194733Y50523389D01*
X63567522Y50772478D01*
X63816611Y51145267D01*
X63882000Y51474002D01*
X63882000Y52495998D01*
X64168000Y52495998D01*
X64168000Y51474001D01*
X64233389Y51145267D01*
X64482479Y50772478D01*
X64855268Y50523389D01*
X65295000Y50435921D01*
X65734733Y50523389D01*
X66107522Y50772478D01*
X66356611Y51145267D01*
X66422000Y51474002D01*
X66422000Y52495998D01*
X66708000Y52495998D01*
X66708000Y51474001D01*
X66773389Y51145267D01*
X67022479Y50772478D01*
X67395268Y50523389D01*
X67835000Y50435921D01*
X68274733Y50523389D01*
X68647522Y50772478D01*
X68896611Y51145267D01*
X68962000Y51474002D01*
X68962000Y52495999D01*
X68896611Y52824733D01*
X68647522Y53197522D01*
X68274732Y53446611D01*
X67835000Y53534079D01*
X67395267Y53446611D01*
X67022478Y53197522D01*
X66773389Y52824732D01*
X66708000Y52495998D01*
X66422000Y52495998D01*
X66422000Y52495999D01*
X66356611Y52824733D01*
X66107522Y53197522D01*
X65734732Y53446611D01*
X65295000Y53534079D01*
X64855267Y53446611D01*
X64482478Y53197522D01*
X64233389Y52824732D01*
X64168000Y52495998D01*
X63882000Y52495998D01*
X63882000Y52495999D01*
X63816611Y52824733D01*
X63567522Y53197522D01*
X63194732Y53446611D01*
X62755000Y53534079D01*
X62315267Y53446611D01*
X61942478Y53197522D01*
X61693389Y52824732D01*
X61628000Y52495998D01*
X61342000Y52495998D01*
X61342000Y52495999D01*
X61276611Y52824733D01*
X61027522Y53197522D01*
X60654732Y53446611D01*
X60215000Y53534079D01*
X59775267Y53446611D01*
X59402478Y53197522D01*
X59153389Y52824732D01*
X59088000Y52495998D01*
X58802000Y52495998D01*
X58802000Y52495999D01*
X58736611Y52824733D01*
X58487522Y53197522D01*
X58114732Y53446611D01*
X57675000Y53534079D01*
X57235267Y53446611D01*
X57203555Y53425422D01*
X58211134Y54433000D01*
X69278781Y54433000D01*
X75413002Y48298778D01*
X75413001Y32527133D01*
X75077000Y32191132D01*
X75077000Y32603739D01*
X74844528Y33164976D01*
X74414976Y33594528D01*
X73853739Y33827000D01*
X73246261Y33827000D01*
X72685024Y33594528D01*
X72255472Y33164976D01*
X72023000Y32603739D01*
X72023000Y31996261D01*
X72255472Y31435024D01*
X72685024Y31005472D01*
X73246261Y30773000D01*
X73658869Y30773000D01*
X73086562Y30200692D01*
X73025864Y30160135D01*
X72985307Y30099437D01*
X72985306Y30099436D01*
X72865182Y29919658D01*
X72852066Y29853719D01*
X72685024Y29784528D01*
X72255472Y29354976D01*
X72023000Y28793739D01*
X72023000Y28186261D01*
X72255472Y27625024D01*
X72685024Y27195472D01*
X73246261Y26963000D01*
X73853739Y26963000D01*
X74414976Y27195472D01*
X74844528Y27625024D01*
X75077000Y28186261D01*
X75077000Y28793739D01*
X74844528Y29354976D01*
X74570819Y29628685D01*
X76603444Y31661308D01*
X76664137Y31701862D01*
X76704691Y31762555D01*
X76704696Y31762560D01*
X76824819Y31942338D01*
X76835545Y31996261D01*
X76867001Y32154400D01*
X76867001Y32154404D01*
X76881242Y32225999D01*
X76867001Y32297594D01*
X76867001Y48528319D01*
X76881242Y48599913D01*
X76867001Y48671507D01*
X76867001Y48671511D01*
X76824819Y48883573D01*
X76664138Y49124049D01*
X76603440Y49164606D01*
X70144609Y55623436D01*
X70104050Y55684137D01*
X69863574Y55844818D01*
X69651512Y55887000D01*
X69651508Y55887000D01*
X69579913Y55901241D01*
X69508318Y55887000D01*
X57981595Y55887000D01*
X57910000Y55901241D01*
X57838405Y55887000D01*
X57838401Y55887000D01*
X57626339Y55844818D01*
X57446561Y55724695D01*
X57446558Y55724692D01*
X57385863Y55684137D01*
X57345307Y55623441D01*
X55235880Y53514013D01*
X55135000Y53534079D01*
X54695267Y53446611D01*
X54322478Y53197522D01*
X54073389Y52824732D01*
X54008000Y52495998D01*
X54008000Y51474001D01*
X54073389Y51145267D01*
X54094580Y51113552D01*
X53722000Y51486132D01*
X53722000Y52495999D01*
X53656611Y52824733D01*
X53407522Y53197522D01*
X53034732Y53446611D01*
X52595000Y53534079D01*
X52155267Y53446611D01*
X51782478Y53197522D01*
X51533389Y52824732D01*
X51468000Y52495998D01*
X51468000Y51474001D01*
X51533389Y51145267D01*
X51782479Y50772478D01*
X52155268Y50523389D01*
X52595000Y50435921D01*
X52695880Y50455987D01*
X54170306Y48981562D01*
X54210863Y48920863D01*
X54451339Y48760182D01*
X54663401Y48718000D01*
X54663404Y48718000D01*
X54734999Y48703759D01*
X54806594Y48718000D01*
X58548868Y48718000D01*
X59228462Y48038406D01*
X57110000Y48038406D01*
X56982411Y48013027D01*
X56874246Y47940754D01*
X56801973Y47832589D01*
X56776594Y47705000D01*
X56776594Y46799727D01*
X55306562Y45329694D01*
X55245863Y45289136D01*
X55085182Y45048660D01*
X55043000Y44836598D01*
X55043000Y44836595D01*
X55028759Y44765000D01*
X55043000Y44693405D01*
X55043001Y32392000D01*
X54499666Y32392000D01*
X54442522Y32477522D01*
X54069733Y32726611D01*
X53740999Y32792000D01*
X52719001Y32792000D01*
X52390267Y32726611D01*
X52052000Y32500589D01*
X52052000Y33369411D01*
X52390267Y33143389D01*
X52719001Y33078000D01*
X53740999Y33078000D01*
X54069733Y33143389D01*
X54442522Y33392478D01*
X54691611Y33765267D01*
X54779079Y34205000D01*
X54691611Y34644733D01*
X54442522Y35017522D01*
X54069733Y35266611D01*
X53740999Y35332000D01*
X52719001Y35332000D01*
X52390267Y35266611D01*
X52017478Y35017522D01*
X51960334Y34932000D01*
X51396599Y34932000D01*
X51325000Y34946242D01*
X51253401Y34932000D01*
X51041339Y34889818D01*
X50800863Y34729137D01*
X50640182Y34488661D01*
X50583758Y34205000D01*
X50598001Y34133396D01*
X50598000Y26181682D01*
X50583759Y26110087D01*
X50598000Y26038492D01*
X50598000Y26038489D01*
X50640182Y25826427D01*
X50800863Y25585951D01*
X50861562Y25545393D01*
X51999964Y24406990D01*
X49512000Y24406990D01*
X49512000Y29688405D01*
X49526241Y29760000D01*
X49512000Y29831595D01*
X49512000Y36745000D01*
X51680921Y36745000D01*
X51768389Y36305267D01*
X52017478Y35932478D01*
X52390267Y35683389D01*
X52719001Y35618000D01*
X53740999Y35618000D01*
X54069733Y35683389D01*
X54442522Y35932478D01*
X54691611Y36305267D01*
X54779079Y36745000D01*
X54691611Y37184733D01*
X54442522Y37557522D01*
X54069733Y37806611D01*
X53740999Y37872000D01*
X52719001Y37872000D01*
X52390267Y37806611D01*
X52017478Y37557522D01*
X51768389Y37184733D01*
X51680921Y36745000D01*
X49512000Y36745000D01*
X49512000Y37808868D01*
X50261133Y38558000D01*
X51960334Y38558000D01*
X52017478Y38472478D01*
X52390267Y38223389D01*
X52719001Y38158000D01*
X53740999Y38158000D01*
X54069733Y38223389D01*
X54442522Y38472478D01*
X54691611Y38845267D01*
X54779079Y39285000D01*
X54691611Y39724733D01*
X54442522Y40097522D01*
X54069733Y40346611D01*
X53740999Y40412000D01*
X52719001Y40412000D01*
X52390267Y40346611D01*
X52017478Y40097522D01*
X51960334Y40012000D01*
X50031595Y40012000D01*
X49960000Y40026241D01*
X49888405Y40012000D01*
X49888401Y40012000D01*
X49676339Y39969818D01*
X49435863Y39809137D01*
X49395305Y39748438D01*
X48785000Y39138133D01*
X48174696Y39748436D01*
X48134137Y39809137D01*
X47893661Y39969818D01*
X47681599Y40012000D01*
X47681595Y40012000D01*
X47610000Y40026241D01*
X47538405Y40012000D01*
X46879666Y40012000D01*
X46822522Y40097522D01*
X46449733Y40346611D01*
X46120999Y40412000D01*
X45099001Y40412000D01*
X44770267Y40346611D01*
X44397478Y40097522D01*
X44148389Y39724733D01*
X44060921Y39285000D01*
X44148389Y38845267D01*
X44397478Y38472478D01*
X44770267Y38223389D01*
X45099001Y38158000D01*
X46120999Y38158000D01*
X46449733Y38223389D01*
X46822522Y38472478D01*
X46879666Y38558000D01*
X47308868Y38558000D01*
X48058000Y37808867D01*
X48058001Y30061134D01*
X47848867Y29852000D01*
X46879666Y29852000D01*
X46822522Y29937522D01*
X46449733Y30186611D01*
X46120999Y30252000D01*
X45099001Y30252000D01*
X44770267Y30186611D01*
X44397478Y29937522D01*
X44148389Y29564733D01*
X44060921Y29125000D01*
X44148389Y28685267D01*
X44397478Y28312478D01*
X44770267Y28063389D01*
X45099001Y27998000D01*
X46120999Y27998000D01*
X46449733Y28063389D01*
X46822522Y28312478D01*
X46879666Y28398000D01*
X48058000Y28398000D01*
X48058001Y24406990D01*
X37386143Y24406990D01*
X35542000Y26251132D01*
X35542000Y26353182D01*
X35770424Y26581606D01*
X35942000Y26995826D01*
X35942000Y27444174D01*
X35770424Y27858394D01*
X35735817Y27893001D01*
X40201911Y27893001D01*
X40333341Y27805182D01*
X40545403Y27763000D01*
X40545408Y27763000D01*
X40617001Y27748759D01*
X40688595Y27763000D01*
X42363401Y27763000D01*
X42435000Y27748758D01*
X42718661Y27805182D01*
X42959137Y27965863D01*
X43119818Y28206339D01*
X43162000Y28418401D01*
X43162000Y28418402D01*
X43176242Y28490000D01*
X43162000Y28561599D01*
X43162000Y31665000D01*
X44060921Y31665000D01*
X44148389Y31225267D01*
X44397478Y30852478D01*
X44770267Y30603389D01*
X45099001Y30538000D01*
X46120999Y30538000D01*
X46449733Y30603389D01*
X46822522Y30852478D01*
X47071611Y31225267D01*
X47159079Y31665000D01*
X47071611Y32104733D01*
X46822522Y32477522D01*
X46449733Y32726611D01*
X46120999Y32792000D01*
X45099001Y32792000D01*
X44770267Y32726611D01*
X44397478Y32477522D01*
X44148389Y32104733D01*
X44060921Y31665000D01*
X43162000Y31665000D01*
X43162000Y33108781D01*
X44093655Y34040435D01*
X44148389Y33765267D01*
X44397478Y33392478D01*
X44770267Y33143389D01*
X45099001Y33078000D01*
X46120999Y33078000D01*
X46449733Y33143389D01*
X46822522Y33392478D01*
X47071611Y33765267D01*
X47159079Y34205000D01*
X47071611Y34644733D01*
X46822522Y35017522D01*
X46449733Y35266611D01*
X46120999Y35332000D01*
X45385220Y35332000D01*
X45671220Y35618000D01*
X46120999Y35618000D01*
X46449733Y35683389D01*
X46822522Y35932478D01*
X47071611Y36305267D01*
X47159079Y36745000D01*
X47071611Y37184733D01*
X46822522Y37557522D01*
X46449733Y37806611D01*
X46120999Y37872000D01*
X45099001Y37872000D01*
X44770267Y37806611D01*
X44397478Y37557522D01*
X44148389Y37184733D01*
X44060921Y36745000D01*
X44148389Y36305267D01*
X44210005Y36213051D01*
X41971562Y33974607D01*
X41910863Y33934049D01*
X41750182Y33693573D01*
X41708000Y33481511D01*
X41708000Y33481508D01*
X41693759Y33409913D01*
X41708000Y33338318D01*
X41708001Y29217000D01*
X40902092Y29217000D01*
X40770662Y29304819D01*
X40680882Y29322677D01*
X40734733Y29333389D01*
X41107522Y29582478D01*
X41356611Y29955267D01*
X41444079Y30395000D01*
X41356611Y30834733D01*
X41107522Y31207522D01*
X40734733Y31456611D01*
X40405999Y31522000D01*
X39384001Y31522000D01*
X39055267Y31456611D01*
X38682478Y31207522D01*
X38433389Y30834733D01*
X38345921Y30395000D01*
X38433389Y29955267D01*
X38682478Y29582478D01*
X39034895Y29347001D01*
X28557000Y29347001D01*
X28557000Y40015000D01*
X28993759Y40015000D01*
X29008000Y39943405D01*
X29008001Y36181600D01*
X28993759Y36110000D01*
X29050182Y35826340D01*
X29170306Y35646562D01*
X29210864Y35585863D01*
X29271562Y35545306D01*
X29805307Y35011559D01*
X29845863Y34950863D01*
X29906558Y34910308D01*
X29906561Y34910305D01*
X30048490Y34815472D01*
X30086339Y34790182D01*
X30298401Y34748000D01*
X30298405Y34748000D01*
X30370000Y34733759D01*
X30441595Y34748000D01*
X31005334Y34748000D01*
X31062478Y34662478D01*
X31435267Y34413389D01*
X31764001Y34348000D01*
X32785999Y34348000D01*
X33114733Y34413389D01*
X33146448Y34434580D01*
X32773868Y34062000D01*
X31764001Y34062000D01*
X31435267Y33996611D01*
X31062478Y33747522D01*
X30813389Y33374733D01*
X30725921Y32935000D01*
X30813389Y32495267D01*
X31062478Y32122478D01*
X31435267Y31873389D01*
X31764001Y31808000D01*
X32785999Y31808000D01*
X33114733Y31873389D01*
X33487522Y32122478D01*
X33736611Y32495267D01*
X33824079Y32935000D01*
X38345921Y32935000D01*
X38433389Y32495267D01*
X38682478Y32122478D01*
X39055267Y31873389D01*
X39384001Y31808000D01*
X40405999Y31808000D01*
X40734733Y31873389D01*
X41107522Y32122478D01*
X41356611Y32495267D01*
X41444079Y32935000D01*
X41356611Y33374733D01*
X41107522Y33747522D01*
X40734733Y33996611D01*
X40405999Y34062000D01*
X39384001Y34062000D01*
X39055267Y33996611D01*
X38682478Y33747522D01*
X38433389Y33374733D01*
X38345921Y32935000D01*
X33824079Y32935000D01*
X33804013Y33035881D01*
X36243132Y35475000D01*
X38345921Y35475000D01*
X38433389Y35035267D01*
X38682478Y34662478D01*
X39055267Y34413389D01*
X39384001Y34348000D01*
X40405999Y34348000D01*
X40734733Y34413389D01*
X41107522Y34662478D01*
X41356611Y35035267D01*
X41444079Y35475000D01*
X41356611Y35914733D01*
X41107522Y36287522D01*
X40734733Y36536611D01*
X40405999Y36602000D01*
X39384001Y36602000D01*
X39055267Y36536611D01*
X38682478Y36287522D01*
X38433389Y35914733D01*
X38345921Y35475000D01*
X36243132Y35475000D01*
X36548441Y35780308D01*
X36609136Y35820863D01*
X36649692Y35881559D01*
X36649694Y35881561D01*
X36769045Y36060182D01*
X36769818Y36061339D01*
X36812000Y36273401D01*
X36812000Y36273405D01*
X36826241Y36344999D01*
X36812000Y36416593D01*
X36812000Y38015000D01*
X38345921Y38015000D01*
X38433389Y37575267D01*
X38682478Y37202478D01*
X39055267Y36953389D01*
X39384001Y36888000D01*
X40405999Y36888000D01*
X40734733Y36953389D01*
X41107522Y37202478D01*
X41356611Y37575267D01*
X41444079Y38015000D01*
X41356611Y38454733D01*
X41107522Y38827522D01*
X40734733Y39076611D01*
X40405999Y39142000D01*
X39384001Y39142000D01*
X39055267Y39076611D01*
X38682478Y38827522D01*
X38433389Y38454733D01*
X38345921Y38015000D01*
X36812000Y38015000D01*
X36812000Y39383868D01*
X38454580Y41026447D01*
X38433389Y40994733D01*
X38345921Y40555000D01*
X38433389Y40115267D01*
X38682478Y39742478D01*
X39055267Y39493389D01*
X39384001Y39428000D01*
X40405999Y39428000D01*
X40734733Y39493389D01*
X41107522Y39742478D01*
X41356611Y40115267D01*
X41444079Y40555000D01*
X41356611Y40994733D01*
X41107522Y41367522D01*
X40734733Y41616611D01*
X40405999Y41682000D01*
X39384001Y41682000D01*
X39055267Y41616611D01*
X39023553Y41595421D01*
X39396133Y41968000D01*
X40405999Y41968000D01*
X40734733Y42033389D01*
X41107522Y42282478D01*
X41336387Y42625000D01*
X44076594Y42625000D01*
X44076594Y41025000D01*
X44101973Y40897411D01*
X44174246Y40789246D01*
X44282411Y40716973D01*
X44410000Y40691594D01*
X46810000Y40691594D01*
X46937589Y40716973D01*
X47045754Y40789246D01*
X47118027Y40897411D01*
X47143406Y41025000D01*
X47143406Y41825000D01*
X51680921Y41825000D01*
X51768389Y41385267D01*
X52017478Y41012478D01*
X52390267Y40763389D01*
X52719001Y40698000D01*
X53740999Y40698000D01*
X54069733Y40763389D01*
X54442522Y41012478D01*
X54691611Y41385267D01*
X54779079Y41825000D01*
X54691611Y42264733D01*
X54442522Y42637522D01*
X54069733Y42886611D01*
X53740999Y42952000D01*
X52719001Y42952000D01*
X52390267Y42886611D01*
X52017478Y42637522D01*
X51768389Y42264733D01*
X51680921Y41825000D01*
X47143406Y41825000D01*
X47143406Y42625000D01*
X47118027Y42752589D01*
X47045754Y42860754D01*
X46937589Y42933027D01*
X46810000Y42958406D01*
X44410000Y42958406D01*
X44282411Y42933027D01*
X44174246Y42860754D01*
X44101973Y42752589D01*
X44076594Y42625000D01*
X41336387Y42625000D01*
X41356611Y42655267D01*
X41444079Y43095000D01*
X41356611Y43534733D01*
X41107522Y43907522D01*
X40734733Y44156611D01*
X40405999Y44222000D01*
X39384001Y44222000D01*
X39055267Y44156611D01*
X38682478Y43907522D01*
X38433389Y43534733D01*
X38345921Y43095000D01*
X38365987Y42994120D01*
X35621562Y40249694D01*
X35560864Y40209137D01*
X35520307Y40148439D01*
X35520306Y40148438D01*
X35400182Y39968660D01*
X35343759Y39685000D01*
X35358001Y39613400D01*
X35358000Y36646133D01*
X33715420Y35003553D01*
X33736611Y35035267D01*
X33824079Y35475000D01*
X33736611Y35914733D01*
X33487522Y36287522D01*
X33114733Y36536611D01*
X32785999Y36602000D01*
X31764001Y36602000D01*
X31435267Y36536611D01*
X31062478Y36287522D01*
X31005334Y36202000D01*
X30671133Y36202000D01*
X30462000Y36411133D01*
X30462000Y38015000D01*
X30725921Y38015000D01*
X30813389Y37575267D01*
X31062478Y37202478D01*
X31435267Y36953389D01*
X31764001Y36888000D01*
X32785999Y36888000D01*
X33114733Y36953389D01*
X33487522Y37202478D01*
X33736611Y37575267D01*
X33824079Y38015000D01*
X33736611Y38454733D01*
X33487522Y38827522D01*
X33114733Y39076611D01*
X32785999Y39142000D01*
X31764001Y39142000D01*
X31435267Y39076611D01*
X31062478Y38827522D01*
X30813389Y38454733D01*
X30725921Y38015000D01*
X30462000Y38015000D01*
X30462000Y39713868D01*
X30576133Y39828000D01*
X31005334Y39828000D01*
X31062478Y39742478D01*
X31435267Y39493389D01*
X31764001Y39428000D01*
X32785999Y39428000D01*
X33114733Y39493389D01*
X33487522Y39742478D01*
X33736611Y40115267D01*
X33824079Y40555000D01*
X33736611Y40994733D01*
X33487522Y41367522D01*
X33114733Y41616611D01*
X32785999Y41682000D01*
X31764001Y41682000D01*
X31435267Y41616611D01*
X31062478Y41367522D01*
X31005334Y41282000D01*
X30346593Y41282000D01*
X30274999Y41296241D01*
X30203405Y41282000D01*
X30203401Y41282000D01*
X29991339Y41239818D01*
X29750863Y41079137D01*
X29710305Y41018438D01*
X29271562Y40579694D01*
X29210863Y40539136D01*
X29050182Y40298660D01*
X29008000Y40086598D01*
X29008000Y40086595D01*
X28993759Y40015000D01*
X28557000Y40015000D01*
X28557000Y43095000D01*
X30725921Y43095000D01*
X30813389Y42655267D01*
X31062478Y42282478D01*
X31435267Y42033389D01*
X31764001Y41968000D01*
X32785999Y41968000D01*
X33114733Y42033389D01*
X33487522Y42282478D01*
X33736611Y42655267D01*
X33824079Y43095000D01*
X33736611Y43534733D01*
X33487522Y43907522D01*
X33114733Y44156611D01*
X32785999Y44222000D01*
X31764001Y44222000D01*
X31435267Y44156611D01*
X31062478Y43907522D01*
X30813389Y43534733D01*
X30725921Y43095000D01*
X28557000Y43095000D01*
X28557000Y43428868D01*
X30036133Y44908000D01*
X30741594Y44908000D01*
X30741594Y44835000D01*
X30766973Y44707411D01*
X30839246Y44599246D01*
X30947411Y44526973D01*
X31075000Y44501594D01*
X33475000Y44501594D01*
X33602589Y44526973D01*
X33710754Y44599246D01*
X33783027Y44707411D01*
X33808406Y44835000D01*
X33808406Y46435000D01*
X33783027Y46562589D01*
X33710754Y46670754D01*
X33602589Y46743027D01*
X33475000Y46768406D01*
X31075000Y46768406D01*
X30947411Y46743027D01*
X30839246Y46670754D01*
X30766973Y46562589D01*
X30741594Y46435000D01*
X30741594Y46362000D01*
X29806595Y46362000D01*
X29735000Y46376241D01*
X29663405Y46362000D01*
X29663401Y46362000D01*
X29451339Y46319818D01*
X29210863Y46159137D01*
X29170306Y46098439D01*
X27366562Y44294694D01*
X27305864Y44254137D01*
X27265307Y44193439D01*
X27265306Y44193438D01*
X27145182Y44013660D01*
X27088759Y43730000D01*
X21708026Y43730000D01*
X21837000Y44041370D01*
X21837000Y44688630D01*
X21589304Y45286622D01*
X21131622Y45744304D01*
X20533630Y45992000D01*
X19886370Y45992000D01*
X19288378Y45744304D01*
X18830696Y45286622D01*
X18583000Y44688630D01*
X13402000Y44688630D01*
X13402000Y47310044D01*
X26875566Y47310044D01*
X26875566Y46861696D01*
X27047142Y46447476D01*
X27364172Y46130446D01*
X27778392Y45958870D01*
X28226740Y45958870D01*
X28640960Y46130446D01*
X28957990Y46447476D01*
X29129566Y46861696D01*
X29129566Y47184738D01*
X30027829Y48083000D01*
X36018868Y48083000D01*
X38365987Y45735880D01*
X38345921Y45635000D01*
X38433389Y45195267D01*
X38682478Y44822478D01*
X39055267Y44573389D01*
X39384001Y44508000D01*
X40405999Y44508000D01*
X40734733Y44573389D01*
X41107522Y44822478D01*
X41356611Y45195267D01*
X41444079Y45635000D01*
X41356611Y46074733D01*
X41107522Y46447522D01*
X40734733Y46696611D01*
X40405999Y46762000D01*
X39396133Y46762000D01*
X38222263Y47935870D01*
X45234160Y47935870D01*
X45234160Y46235870D01*
X45259539Y46108281D01*
X45331812Y46000116D01*
X45439977Y45927843D01*
X45567566Y45902464D01*
X47267566Y45902464D01*
X47395155Y45927843D01*
X47503320Y46000116D01*
X47575593Y46108281D01*
X47600972Y46235870D01*
X47600972Y47085870D01*
X47757508Y47085870D01*
X47848857Y46626628D01*
X48108997Y46237301D01*
X48498324Y45977161D01*
X48841646Y45908870D01*
X49073486Y45908870D01*
X49416808Y45977161D01*
X49806135Y46237301D01*
X50066275Y46626628D01*
X50157624Y47085870D01*
X50297508Y47085870D01*
X50388857Y46626628D01*
X50648997Y46237301D01*
X51038324Y45977161D01*
X51381646Y45908870D01*
X51613486Y45908870D01*
X51956808Y45977161D01*
X52346135Y46237301D01*
X52606275Y46626628D01*
X52697624Y47085870D01*
X52606275Y47545112D01*
X52346135Y47934439D01*
X51956808Y48194579D01*
X51613486Y48262870D01*
X51381646Y48262870D01*
X51038324Y48194579D01*
X50648997Y47934439D01*
X50388857Y47545112D01*
X50297508Y47085870D01*
X50157624Y47085870D01*
X50066275Y47545112D01*
X49806135Y47934439D01*
X49416808Y48194579D01*
X49073486Y48262870D01*
X48841646Y48262870D01*
X48498324Y48194579D01*
X48108997Y47934439D01*
X47848857Y47545112D01*
X47757508Y47085870D01*
X47600972Y47085870D01*
X47600972Y47935870D01*
X47575593Y48063459D01*
X47503320Y48171624D01*
X47395155Y48243897D01*
X47267566Y48269276D01*
X45567566Y48269276D01*
X45439977Y48243897D01*
X45331812Y48171624D01*
X45259539Y48063459D01*
X45234160Y47935870D01*
X38222263Y47935870D01*
X36884696Y49273436D01*
X36844137Y49334137D01*
X36603661Y49494818D01*
X36391599Y49537000D01*
X36391595Y49537000D01*
X36320000Y49551241D01*
X36248405Y49537000D01*
X29798290Y49537000D01*
X29726695Y49551241D01*
X29655100Y49537000D01*
X29655097Y49537000D01*
X29443035Y49494818D01*
X29202559Y49334137D01*
X29162002Y49273438D01*
X28101434Y48212870D01*
X27778392Y48212870D01*
X27364172Y48041294D01*
X27047142Y47724264D01*
X26875566Y47310044D01*
X13402000Y47310044D01*
X13402000Y52495998D01*
X33688000Y52495998D01*
X33688000Y51474001D01*
X33753389Y51145267D01*
X34002479Y50772478D01*
X34375268Y50523389D01*
X34815000Y50435921D01*
X35254733Y50523389D01*
X35627522Y50772478D01*
X35876611Y51145267D01*
X35942000Y51474002D01*
X35942000Y52495998D01*
X36228000Y52495998D01*
X36228000Y51474001D01*
X36293389Y51145267D01*
X36542479Y50772478D01*
X36915268Y50523389D01*
X37355000Y50435921D01*
X37794733Y50523389D01*
X38167522Y50772478D01*
X38416611Y51145267D01*
X38482000Y51474002D01*
X38482000Y52495998D01*
X38768000Y52495998D01*
X38768000Y51474001D01*
X38833389Y51145267D01*
X39082479Y50772478D01*
X39455268Y50523389D01*
X39895000Y50435921D01*
X40334733Y50523389D01*
X40707522Y50772478D01*
X40956611Y51145267D01*
X41022000Y51474002D01*
X41022000Y52495998D01*
X41308000Y52495998D01*
X41308000Y51474001D01*
X41373389Y51145267D01*
X41622479Y50772478D01*
X41995268Y50523389D01*
X42435000Y50435921D01*
X42874733Y50523389D01*
X43247522Y50772478D01*
X43496611Y51145267D01*
X43562000Y51474002D01*
X43562000Y52495998D01*
X43848000Y52495998D01*
X43848000Y51474001D01*
X43913389Y51145267D01*
X44162479Y50772478D01*
X44535268Y50523389D01*
X44975000Y50435921D01*
X45414733Y50523389D01*
X45787522Y50772478D01*
X46036611Y51145267D01*
X46102000Y51474002D01*
X46102000Y52495998D01*
X46388000Y52495998D01*
X46388000Y51474001D01*
X46453389Y51145267D01*
X46702479Y50772478D01*
X47075268Y50523389D01*
X47515000Y50435921D01*
X47954733Y50523389D01*
X48327522Y50772478D01*
X48576611Y51145267D01*
X48642000Y51474002D01*
X48642000Y52495998D01*
X48928000Y52495998D01*
X48928000Y51474001D01*
X48993389Y51145267D01*
X49242479Y50772478D01*
X49615268Y50523389D01*
X50055000Y50435921D01*
X50494733Y50523389D01*
X50867522Y50772478D01*
X51116611Y51145267D01*
X51182000Y51474002D01*
X51182000Y52495999D01*
X51116611Y52824733D01*
X50867522Y53197522D01*
X50494732Y53446611D01*
X50055000Y53534079D01*
X49615267Y53446611D01*
X49242478Y53197522D01*
X48993389Y52824732D01*
X48928000Y52495998D01*
X48642000Y52495998D01*
X48642000Y52495999D01*
X48576611Y52824733D01*
X48327522Y53197522D01*
X47954732Y53446611D01*
X47515000Y53534079D01*
X47075267Y53446611D01*
X46702478Y53197522D01*
X46453389Y52824732D01*
X46388000Y52495998D01*
X46102000Y52495998D01*
X46102000Y52495999D01*
X46036611Y52824733D01*
X45787522Y53197522D01*
X45414732Y53446611D01*
X44975000Y53534079D01*
X44535267Y53446611D01*
X44162478Y53197522D01*
X43913389Y52824732D01*
X43848000Y52495998D01*
X43562000Y52495998D01*
X43562000Y52495999D01*
X43496611Y52824733D01*
X43247522Y53197522D01*
X42874732Y53446611D01*
X42435000Y53534079D01*
X41995267Y53446611D01*
X41622478Y53197522D01*
X41373389Y52824732D01*
X41308000Y52495998D01*
X41022000Y52495998D01*
X41022000Y52495999D01*
X40956611Y52824733D01*
X40707522Y53197522D01*
X40334732Y53446611D01*
X39895000Y53534079D01*
X39455267Y53446611D01*
X39082478Y53197522D01*
X38833389Y52824732D01*
X38768000Y52495998D01*
X38482000Y52495998D01*
X38482000Y52495999D01*
X38416611Y52824733D01*
X38167522Y53197522D01*
X37794732Y53446611D01*
X37355000Y53534079D01*
X36915267Y53446611D01*
X36542478Y53197522D01*
X36293389Y52824732D01*
X36228000Y52495998D01*
X35942000Y52495998D01*
X35942000Y52495999D01*
X35876611Y52824733D01*
X35627522Y53197522D01*
X35254732Y53446611D01*
X34815000Y53534079D01*
X34375267Y53446611D01*
X34002478Y53197522D01*
X33753389Y52824732D01*
X33688000Y52495998D01*
X13402000Y52495998D01*
X13402000Y53890000D01*
X15993641Y53890000D01*
X16086046Y53425451D01*
X16349191Y53031625D01*
X16743017Y52768480D01*
X17090304Y52699400D01*
X17324828Y52699400D01*
X17672115Y52768480D01*
X18065941Y53031625D01*
X18329086Y53425451D01*
X18421491Y53890000D01*
X18329086Y54354549D01*
X18065941Y54748375D01*
X18058122Y54753600D01*
X18550560Y54753600D01*
X18550560Y53026400D01*
X18575939Y52898811D01*
X18648212Y52790646D01*
X18756377Y52718373D01*
X18883966Y52692994D01*
X20611166Y52692994D01*
X20738755Y52718373D01*
X20846920Y52790646D01*
X20919193Y52898811D01*
X20944572Y53026400D01*
X20944572Y54753600D01*
X20919193Y54881189D01*
X20846920Y54989354D01*
X20738755Y55061627D01*
X20611166Y55087006D01*
X18883966Y55087006D01*
X18756377Y55061627D01*
X18648212Y54989354D01*
X18575939Y54881189D01*
X18550560Y54753600D01*
X18058122Y54753600D01*
X17672115Y55011520D01*
X17324828Y55080600D01*
X17090304Y55080600D01*
X16743017Y55011520D01*
X16349191Y54748375D01*
X16086046Y54354549D01*
X15993641Y53890000D01*
X13402000Y53890000D01*
X13402000Y56430000D01*
X18533641Y56430000D01*
X18626046Y55965451D01*
X18889191Y55571625D01*
X19283017Y55308480D01*
X19630304Y55239400D01*
X19864828Y55239400D01*
X20212115Y55308480D01*
X20605941Y55571625D01*
X20869086Y55965451D01*
X20961491Y56430000D01*
X20869086Y56894549D01*
X20605941Y57288375D01*
X20212115Y57551520D01*
X19864828Y57620600D01*
X19630304Y57620600D01*
X19283017Y57551520D01*
X18889191Y57288375D01*
X18626046Y56894549D01*
X18533641Y56430000D01*
X13402000Y56430000D01*
X13402000Y58970000D01*
X15993641Y58970000D01*
X16086046Y58505451D01*
X16349191Y58111625D01*
X16743017Y57848480D01*
X17090304Y57779400D01*
X17324828Y57779400D01*
X17672115Y57848480D01*
X18065941Y58111625D01*
X18329086Y58505451D01*
X18421491Y58970000D01*
X18533641Y58970000D01*
X18626046Y58505451D01*
X18889191Y58111625D01*
X19283017Y57848480D01*
X19630304Y57779400D01*
X19864828Y57779400D01*
X20212115Y57848480D01*
X20605941Y58111625D01*
X20869086Y58505451D01*
X20961491Y58970000D01*
X20869086Y59434549D01*
X20605941Y59828375D01*
X20212115Y60091520D01*
X19864828Y60160600D01*
X19630304Y60160600D01*
X19283017Y60091520D01*
X18889191Y59828375D01*
X18626046Y59434549D01*
X18533641Y58970000D01*
X18421491Y58970000D01*
X18329086Y59434549D01*
X18065941Y59828375D01*
X17672115Y60091520D01*
X17324828Y60160600D01*
X17090304Y60160600D01*
X16743017Y60091520D01*
X16349191Y59828375D01*
X16086046Y59434549D01*
X15993641Y58970000D01*
X13402000Y58970000D01*
X13402000Y61510000D01*
X18533641Y61510000D01*
X18626046Y61045451D01*
X18889191Y60651625D01*
X19283017Y60388480D01*
X19630304Y60319400D01*
X19864828Y60319400D01*
X20212115Y60388480D01*
X20605941Y60651625D01*
X20869086Y61045451D01*
X20961491Y61510000D01*
X20869086Y61974549D01*
X20605941Y62368375D01*
X20212115Y62631520D01*
X19864828Y62700600D01*
X19630304Y62700600D01*
X19283017Y62631520D01*
X18889191Y62368375D01*
X18626046Y61974549D01*
X18533641Y61510000D01*
X13402000Y61510000D01*
X13402000Y64050000D01*
X15993641Y64050000D01*
X16086046Y63585451D01*
X16349191Y63191625D01*
X16743017Y62928480D01*
X17090304Y62859400D01*
X17324828Y62859400D01*
X17672115Y62928480D01*
X18065941Y63191625D01*
X18329086Y63585451D01*
X18421491Y64050000D01*
X18533641Y64050000D01*
X18626046Y63585451D01*
X18889191Y63191625D01*
X19283017Y62928480D01*
X19630304Y62859400D01*
X19864828Y62859400D01*
X20212115Y62928480D01*
X20605941Y63191625D01*
X20869086Y63585451D01*
X20961491Y64050000D01*
X20869086Y64514549D01*
X20605941Y64908375D01*
X20212115Y65171520D01*
X19864828Y65240600D01*
X19630304Y65240600D01*
X19283017Y65171520D01*
X18889191Y64908375D01*
X18626046Y64514549D01*
X18533641Y64050000D01*
X18421491Y64050000D01*
X18329086Y64514549D01*
X18065941Y64908375D01*
X17672115Y65171520D01*
X17324828Y65240600D01*
X17090304Y65240600D01*
X16743017Y65171520D01*
X16349191Y64908375D01*
X16086046Y64514549D01*
X15993641Y64050000D01*
X13402000Y64050000D01*
X13402000Y66590000D01*
X15993641Y66590000D01*
X16086046Y66125451D01*
X16349191Y65731625D01*
X16743017Y65468480D01*
X17090304Y65399400D01*
X17324828Y65399400D01*
X17672115Y65468480D01*
X18065941Y65731625D01*
X18329086Y66125451D01*
X18421491Y66590000D01*
X18533641Y66590000D01*
X18626046Y66125451D01*
X18889191Y65731625D01*
X19283017Y65468480D01*
X19630304Y65399400D01*
X19864828Y65399400D01*
X20212115Y65468480D01*
X20605941Y65731625D01*
X20869086Y66125451D01*
X20961491Y66590000D01*
X20869086Y67054549D01*
X20605941Y67448375D01*
X20212115Y67711520D01*
X19864828Y67780600D01*
X19630304Y67780600D01*
X19283017Y67711520D01*
X18889191Y67448375D01*
X18626046Y67054549D01*
X18533641Y66590000D01*
X18421491Y66590000D01*
X18329086Y67054549D01*
X18065941Y67448375D01*
X17672115Y67711520D01*
X17324828Y67780600D01*
X17090304Y67780600D01*
X16743017Y67711520D01*
X16349191Y67448375D01*
X16086046Y67054549D01*
X15993641Y66590000D01*
X13402000Y66590000D01*
X13402000Y69130000D01*
X15993641Y69130000D01*
X16086046Y68665451D01*
X16349191Y68271625D01*
X16743017Y68008480D01*
X17090304Y67939400D01*
X17324828Y67939400D01*
X17672115Y68008480D01*
X18065941Y68271625D01*
X18329086Y68665451D01*
X18421491Y69130000D01*
X18533641Y69130000D01*
X18626046Y68665451D01*
X18889191Y68271625D01*
X19283017Y68008480D01*
X19630304Y67939400D01*
X19864828Y67939400D01*
X20212115Y68008480D01*
X20605941Y68271625D01*
X20869086Y68665451D01*
X20961491Y69130000D01*
X20869086Y69594549D01*
X20605941Y69988375D01*
X20212115Y70251520D01*
X19864828Y70320600D01*
X19630304Y70320600D01*
X19283017Y70251520D01*
X18889191Y69988375D01*
X18626046Y69594549D01*
X18533641Y69130000D01*
X18421491Y69130000D01*
X18329086Y69594549D01*
X18065941Y69988375D01*
X17672115Y70251520D01*
X17324828Y70320600D01*
X17090304Y70320600D01*
X16743017Y70251520D01*
X16349191Y69988375D01*
X16086046Y69594549D01*
X15993641Y69130000D01*
X13402000Y69130000D01*
X13402000Y71670000D01*
X18533641Y71670000D01*
X18626046Y71205451D01*
X18889191Y70811625D01*
X19283017Y70548480D01*
X19630304Y70479400D01*
X19864828Y70479400D01*
X20212115Y70548480D01*
X20605941Y70811625D01*
X20869086Y71205451D01*
X20961491Y71670000D01*
X20869086Y72134549D01*
X20605941Y72528375D01*
X20212115Y72791520D01*
X19864828Y72860600D01*
X19630304Y72860600D01*
X19283017Y72791520D01*
X18889191Y72528375D01*
X18626046Y72134549D01*
X18533641Y71670000D01*
X13402000Y71670000D01*
X13402000Y77363413D01*
X25173000Y77363413D01*
X25173000Y76636587D01*
X25451144Y75965088D01*
X25965088Y75451144D01*
X26636587Y75173000D01*
X27363413Y75173000D01*
X27805209Y75355998D01*
X31148000Y75355998D01*
X31148000Y74334001D01*
X31213389Y74005267D01*
X31462479Y73632478D01*
X31835268Y73383389D01*
X32275000Y73295921D01*
X32714733Y73383389D01*
X33087522Y73632478D01*
X33336611Y74005267D01*
X33402000Y74334002D01*
X33402000Y75355998D01*
X33688000Y75355998D01*
X33688000Y74334001D01*
X33753389Y74005267D01*
X34002479Y73632478D01*
X34375268Y73383389D01*
X34815000Y73295921D01*
X35254733Y73383389D01*
X35627522Y73632478D01*
X35876611Y74005267D01*
X35942000Y74334002D01*
X35942000Y75355998D01*
X36228000Y75355998D01*
X36228000Y74334001D01*
X36293389Y74005267D01*
X36542479Y73632478D01*
X36915268Y73383389D01*
X37355000Y73295921D01*
X37794733Y73383389D01*
X38167522Y73632478D01*
X38416611Y74005267D01*
X38482000Y74334002D01*
X38482000Y75355998D01*
X38768000Y75355998D01*
X38768000Y74334001D01*
X38833389Y74005267D01*
X39082479Y73632478D01*
X39455268Y73383389D01*
X39895000Y73295921D01*
X40334733Y73383389D01*
X40707522Y73632478D01*
X40956611Y74005267D01*
X41022000Y74334002D01*
X41022000Y75355998D01*
X41308000Y75355998D01*
X41308000Y74334001D01*
X41373389Y74005267D01*
X41622479Y73632478D01*
X41995268Y73383389D01*
X42435000Y73295921D01*
X42874733Y73383389D01*
X43247522Y73632478D01*
X43496611Y74005267D01*
X43562000Y74334002D01*
X43562000Y75355998D01*
X43848000Y75355998D01*
X43848000Y74334001D01*
X43913389Y74005267D01*
X44162479Y73632478D01*
X44535268Y73383389D01*
X44975000Y73295921D01*
X45414733Y73383389D01*
X45787522Y73632478D01*
X46036611Y74005267D01*
X46102000Y74334002D01*
X46102000Y75355998D01*
X46388000Y75355998D01*
X46388000Y74334001D01*
X46453389Y74005267D01*
X46702479Y73632478D01*
X47075268Y73383389D01*
X47515000Y73295921D01*
X47954733Y73383389D01*
X48327522Y73632478D01*
X48576611Y74005267D01*
X48642000Y74334002D01*
X48642000Y75355998D01*
X48928000Y75355998D01*
X48928000Y74334001D01*
X48993389Y74005267D01*
X49242479Y73632478D01*
X49615268Y73383389D01*
X50055000Y73295921D01*
X50494733Y73383389D01*
X50867522Y73632478D01*
X51116611Y74005267D01*
X51182000Y74334002D01*
X51182000Y75355998D01*
X51468000Y75355998D01*
X51468000Y74334001D01*
X51533389Y74005267D01*
X51782479Y73632478D01*
X52155268Y73383389D01*
X52595000Y73295921D01*
X53034733Y73383389D01*
X53407522Y73632478D01*
X53656611Y74005267D01*
X53722000Y74334002D01*
X53722000Y75355998D01*
X54008000Y75355998D01*
X54008000Y74334001D01*
X54073389Y74005267D01*
X54322479Y73632478D01*
X54695268Y73383389D01*
X55135000Y73295921D01*
X55574733Y73383389D01*
X55947522Y73632478D01*
X56196611Y74005267D01*
X56262000Y74334002D01*
X56262000Y75355998D01*
X56548000Y75355998D01*
X56548000Y74334001D01*
X56613389Y74005267D01*
X56862479Y73632478D01*
X57235268Y73383389D01*
X57675000Y73295921D01*
X58114733Y73383389D01*
X58487522Y73632478D01*
X58736611Y74005267D01*
X58802000Y74334002D01*
X58802000Y75355998D01*
X59088000Y75355998D01*
X59088000Y74334001D01*
X59153389Y74005267D01*
X59402479Y73632478D01*
X59775268Y73383389D01*
X60215000Y73295921D01*
X60654733Y73383389D01*
X61027522Y73632478D01*
X61276611Y74005267D01*
X61342000Y74334002D01*
X61342000Y75355998D01*
X61628000Y75355998D01*
X61628000Y74334001D01*
X61693389Y74005267D01*
X61942479Y73632478D01*
X62315268Y73383389D01*
X62755000Y73295921D01*
X63194733Y73383389D01*
X63567522Y73632478D01*
X63816611Y74005267D01*
X63882000Y74334002D01*
X63882000Y75355998D01*
X64168000Y75355998D01*
X64168000Y74334001D01*
X64233389Y74005267D01*
X64482479Y73632478D01*
X64855268Y73383389D01*
X65295000Y73295921D01*
X65734733Y73383389D01*
X66107522Y73632478D01*
X66356611Y74005267D01*
X66422000Y74334002D01*
X66422000Y75355998D01*
X66708000Y75355998D01*
X66708000Y74334001D01*
X66773389Y74005267D01*
X67022479Y73632478D01*
X67395268Y73383389D01*
X67835000Y73295921D01*
X68274733Y73383389D01*
X68647522Y73632478D01*
X68896611Y74005267D01*
X68962000Y74334002D01*
X68962000Y75355999D01*
X68896611Y75684733D01*
X68647522Y76057522D01*
X68274732Y76306611D01*
X67835000Y76394079D01*
X67395267Y76306611D01*
X67022478Y76057522D01*
X66773389Y75684732D01*
X66708000Y75355998D01*
X66422000Y75355998D01*
X66422000Y75355999D01*
X66356611Y75684733D01*
X66107522Y76057522D01*
X65734732Y76306611D01*
X65295000Y76394079D01*
X64855267Y76306611D01*
X64482478Y76057522D01*
X64233389Y75684732D01*
X64168000Y75355998D01*
X63882000Y75355998D01*
X63882000Y75355999D01*
X63816611Y75684733D01*
X63567522Y76057522D01*
X63194732Y76306611D01*
X62755000Y76394079D01*
X62315267Y76306611D01*
X61942478Y76057522D01*
X61693389Y75684732D01*
X61628000Y75355998D01*
X61342000Y75355998D01*
X61342000Y75355999D01*
X61276611Y75684733D01*
X61027522Y76057522D01*
X60654732Y76306611D01*
X60215000Y76394079D01*
X59775267Y76306611D01*
X59402478Y76057522D01*
X59153389Y75684732D01*
X59088000Y75355998D01*
X58802000Y75355998D01*
X58802000Y75355999D01*
X58736611Y75684733D01*
X58487522Y76057522D01*
X58114732Y76306611D01*
X57675000Y76394079D01*
X57235267Y76306611D01*
X56862478Y76057522D01*
X56613389Y75684732D01*
X56548000Y75355998D01*
X56262000Y75355998D01*
X56262000Y75355999D01*
X56196611Y75684733D01*
X55947522Y76057522D01*
X55574732Y76306611D01*
X55135000Y76394079D01*
X54695267Y76306611D01*
X54322478Y76057522D01*
X54073389Y75684732D01*
X54008000Y75355998D01*
X53722000Y75355998D01*
X53722000Y75355999D01*
X53656611Y75684733D01*
X53407522Y76057522D01*
X53034732Y76306611D01*
X52595000Y76394079D01*
X52155267Y76306611D01*
X51782478Y76057522D01*
X51533389Y75684732D01*
X51468000Y75355998D01*
X51182000Y75355998D01*
X51182000Y75355999D01*
X51116611Y75684733D01*
X50867522Y76057522D01*
X50494732Y76306611D01*
X50055000Y76394079D01*
X49615267Y76306611D01*
X49242478Y76057522D01*
X48993389Y75684732D01*
X48928000Y75355998D01*
X48642000Y75355998D01*
X48642000Y75355999D01*
X48576611Y75684733D01*
X48327522Y76057522D01*
X47954732Y76306611D01*
X47515000Y76394079D01*
X47075267Y76306611D01*
X46702478Y76057522D01*
X46453389Y75684732D01*
X46388000Y75355998D01*
X46102000Y75355998D01*
X46102000Y75355999D01*
X46036611Y75684733D01*
X45787522Y76057522D01*
X45414732Y76306611D01*
X44975000Y76394079D01*
X44535267Y76306611D01*
X44162478Y76057522D01*
X43913389Y75684732D01*
X43848000Y75355998D01*
X43562000Y75355998D01*
X43562000Y75355999D01*
X43496611Y75684733D01*
X43247522Y76057522D01*
X42874732Y76306611D01*
X42435000Y76394079D01*
X41995267Y76306611D01*
X41622478Y76057522D01*
X41373389Y75684732D01*
X41308000Y75355998D01*
X41022000Y75355998D01*
X41022000Y75355999D01*
X40956611Y75684733D01*
X40707522Y76057522D01*
X40334732Y76306611D01*
X39895000Y76394079D01*
X39455267Y76306611D01*
X39082478Y76057522D01*
X38833389Y75684732D01*
X38768000Y75355998D01*
X38482000Y75355998D01*
X38482000Y75355999D01*
X38416611Y75684733D01*
X38167522Y76057522D01*
X37794732Y76306611D01*
X37355000Y76394079D01*
X36915267Y76306611D01*
X36542478Y76057522D01*
X36293389Y75684732D01*
X36228000Y75355998D01*
X35942000Y75355998D01*
X35942000Y75355999D01*
X35876611Y75684733D01*
X35627522Y76057522D01*
X35254732Y76306611D01*
X34815000Y76394079D01*
X34375267Y76306611D01*
X34002478Y76057522D01*
X33753389Y75684732D01*
X33688000Y75355998D01*
X33402000Y75355998D01*
X33402000Y75355999D01*
X33336611Y75684733D01*
X33087522Y76057522D01*
X32714732Y76306611D01*
X32275000Y76394079D01*
X31835267Y76306611D01*
X31462478Y76057522D01*
X31213389Y75684732D01*
X31148000Y75355998D01*
X27805209Y75355998D01*
X28034912Y75451144D01*
X28548856Y75965088D01*
X28827000Y76636587D01*
X28827000Y77363413D01*
X28548856Y78034912D01*
X28034912Y78548856D01*
X27363413Y78827000D01*
X26636587Y78827000D01*
X25965088Y78548856D01*
X25451144Y78034912D01*
X25173000Y77363413D01*
X13402000Y77363413D01*
X13402000Y77649740D01*
X23724033Y77649740D01*
X23742047Y77632621D01*
X23819075Y77586811D01*
X23904338Y77559204D01*
X23993598Y77551174D01*
X24082420Y77563118D01*
X24166388Y77594443D01*
X24241329Y77643594D01*
X24303518Y77708126D01*
X24349866Y77784831D01*
X24352179Y77789946D01*
X24619963Y78393068D01*
X24987741Y78885743D01*
X25455535Y79284696D01*
X26000085Y79570094D01*
X26594334Y79727755D01*
X27208740Y79749844D01*
X27812783Y79635260D01*
G04 #@! TD*
M02*
