G04 #@! TF.GenerationSoftware,KiCad,Pcbnew,(5.0.1)-4*
G04 #@! TF.CreationDate,2021-02-12T09:32:39+01:00*
G04 #@! TF.ProjectId,R_partiteur,52E97061727469746575722E6B696361,rev?*
G04 #@! TF.SameCoordinates,PX8e18f40PY848f8c0*
G04 #@! TF.FileFunction,Copper,L2,Bot,Signal*
G04 #@! TF.FilePolarity,Positive*
%FSLAX46Y46*%
G04 Gerber Fmt 4.6, Leading zero omitted, Abs format (unit mm)*
G04 Created by KiCad (PCBNEW (5.0.1)-4) date 12/02/2021 09:32:39*
%MOMM*%
%LPD*%
G01*
G04 APERTURE LIST*
G04 #@! TA.AperFunction,ComponentPad*
%ADD10O,1.700000X1.700000*%
G04 #@! TD*
G04 #@! TA.AperFunction,ComponentPad*
%ADD11R,1.700000X1.700000*%
G04 #@! TD*
G04 #@! TA.AperFunction,ComponentPad*
%ADD12R,2.500000X2.500000*%
G04 #@! TD*
G04 #@! TA.AperFunction,ComponentPad*
%ADD13C,2.500000*%
G04 #@! TD*
G04 #@! TA.AperFunction,ComponentPad*
%ADD14R,2.400000X2.400000*%
G04 #@! TD*
G04 #@! TA.AperFunction,ComponentPad*
%ADD15C,2.400000*%
G04 #@! TD*
G04 #@! TA.AperFunction,ComponentPad*
%ADD16C,2.000000*%
G04 #@! TD*
G04 #@! TA.AperFunction,ComponentPad*
%ADD17C,3.000000*%
G04 #@! TD*
G04 #@! TA.AperFunction,ComponentPad*
%ADD18C,1.600000*%
G04 #@! TD*
G04 #@! TA.AperFunction,ComponentPad*
%ADD19O,1.600000X1.600000*%
G04 #@! TD*
G04 #@! TA.AperFunction,ViaPad*
%ADD20C,3.000000*%
G04 #@! TD*
G04 #@! TA.AperFunction,ViaPad*
%ADD21C,4.000000*%
G04 #@! TD*
G04 #@! TA.AperFunction,Conductor*
%ADD22C,3.000000*%
G04 #@! TD*
G04 #@! TA.AperFunction,Conductor*
%ADD23C,1.000000*%
G04 #@! TD*
G04 #@! TA.AperFunction,Conductor*
%ADD24C,2.000000*%
G04 #@! TD*
G04 #@! TA.AperFunction,Conductor*
%ADD25C,0.254000*%
G04 #@! TD*
G04 APERTURE END LIST*
D10*
G04 #@! TO.P,J8,3*
G04 #@! TO.N,GND*
X57920000Y12000000D03*
G04 #@! TO.P,J8,2*
G04 #@! TO.N,Net-(J8-Pad2)*
X60460000Y12000000D03*
D11*
G04 #@! TO.P,J8,1*
G04 #@! TO.N,+12V*
X63000000Y12000000D03*
G04 #@! TD*
D12*
G04 #@! TO.P,J1,1*
G04 #@! TO.N,Net-(F1-Pad2)*
X18760000Y58990000D03*
D13*
G04 #@! TO.P,J1,2*
G04 #@! TO.N,GND*
X23840000Y58990000D03*
G04 #@! TO.P,J1,3*
X28920000Y58990000D03*
G04 #@! TO.P,J1,4*
G04 #@! TO.N,+12V*
X34000000Y58990000D03*
G04 #@! TD*
D14*
G04 #@! TO.P,J2,1*
G04 #@! TO.N,Net-(J2-Pad1)*
X37690000Y5650000D03*
D15*
G04 #@! TO.P,J2,2*
G04 #@! TO.N,Net-(J2-Pad2)*
X33880000Y5650000D03*
G04 #@! TO.P,J2,3*
G04 #@! TO.N,Net-(J2-Pad3)*
X30070000Y5650000D03*
G04 #@! TO.P,J2,4*
G04 #@! TO.N,Net-(J2-Pad4)*
X26260000Y5650000D03*
G04 #@! TO.P,J2,5*
G04 #@! TO.N,+5V*
X22450000Y5650000D03*
G04 #@! TO.P,J2,6*
G04 #@! TO.N,GND*
X18640000Y5650000D03*
G04 #@! TO.P,J2,7*
G04 #@! TO.N,Net-(J2-Pad7)*
X14830000Y5650000D03*
G04 #@! TO.P,J2,8*
G04 #@! TO.N,Net-(J2-Pad8)*
X11020000Y5650000D03*
G04 #@! TO.P,J2,9*
G04 #@! TO.N,Net-(J2-Pad9)*
X7210000Y5650000D03*
G04 #@! TO.P,J2,10*
G04 #@! TO.N,Net-(J2-Pad10)*
X3400000Y5650000D03*
G04 #@! TD*
D11*
G04 #@! TO.P,J3,1*
G04 #@! TO.N,+5V*
X11020000Y17080000D03*
D10*
G04 #@! TO.P,J3,2*
G04 #@! TO.N,Net-(J2-Pad7)*
X11020000Y19620000D03*
G04 #@! TO.P,J3,3*
G04 #@! TO.N,GND*
X11020000Y22160000D03*
G04 #@! TD*
G04 #@! TO.P,J4,3*
G04 #@! TO.N,GND*
X11020000Y33590000D03*
G04 #@! TO.P,J4,2*
G04 #@! TO.N,Net-(J2-Pad8)*
X11020000Y31050000D03*
D11*
G04 #@! TO.P,J4,1*
G04 #@! TO.N,+5V*
X11020000Y28510000D03*
G04 #@! TD*
G04 #@! TO.P,J5,1*
G04 #@! TO.N,+5V*
X11020000Y43750000D03*
D10*
G04 #@! TO.P,J5,2*
G04 #@! TO.N,Net-(J2-Pad9)*
X11020000Y46290000D03*
G04 #@! TO.P,J5,3*
G04 #@! TO.N,GND*
X11020000Y48830000D03*
G04 #@! TD*
G04 #@! TO.P,J6,3*
G04 #@! TO.N,GND*
X11020000Y60260000D03*
G04 #@! TO.P,J6,2*
G04 #@! TO.N,Net-(J2-Pad10)*
X11020000Y57720000D03*
D11*
G04 #@! TO.P,J6,1*
G04 #@! TO.N,+5V*
X11020000Y55180000D03*
G04 #@! TD*
G04 #@! TO.P,J7,1*
G04 #@! TO.N,+12V*
X50390000Y12000000D03*
D10*
G04 #@! TO.P,J7,2*
G04 #@! TO.N,Net-(J7-Pad2)*
X47850000Y12000000D03*
G04 #@! TO.P,J7,3*
G04 #@! TO.N,GND*
X45310000Y12000000D03*
G04 #@! TD*
D16*
G04 #@! TO.P,P1,4*
G04 #@! TO.N,Net-(J2-Pad2)*
X56740000Y23430000D03*
G04 #@! TO.P,P1,3*
G04 #@! TO.N,Net-(J2-Pad1)*
X54200000Y23430000D03*
G04 #@! TO.P,P1,2*
G04 #@! TO.N,+5V*
X51660000Y23430000D03*
G04 #@! TO.P,P1,1*
G04 #@! TO.N,GND*
X49120000Y23430000D03*
G04 #@! TD*
D17*
G04 #@! TO.P,F1,1*
G04 #@! TO.N,+12V*
X31340000Y28510000D03*
G04 #@! TO.P,F1,2*
G04 #@! TO.N,Net-(F1-Pad2)*
X31340000Y51110000D03*
G04 #@! TD*
D18*
G04 #@! TO.P,R1,1*
G04 #@! TO.N,Net-(J7-Pad2)*
X40000000Y13000000D03*
D19*
G04 #@! TO.P,R1,2*
G04 #@! TO.N,Net-(J2-Pad3)*
X29840000Y13000000D03*
G04 #@! TD*
G04 #@! TO.P,R2,2*
G04 #@! TO.N,Net-(J2-Pad4)*
X30070000Y18000000D03*
D18*
G04 #@! TO.P,R2,1*
G04 #@! TO.N,Net-(J8-Pad2)*
X40230000Y18000000D03*
G04 #@! TD*
D20*
G04 #@! TO.N,GND*
X19000000Y33000000D03*
X26000000Y33000000D03*
X15000000Y21000000D03*
X15000000Y13000000D03*
X19000000Y27000000D03*
X16000000Y36000000D03*
X16000000Y45000000D03*
X54000000Y4000000D03*
X54000000Y14000000D03*
X19000000Y18000000D03*
D21*
X9000000Y39000000D03*
X27000000Y23000000D03*
X63000000Y59000000D03*
X43000000Y59000000D03*
G04 #@! TD*
D22*
G04 #@! TO.N,+12V*
X34000000Y58990000D02*
X34000000Y56330000D01*
X34000000Y56330000D02*
X36420000Y53910000D01*
X36420000Y33590000D02*
X31340000Y28510000D01*
X49128390Y45020000D02*
X62330001Y31818389D01*
X36420000Y45020000D02*
X49128390Y45020000D01*
X36420000Y45020000D02*
X36420000Y33590000D01*
X36420000Y53910000D02*
X36420000Y45020000D01*
X62330001Y31818389D02*
X62330001Y31669999D01*
X63510001Y10535999D02*
X60974002Y8000000D01*
X62330001Y31669999D02*
X63510001Y30489999D01*
X63510001Y30489999D02*
X63510001Y10535999D01*
X54390000Y8000000D02*
X50900001Y11489999D01*
X60974002Y8000000D02*
X54390000Y8000000D01*
G04 #@! TO.N,Net-(F1-Pad2)*
X26640000Y51110000D02*
X31340000Y51110000D01*
X18760000Y58990000D02*
X26640000Y51110000D01*
G04 #@! TO.N,GND*
X23992604Y58990000D02*
X23916302Y59066302D01*
X28920000Y58990000D02*
X23992604Y58990000D01*
D23*
X45310000Y12000000D02*
X45310000Y13690000D01*
X47705787Y23430000D02*
X49120000Y23430000D01*
X38000000Y19000000D02*
X42430000Y23430000D01*
X42430000Y23430000D02*
X47705787Y23430000D01*
X38000000Y17269998D02*
X38000000Y19000000D01*
X39269999Y15999999D02*
X38000000Y17269998D01*
X43000001Y15999999D02*
X39269999Y15999999D01*
X45310000Y13690000D02*
X43000001Y15999999D01*
D24*
X52799990Y15200010D02*
X54000000Y14000000D01*
X47276008Y15200010D02*
X52799990Y15200010D01*
X45765998Y13690000D02*
X47276008Y15200010D01*
X45310000Y13690000D02*
X45765998Y13690000D01*
X57419999Y12500001D02*
X57909999Y12010001D01*
X55499999Y12500001D02*
X57419999Y12500001D01*
X54000000Y14000000D02*
X55499999Y12500001D01*
D23*
G04 #@! TO.N,Net-(J2-Pad1)*
X54200000Y29780000D02*
X54200000Y23430000D01*
X37690000Y5650000D02*
X37690000Y7850000D01*
X37690000Y7850000D02*
X33880000Y11660000D01*
X33880000Y11660000D02*
X33880000Y19688354D01*
X46580000Y31050000D02*
X52930000Y31050000D01*
X33880000Y19688354D02*
X45191646Y31000000D01*
X45191646Y31000000D02*
X46530000Y31000000D01*
X52930000Y31050000D02*
X54200000Y29780000D01*
X46530000Y31000000D02*
X46580000Y31050000D01*
G04 #@! TO.N,Net-(J2-Pad2)*
X56740000Y33590000D02*
X56740000Y23430000D01*
X45377469Y33590000D02*
X47000000Y33590000D01*
X32070001Y20282532D02*
X45377469Y33590000D01*
X32070001Y7459999D02*
X32070001Y20282532D01*
X33880000Y5650000D02*
X32070001Y7459999D01*
X46580000Y33590000D02*
X47000000Y33590000D01*
X47000000Y33590000D02*
X56740000Y33590000D01*
G04 #@! TO.N,Net-(J2-Pad3)*
X30070000Y5650000D02*
X30070000Y12000000D01*
G04 #@! TO.N,Net-(J2-Pad4)*
X26260000Y14190000D02*
X26260000Y5650000D01*
X30070000Y18000000D02*
X26260000Y14190000D01*
G04 #@! TO.N,+5V*
X22450000Y5650000D02*
X22450000Y9460000D01*
X14830000Y17080000D02*
X11020000Y17080000D01*
X22450000Y9460000D02*
X14830000Y17080000D01*
X22450000Y18930000D02*
X22450000Y9460000D01*
X12870000Y28510000D02*
X22450000Y18930000D01*
X11020000Y28510000D02*
X12870000Y28510000D01*
X12870000Y43750000D02*
X22450000Y34170000D01*
X11020000Y43750000D02*
X12870000Y43750000D01*
X22450000Y45600000D02*
X22450000Y32320000D01*
X12870000Y55180000D02*
X22450000Y45600000D01*
X11020000Y55180000D02*
X12870000Y55180000D01*
X22450000Y34170000D02*
X22450000Y32320000D01*
X22450000Y32320000D02*
X22450000Y18930000D01*
X39850001Y3249999D02*
X24850001Y3249999D01*
X40090001Y3489999D02*
X39850001Y3249999D01*
X51660000Y23430000D02*
X51660000Y28510000D01*
X51660000Y28510000D02*
X45105823Y28510000D01*
X36000000Y19404177D02*
X36000000Y11944176D01*
X24850001Y3249999D02*
X22450000Y5650000D01*
X36000000Y11944176D02*
X40090001Y7854175D01*
X45105823Y28510000D02*
X36000000Y19404177D01*
X40090001Y7854175D02*
X40090001Y3489999D01*
G04 #@! TO.N,Net-(J2-Pad7)*
X14830000Y7347056D02*
X8480000Y13697056D01*
X14830000Y5650000D02*
X14830000Y7347056D01*
X9699998Y19620000D02*
X11020000Y19620000D01*
X8480000Y18400002D02*
X9699998Y19620000D01*
X8480000Y13697056D02*
X8480000Y18400002D01*
G04 #@! TO.N,Net-(J2-Pad8)*
X8480000Y31050000D02*
X11020000Y31050000D01*
X5940000Y28510000D02*
X8480000Y31050000D01*
X5940000Y13270000D02*
X5940000Y28510000D01*
X11020000Y5650000D02*
X11020000Y8190000D01*
X11020000Y8190000D02*
X5940000Y13270000D01*
G04 #@! TO.N,Net-(J2-Pad9)*
X7210000Y5650000D02*
X7210000Y8620010D01*
X7210000Y8620010D02*
X3830010Y12000000D01*
X3830010Y12000000D02*
X3830010Y45450010D01*
X4670000Y46290000D02*
X11020000Y46290000D01*
X3830010Y45450010D02*
X4670000Y46290000D01*
G04 #@! TO.N,Net-(J2-Pad10)*
X3400000Y5650000D02*
X3400000Y9460000D01*
X3400000Y9460000D02*
X2130000Y10730000D01*
X2130000Y10730000D02*
X2130000Y56450000D01*
X3400000Y57720000D02*
X11020000Y57720000D01*
X2130000Y56450000D02*
X3400000Y57720000D01*
G04 #@! TO.N,Net-(J7-Pad2)*
X40000000Y13000000D02*
X45000000Y8000000D01*
X45000000Y8000000D02*
X48000000Y8000000D01*
X47850000Y8150000D02*
X47850000Y12000000D01*
X48000000Y8000000D02*
X47850000Y8150000D01*
G04 #@! TO.N,Net-(J8-Pad2)*
X40230000Y18000000D02*
X57000000Y18000000D01*
X60460000Y14540000D02*
X60460000Y12000000D01*
X57000000Y18000000D02*
X60460000Y14540000D01*
G04 #@! TD*
D25*
G04 #@! TO.N,GND*
G36*
X67098001Y902000D02*
X902000Y902000D01*
X902000Y10179297D01*
X1173287Y9773288D01*
X1284085Y9699254D01*
X2073001Y8910338D01*
X2073000Y7189610D01*
X1681593Y6798203D01*
X1373000Y6053195D01*
X1373000Y5246805D01*
X1681593Y4501797D01*
X2251797Y3931593D01*
X2996805Y3623000D01*
X3803195Y3623000D01*
X4548203Y3931593D01*
X5118407Y4501797D01*
X5305000Y4952272D01*
X5491593Y4501797D01*
X6061797Y3931593D01*
X6806805Y3623000D01*
X7613195Y3623000D01*
X8358203Y3931593D01*
X8928407Y4501797D01*
X9115000Y4952272D01*
X9301593Y4501797D01*
X9871797Y3931593D01*
X10616805Y3623000D01*
X11423195Y3623000D01*
X12168203Y3931593D01*
X12738407Y4501797D01*
X12925000Y4952272D01*
X13111593Y4501797D01*
X13681797Y3931593D01*
X14426805Y3623000D01*
X15233195Y3623000D01*
X15978203Y3931593D01*
X16548407Y4501797D01*
X16857000Y5246805D01*
X16857000Y6053195D01*
X16548407Y6798203D01*
X16157000Y7189610D01*
X16157000Y7216365D01*
X16182996Y7347057D01*
X16157000Y7477749D01*
X16157000Y7477752D01*
X16080006Y7864826D01*
X15786713Y8303769D01*
X15675915Y8377802D01*
X9807000Y14246716D01*
X9807000Y15477926D01*
X9847321Y15450984D01*
X10170000Y15386799D01*
X11870000Y15386799D01*
X12192679Y15450984D01*
X12466233Y15633767D01*
X12545902Y15753000D01*
X14280340Y15753000D01*
X21123001Y8910338D01*
X21123000Y7189610D01*
X20731593Y6798203D01*
X20423000Y6053195D01*
X20423000Y5246805D01*
X20731593Y4501797D01*
X21301797Y3931593D01*
X22046805Y3623000D01*
X22600340Y3623000D01*
X23819255Y2404084D01*
X23893288Y2293286D01*
X24332231Y1999993D01*
X24719305Y1922999D01*
X24719309Y1922999D01*
X24850001Y1897003D01*
X24980693Y1922999D01*
X39719309Y1922999D01*
X39850001Y1897003D01*
X39980693Y1922999D01*
X39980697Y1922999D01*
X40367771Y1999993D01*
X40806714Y2293286D01*
X40880749Y2404087D01*
X40935913Y2459251D01*
X41046714Y2533286D01*
X41340007Y2972229D01*
X41417001Y3359303D01*
X41417001Y3359307D01*
X41442997Y3489998D01*
X41417001Y3620690D01*
X41417001Y7723483D01*
X41442997Y7854175D01*
X41417001Y7984867D01*
X41417001Y7984871D01*
X41340007Y8371945D01*
X41189588Y8597062D01*
X41120747Y8700090D01*
X41120745Y8700092D01*
X41046713Y8810888D01*
X40935918Y8884919D01*
X37327000Y12493836D01*
X37327000Y18854517D01*
X45655484Y27183000D01*
X50333001Y27183000D01*
X50333000Y24686768D01*
X50111144Y24464912D01*
X49833000Y23793413D01*
X49833000Y23066587D01*
X50111144Y22395088D01*
X50625088Y21881144D01*
X51296587Y21603000D01*
X52023413Y21603000D01*
X52694912Y21881144D01*
X52930000Y22116232D01*
X53165088Y21881144D01*
X53836587Y21603000D01*
X54563413Y21603000D01*
X55234912Y21881144D01*
X55470000Y22116232D01*
X55705088Y21881144D01*
X56376587Y21603000D01*
X57103413Y21603000D01*
X57774912Y21881144D01*
X58288856Y22395088D01*
X58567000Y23066587D01*
X58567000Y23793413D01*
X58288856Y24464912D01*
X58067000Y24686768D01*
X58067000Y32790515D01*
X60223697Y30633818D01*
X60652328Y29992326D01*
X60846624Y29862502D01*
X61183001Y29526125D01*
X61183002Y15693659D01*
X58030748Y18845912D01*
X57956713Y18956713D01*
X57517770Y19250006D01*
X57130696Y19327000D01*
X57130692Y19327000D01*
X57000000Y19352996D01*
X56869308Y19327000D01*
X41203926Y19327000D01*
X41151622Y19379304D01*
X40553630Y19627000D01*
X39906370Y19627000D01*
X39308378Y19379304D01*
X38850696Y18921622D01*
X38603000Y18323630D01*
X38603000Y17676370D01*
X38850696Y17078378D01*
X39308378Y16620696D01*
X39906370Y16373000D01*
X40553630Y16373000D01*
X41151622Y16620696D01*
X41203926Y16673000D01*
X56450340Y16673000D01*
X59133000Y13990339D01*
X59133001Y13032524D01*
X58880301Y12654333D01*
X58750146Y12000000D01*
X58880301Y11345667D01*
X59250951Y10790951D01*
X59805667Y10420301D01*
X60054027Y10370899D01*
X60010128Y10327000D01*
X55353875Y10327000D01*
X52383379Y13297495D01*
X51807950Y13681984D01*
X50900001Y13862586D01*
X50048444Y13693201D01*
X49540000Y13693201D01*
X49217321Y13629016D01*
X48943767Y13446233D01*
X48869785Y13335511D01*
X48504333Y13579699D01*
X48015168Y13677000D01*
X47684832Y13677000D01*
X47195667Y13579699D01*
X46640951Y13209049D01*
X46270301Y12654333D01*
X46140146Y12000000D01*
X46270301Y11345667D01*
X46523001Y10967476D01*
X46523000Y9327000D01*
X45549661Y9327000D01*
X41627000Y13249660D01*
X41627000Y13323630D01*
X41379304Y13921622D01*
X40921622Y14379304D01*
X40323630Y14627000D01*
X39676370Y14627000D01*
X39078378Y14379304D01*
X38620696Y13921622D01*
X38373000Y13323630D01*
X38373000Y12676370D01*
X38620696Y12078378D01*
X39078378Y11620696D01*
X39676370Y11373000D01*
X39750340Y11373000D01*
X43969254Y7154085D01*
X44043287Y7043287D01*
X44482230Y6749994D01*
X44869304Y6673000D01*
X44869308Y6673000D01*
X45000000Y6647004D01*
X45130692Y6673000D01*
X47869308Y6673000D01*
X47999999Y6647004D01*
X48130691Y6673000D01*
X48130696Y6673000D01*
X48517770Y6749994D01*
X48956713Y7043287D01*
X49250006Y7482230D01*
X49352997Y8000000D01*
X49250006Y8517770D01*
X49177000Y8627031D01*
X49177000Y9922126D01*
X52582504Y6516621D01*
X52712327Y6322327D01*
X53482050Y5808015D01*
X54160814Y5673000D01*
X54160818Y5673000D01*
X54390000Y5627413D01*
X54619182Y5673000D01*
X60744820Y5673000D01*
X60974002Y5627413D01*
X61203184Y5673000D01*
X61203188Y5673000D01*
X61881952Y5808015D01*
X62651675Y6322327D01*
X62781500Y6516624D01*
X64993380Y8728503D01*
X65187674Y8858326D01*
X65701986Y9628049D01*
X65837001Y10306813D01*
X65837001Y10306818D01*
X65882588Y10535998D01*
X65837001Y10765179D01*
X65837001Y30260818D01*
X65882588Y30490000D01*
X65837001Y30719184D01*
X65837001Y30719185D01*
X65701986Y31397949D01*
X65187674Y32167672D01*
X64993378Y32297496D01*
X64436307Y32854567D01*
X64007674Y33496062D01*
X63813380Y33625884D01*
X50935888Y46503376D01*
X50806063Y46697673D01*
X50036340Y47211985D01*
X49357576Y47347000D01*
X49357572Y47347000D01*
X49128390Y47392587D01*
X48899208Y47347000D01*
X38747000Y47347000D01*
X38747000Y53680815D01*
X38792588Y53910000D01*
X38611985Y54817950D01*
X38227496Y55393379D01*
X38097673Y55587673D01*
X37903379Y55717496D01*
X36327000Y57293874D01*
X36327000Y59219186D01*
X36191985Y59897950D01*
X35677673Y60667673D01*
X34907949Y61181985D01*
X34000000Y61362588D01*
X33092050Y61181985D01*
X32322327Y60667673D01*
X31808015Y59897949D01*
X31673000Y59219185D01*
X31673000Y56559182D01*
X31627413Y56330000D01*
X31673000Y56100818D01*
X31673000Y56100814D01*
X31808015Y55422050D01*
X32322328Y54652327D01*
X32516622Y54522504D01*
X34093000Y52946125D01*
X34093001Y45249190D01*
X34047412Y45020000D01*
X34093000Y44790814D01*
X34093001Y34553876D01*
X30021863Y30482737D01*
X30021860Y30482736D01*
X29367264Y29828140D01*
X29277835Y29612238D01*
X29148015Y29417949D01*
X29102428Y29188768D01*
X29013000Y28972869D01*
X29013000Y28739182D01*
X28967413Y28510000D01*
X29013000Y28280818D01*
X29013000Y28047131D01*
X29102428Y27831232D01*
X29148015Y27602051D01*
X29277835Y27407761D01*
X29367264Y27191860D01*
X29532507Y27026617D01*
X29662327Y26832327D01*
X29856617Y26702507D01*
X30021860Y26537264D01*
X30237761Y26447835D01*
X30432051Y26318015D01*
X30661232Y26272428D01*
X30877131Y26183000D01*
X31110818Y26183000D01*
X31340000Y26137413D01*
X31569182Y26183000D01*
X31802869Y26183000D01*
X32018768Y26272428D01*
X32247949Y26318015D01*
X32442238Y26447835D01*
X32658140Y26537264D01*
X33312736Y27191860D01*
X33312737Y27191863D01*
X37903379Y31782504D01*
X38097673Y31912327D01*
X38611985Y32682050D01*
X38747000Y33360814D01*
X38747000Y33360818D01*
X38792587Y33590000D01*
X38747000Y33819182D01*
X38747000Y42693000D01*
X48164516Y42693000D01*
X55940515Y34917000D01*
X45508161Y34917000D01*
X45377469Y34942996D01*
X45246777Y34917000D01*
X45246773Y34917000D01*
X44859699Y34840006D01*
X44420756Y34546713D01*
X44346723Y34435915D01*
X31224087Y21313278D01*
X31113289Y21239245D01*
X31039256Y21128447D01*
X31039255Y21128446D01*
X30819995Y20800301D01*
X30717005Y20282532D01*
X30743002Y20151836D01*
X30743002Y19507090D01*
X30704824Y19532600D01*
X30230242Y19627000D01*
X29909758Y19627000D01*
X29435176Y19532600D01*
X28896999Y19173001D01*
X28537400Y18634824D01*
X28465203Y18271864D01*
X25414086Y15220746D01*
X25303287Y15146712D01*
X25009994Y14707769D01*
X24933000Y14320695D01*
X24933000Y14320692D01*
X24907004Y14190000D01*
X24933000Y14059308D01*
X24933001Y7189611D01*
X24541593Y6798203D01*
X24355000Y6347728D01*
X24168407Y6798203D01*
X23777000Y7189610D01*
X23777000Y9329309D01*
X23802996Y9460001D01*
X23777000Y9590693D01*
X23777000Y18799308D01*
X23802996Y18930000D01*
X23777000Y19060692D01*
X23777000Y34039308D01*
X23802996Y34170000D01*
X23777000Y34300692D01*
X23777000Y45469308D01*
X23802996Y45600000D01*
X23777000Y45730692D01*
X23777000Y45730696D01*
X23700006Y46117770D01*
X23506933Y46406723D01*
X23480746Y46445915D01*
X23480744Y46445917D01*
X23406712Y46556713D01*
X23295917Y46630744D01*
X13900748Y56025912D01*
X13826713Y56136713D01*
X13387770Y56430006D01*
X13000696Y56507000D01*
X13000692Y56507000D01*
X12870000Y56532996D01*
X12739308Y56507000D01*
X12545902Y56507000D01*
X12466233Y56626233D01*
X12355511Y56700215D01*
X12599699Y57065667D01*
X12729854Y57720000D01*
X12599699Y58374333D01*
X12229049Y58929049D01*
X12137830Y58990000D01*
X16387413Y58990000D01*
X16568015Y58082051D01*
X16666799Y57934210D01*
X16666799Y57740000D01*
X16730984Y57417321D01*
X16913767Y57143767D01*
X17187321Y56960984D01*
X17510000Y56896799D01*
X17562327Y56896799D01*
X24832504Y49626621D01*
X24962327Y49432327D01*
X25156621Y49302504D01*
X25732050Y48918015D01*
X26640000Y48737412D01*
X26869185Y48783000D01*
X31802869Y48783000D01*
X32018766Y48872427D01*
X32247950Y48918015D01*
X32442241Y49047836D01*
X32658140Y49137264D01*
X32823382Y49302506D01*
X33017673Y49432327D01*
X33147494Y49626618D01*
X33312736Y49791860D01*
X33402164Y50007759D01*
X33531985Y50202050D01*
X33577573Y50431234D01*
X33667000Y50647131D01*
X33667000Y50880814D01*
X33712588Y51110000D01*
X33667000Y51339186D01*
X33667000Y51572869D01*
X33577573Y51788766D01*
X33531985Y52017950D01*
X33402164Y52212241D01*
X33312736Y52428140D01*
X33147494Y52593382D01*
X33017673Y52787673D01*
X32823382Y52917494D01*
X32658140Y53082736D01*
X32442241Y53172164D01*
X32247950Y53301985D01*
X32018766Y53347573D01*
X31802869Y53437000D01*
X27603875Y53437000D01*
X20853201Y60187673D01*
X20853201Y60240000D01*
X20789016Y60562679D01*
X20606233Y60836233D01*
X20332679Y61019016D01*
X20010000Y61083201D01*
X19815790Y61083201D01*
X19667949Y61181985D01*
X18760000Y61362587D01*
X17852051Y61181985D01*
X17704210Y61083201D01*
X17510000Y61083201D01*
X17187321Y61019016D01*
X16913767Y60836233D01*
X16730984Y60562679D01*
X16666799Y60240000D01*
X16666799Y60045790D01*
X16568015Y59897949D01*
X16387413Y58990000D01*
X12137830Y58990000D01*
X11674333Y59299699D01*
X11185168Y59397000D01*
X10854832Y59397000D01*
X10365667Y59299699D01*
X9987477Y59047000D01*
X3530691Y59047000D01*
X3399999Y59072996D01*
X3269307Y59047000D01*
X3269304Y59047000D01*
X2882230Y58970006D01*
X2443287Y58676713D01*
X2369254Y58565915D01*
X1284086Y57480746D01*
X1173288Y57406713D01*
X1099255Y57295915D01*
X1099254Y57295914D01*
X902000Y57000703D01*
X902000Y63098000D01*
X67098000Y63098000D01*
X67098001Y902000D01*
X67098001Y902000D01*
G37*
X67098001Y902000D02*
X902000Y902000D01*
X902000Y10179297D01*
X1173287Y9773288D01*
X1284085Y9699254D01*
X2073001Y8910338D01*
X2073000Y7189610D01*
X1681593Y6798203D01*
X1373000Y6053195D01*
X1373000Y5246805D01*
X1681593Y4501797D01*
X2251797Y3931593D01*
X2996805Y3623000D01*
X3803195Y3623000D01*
X4548203Y3931593D01*
X5118407Y4501797D01*
X5305000Y4952272D01*
X5491593Y4501797D01*
X6061797Y3931593D01*
X6806805Y3623000D01*
X7613195Y3623000D01*
X8358203Y3931593D01*
X8928407Y4501797D01*
X9115000Y4952272D01*
X9301593Y4501797D01*
X9871797Y3931593D01*
X10616805Y3623000D01*
X11423195Y3623000D01*
X12168203Y3931593D01*
X12738407Y4501797D01*
X12925000Y4952272D01*
X13111593Y4501797D01*
X13681797Y3931593D01*
X14426805Y3623000D01*
X15233195Y3623000D01*
X15978203Y3931593D01*
X16548407Y4501797D01*
X16857000Y5246805D01*
X16857000Y6053195D01*
X16548407Y6798203D01*
X16157000Y7189610D01*
X16157000Y7216365D01*
X16182996Y7347057D01*
X16157000Y7477749D01*
X16157000Y7477752D01*
X16080006Y7864826D01*
X15786713Y8303769D01*
X15675915Y8377802D01*
X9807000Y14246716D01*
X9807000Y15477926D01*
X9847321Y15450984D01*
X10170000Y15386799D01*
X11870000Y15386799D01*
X12192679Y15450984D01*
X12466233Y15633767D01*
X12545902Y15753000D01*
X14280340Y15753000D01*
X21123001Y8910338D01*
X21123000Y7189610D01*
X20731593Y6798203D01*
X20423000Y6053195D01*
X20423000Y5246805D01*
X20731593Y4501797D01*
X21301797Y3931593D01*
X22046805Y3623000D01*
X22600340Y3623000D01*
X23819255Y2404084D01*
X23893288Y2293286D01*
X24332231Y1999993D01*
X24719305Y1922999D01*
X24719309Y1922999D01*
X24850001Y1897003D01*
X24980693Y1922999D01*
X39719309Y1922999D01*
X39850001Y1897003D01*
X39980693Y1922999D01*
X39980697Y1922999D01*
X40367771Y1999993D01*
X40806714Y2293286D01*
X40880749Y2404087D01*
X40935913Y2459251D01*
X41046714Y2533286D01*
X41340007Y2972229D01*
X41417001Y3359303D01*
X41417001Y3359307D01*
X41442997Y3489998D01*
X41417001Y3620690D01*
X41417001Y7723483D01*
X41442997Y7854175D01*
X41417001Y7984867D01*
X41417001Y7984871D01*
X41340007Y8371945D01*
X41189588Y8597062D01*
X41120747Y8700090D01*
X41120745Y8700092D01*
X41046713Y8810888D01*
X40935918Y8884919D01*
X37327000Y12493836D01*
X37327000Y18854517D01*
X45655484Y27183000D01*
X50333001Y27183000D01*
X50333000Y24686768D01*
X50111144Y24464912D01*
X49833000Y23793413D01*
X49833000Y23066587D01*
X50111144Y22395088D01*
X50625088Y21881144D01*
X51296587Y21603000D01*
X52023413Y21603000D01*
X52694912Y21881144D01*
X52930000Y22116232D01*
X53165088Y21881144D01*
X53836587Y21603000D01*
X54563413Y21603000D01*
X55234912Y21881144D01*
X55470000Y22116232D01*
X55705088Y21881144D01*
X56376587Y21603000D01*
X57103413Y21603000D01*
X57774912Y21881144D01*
X58288856Y22395088D01*
X58567000Y23066587D01*
X58567000Y23793413D01*
X58288856Y24464912D01*
X58067000Y24686768D01*
X58067000Y32790515D01*
X60223697Y30633818D01*
X60652328Y29992326D01*
X60846624Y29862502D01*
X61183001Y29526125D01*
X61183002Y15693659D01*
X58030748Y18845912D01*
X57956713Y18956713D01*
X57517770Y19250006D01*
X57130696Y19327000D01*
X57130692Y19327000D01*
X57000000Y19352996D01*
X56869308Y19327000D01*
X41203926Y19327000D01*
X41151622Y19379304D01*
X40553630Y19627000D01*
X39906370Y19627000D01*
X39308378Y19379304D01*
X38850696Y18921622D01*
X38603000Y18323630D01*
X38603000Y17676370D01*
X38850696Y17078378D01*
X39308378Y16620696D01*
X39906370Y16373000D01*
X40553630Y16373000D01*
X41151622Y16620696D01*
X41203926Y16673000D01*
X56450340Y16673000D01*
X59133000Y13990339D01*
X59133001Y13032524D01*
X58880301Y12654333D01*
X58750146Y12000000D01*
X58880301Y11345667D01*
X59250951Y10790951D01*
X59805667Y10420301D01*
X60054027Y10370899D01*
X60010128Y10327000D01*
X55353875Y10327000D01*
X52383379Y13297495D01*
X51807950Y13681984D01*
X50900001Y13862586D01*
X50048444Y13693201D01*
X49540000Y13693201D01*
X49217321Y13629016D01*
X48943767Y13446233D01*
X48869785Y13335511D01*
X48504333Y13579699D01*
X48015168Y13677000D01*
X47684832Y13677000D01*
X47195667Y13579699D01*
X46640951Y13209049D01*
X46270301Y12654333D01*
X46140146Y12000000D01*
X46270301Y11345667D01*
X46523001Y10967476D01*
X46523000Y9327000D01*
X45549661Y9327000D01*
X41627000Y13249660D01*
X41627000Y13323630D01*
X41379304Y13921622D01*
X40921622Y14379304D01*
X40323630Y14627000D01*
X39676370Y14627000D01*
X39078378Y14379304D01*
X38620696Y13921622D01*
X38373000Y13323630D01*
X38373000Y12676370D01*
X38620696Y12078378D01*
X39078378Y11620696D01*
X39676370Y11373000D01*
X39750340Y11373000D01*
X43969254Y7154085D01*
X44043287Y7043287D01*
X44482230Y6749994D01*
X44869304Y6673000D01*
X44869308Y6673000D01*
X45000000Y6647004D01*
X45130692Y6673000D01*
X47869308Y6673000D01*
X47999999Y6647004D01*
X48130691Y6673000D01*
X48130696Y6673000D01*
X48517770Y6749994D01*
X48956713Y7043287D01*
X49250006Y7482230D01*
X49352997Y8000000D01*
X49250006Y8517770D01*
X49177000Y8627031D01*
X49177000Y9922126D01*
X52582504Y6516621D01*
X52712327Y6322327D01*
X53482050Y5808015D01*
X54160814Y5673000D01*
X54160818Y5673000D01*
X54390000Y5627413D01*
X54619182Y5673000D01*
X60744820Y5673000D01*
X60974002Y5627413D01*
X61203184Y5673000D01*
X61203188Y5673000D01*
X61881952Y5808015D01*
X62651675Y6322327D01*
X62781500Y6516624D01*
X64993380Y8728503D01*
X65187674Y8858326D01*
X65701986Y9628049D01*
X65837001Y10306813D01*
X65837001Y10306818D01*
X65882588Y10535998D01*
X65837001Y10765179D01*
X65837001Y30260818D01*
X65882588Y30490000D01*
X65837001Y30719184D01*
X65837001Y30719185D01*
X65701986Y31397949D01*
X65187674Y32167672D01*
X64993378Y32297496D01*
X64436307Y32854567D01*
X64007674Y33496062D01*
X63813380Y33625884D01*
X50935888Y46503376D01*
X50806063Y46697673D01*
X50036340Y47211985D01*
X49357576Y47347000D01*
X49357572Y47347000D01*
X49128390Y47392587D01*
X48899208Y47347000D01*
X38747000Y47347000D01*
X38747000Y53680815D01*
X38792588Y53910000D01*
X38611985Y54817950D01*
X38227496Y55393379D01*
X38097673Y55587673D01*
X37903379Y55717496D01*
X36327000Y57293874D01*
X36327000Y59219186D01*
X36191985Y59897950D01*
X35677673Y60667673D01*
X34907949Y61181985D01*
X34000000Y61362588D01*
X33092050Y61181985D01*
X32322327Y60667673D01*
X31808015Y59897949D01*
X31673000Y59219185D01*
X31673000Y56559182D01*
X31627413Y56330000D01*
X31673000Y56100818D01*
X31673000Y56100814D01*
X31808015Y55422050D01*
X32322328Y54652327D01*
X32516622Y54522504D01*
X34093000Y52946125D01*
X34093001Y45249190D01*
X34047412Y45020000D01*
X34093000Y44790814D01*
X34093001Y34553876D01*
X30021863Y30482737D01*
X30021860Y30482736D01*
X29367264Y29828140D01*
X29277835Y29612238D01*
X29148015Y29417949D01*
X29102428Y29188768D01*
X29013000Y28972869D01*
X29013000Y28739182D01*
X28967413Y28510000D01*
X29013000Y28280818D01*
X29013000Y28047131D01*
X29102428Y27831232D01*
X29148015Y27602051D01*
X29277835Y27407761D01*
X29367264Y27191860D01*
X29532507Y27026617D01*
X29662327Y26832327D01*
X29856617Y26702507D01*
X30021860Y26537264D01*
X30237761Y26447835D01*
X30432051Y26318015D01*
X30661232Y26272428D01*
X30877131Y26183000D01*
X31110818Y26183000D01*
X31340000Y26137413D01*
X31569182Y26183000D01*
X31802869Y26183000D01*
X32018768Y26272428D01*
X32247949Y26318015D01*
X32442238Y26447835D01*
X32658140Y26537264D01*
X33312736Y27191860D01*
X33312737Y27191863D01*
X37903379Y31782504D01*
X38097673Y31912327D01*
X38611985Y32682050D01*
X38747000Y33360814D01*
X38747000Y33360818D01*
X38792587Y33590000D01*
X38747000Y33819182D01*
X38747000Y42693000D01*
X48164516Y42693000D01*
X55940515Y34917000D01*
X45508161Y34917000D01*
X45377469Y34942996D01*
X45246777Y34917000D01*
X45246773Y34917000D01*
X44859699Y34840006D01*
X44420756Y34546713D01*
X44346723Y34435915D01*
X31224087Y21313278D01*
X31113289Y21239245D01*
X31039256Y21128447D01*
X31039255Y21128446D01*
X30819995Y20800301D01*
X30717005Y20282532D01*
X30743002Y20151836D01*
X30743002Y19507090D01*
X30704824Y19532600D01*
X30230242Y19627000D01*
X29909758Y19627000D01*
X29435176Y19532600D01*
X28896999Y19173001D01*
X28537400Y18634824D01*
X28465203Y18271864D01*
X25414086Y15220746D01*
X25303287Y15146712D01*
X25009994Y14707769D01*
X24933000Y14320695D01*
X24933000Y14320692D01*
X24907004Y14190000D01*
X24933000Y14059308D01*
X24933001Y7189611D01*
X24541593Y6798203D01*
X24355000Y6347728D01*
X24168407Y6798203D01*
X23777000Y7189610D01*
X23777000Y9329309D01*
X23802996Y9460001D01*
X23777000Y9590693D01*
X23777000Y18799308D01*
X23802996Y18930000D01*
X23777000Y19060692D01*
X23777000Y34039308D01*
X23802996Y34170000D01*
X23777000Y34300692D01*
X23777000Y45469308D01*
X23802996Y45600000D01*
X23777000Y45730692D01*
X23777000Y45730696D01*
X23700006Y46117770D01*
X23506933Y46406723D01*
X23480746Y46445915D01*
X23480744Y46445917D01*
X23406712Y46556713D01*
X23295917Y46630744D01*
X13900748Y56025912D01*
X13826713Y56136713D01*
X13387770Y56430006D01*
X13000696Y56507000D01*
X13000692Y56507000D01*
X12870000Y56532996D01*
X12739308Y56507000D01*
X12545902Y56507000D01*
X12466233Y56626233D01*
X12355511Y56700215D01*
X12599699Y57065667D01*
X12729854Y57720000D01*
X12599699Y58374333D01*
X12229049Y58929049D01*
X12137830Y58990000D01*
X16387413Y58990000D01*
X16568015Y58082051D01*
X16666799Y57934210D01*
X16666799Y57740000D01*
X16730984Y57417321D01*
X16913767Y57143767D01*
X17187321Y56960984D01*
X17510000Y56896799D01*
X17562327Y56896799D01*
X24832504Y49626621D01*
X24962327Y49432327D01*
X25156621Y49302504D01*
X25732050Y48918015D01*
X26640000Y48737412D01*
X26869185Y48783000D01*
X31802869Y48783000D01*
X32018766Y48872427D01*
X32247950Y48918015D01*
X32442241Y49047836D01*
X32658140Y49137264D01*
X32823382Y49302506D01*
X33017673Y49432327D01*
X33147494Y49626618D01*
X33312736Y49791860D01*
X33402164Y50007759D01*
X33531985Y50202050D01*
X33577573Y50431234D01*
X33667000Y50647131D01*
X33667000Y50880814D01*
X33712588Y51110000D01*
X33667000Y51339186D01*
X33667000Y51572869D01*
X33577573Y51788766D01*
X33531985Y52017950D01*
X33402164Y52212241D01*
X33312736Y52428140D01*
X33147494Y52593382D01*
X33017673Y52787673D01*
X32823382Y52917494D01*
X32658140Y53082736D01*
X32442241Y53172164D01*
X32247950Y53301985D01*
X32018766Y53347573D01*
X31802869Y53437000D01*
X27603875Y53437000D01*
X20853201Y60187673D01*
X20853201Y60240000D01*
X20789016Y60562679D01*
X20606233Y60836233D01*
X20332679Y61019016D01*
X20010000Y61083201D01*
X19815790Y61083201D01*
X19667949Y61181985D01*
X18760000Y61362587D01*
X17852051Y61181985D01*
X17704210Y61083201D01*
X17510000Y61083201D01*
X17187321Y61019016D01*
X16913767Y60836233D01*
X16730984Y60562679D01*
X16666799Y60240000D01*
X16666799Y60045790D01*
X16568015Y59897949D01*
X16387413Y58990000D01*
X12137830Y58990000D01*
X11674333Y59299699D01*
X11185168Y59397000D01*
X10854832Y59397000D01*
X10365667Y59299699D01*
X9987477Y59047000D01*
X3530691Y59047000D01*
X3399999Y59072996D01*
X3269307Y59047000D01*
X3269304Y59047000D01*
X2882230Y58970006D01*
X2443287Y58676713D01*
X2369254Y58565915D01*
X1284086Y57480746D01*
X1173288Y57406713D01*
X1099255Y57295915D01*
X1099254Y57295914D01*
X902000Y57000703D01*
X902000Y63098000D01*
X67098000Y63098000D01*
X67098001Y902000D01*
G36*
X9390984Y29682679D02*
X9326799Y29360000D01*
X9326799Y27660000D01*
X9390984Y27337321D01*
X9573767Y27063767D01*
X9847321Y26880984D01*
X10170000Y26816799D01*
X11870000Y26816799D01*
X12192679Y26880984D01*
X12450251Y27053088D01*
X21123000Y18380339D01*
X21123001Y12663660D01*
X15860748Y17925912D01*
X15786713Y18036713D01*
X15347770Y18330006D01*
X14960696Y18407000D01*
X14960692Y18407000D01*
X14830000Y18432996D01*
X14699308Y18407000D01*
X12545902Y18407000D01*
X12466233Y18526233D01*
X12355511Y18600215D01*
X12599699Y18965667D01*
X12729854Y19620000D01*
X12599699Y20274333D01*
X12229049Y20829049D01*
X11674333Y21199699D01*
X11185168Y21297000D01*
X10854832Y21297000D01*
X10365667Y21199699D01*
X9987477Y20947000D01*
X9830690Y20947000D01*
X9699998Y20972996D01*
X9569306Y20947000D01*
X9569302Y20947000D01*
X9182228Y20870006D01*
X8743285Y20576713D01*
X8669252Y20465915D01*
X7634086Y19430748D01*
X7523288Y19356715D01*
X7449255Y19245917D01*
X7449254Y19245916D01*
X7267000Y18973154D01*
X7267000Y27960340D01*
X9029661Y29723000D01*
X9417926Y29723000D01*
X9390984Y29682679D01*
X9390984Y29682679D01*
G37*
X9390984Y29682679D02*
X9326799Y29360000D01*
X9326799Y27660000D01*
X9390984Y27337321D01*
X9573767Y27063767D01*
X9847321Y26880984D01*
X10170000Y26816799D01*
X11870000Y26816799D01*
X12192679Y26880984D01*
X12450251Y27053088D01*
X21123000Y18380339D01*
X21123001Y12663660D01*
X15860748Y17925912D01*
X15786713Y18036713D01*
X15347770Y18330006D01*
X14960696Y18407000D01*
X14960692Y18407000D01*
X14830000Y18432996D01*
X14699308Y18407000D01*
X12545902Y18407000D01*
X12466233Y18526233D01*
X12355511Y18600215D01*
X12599699Y18965667D01*
X12729854Y19620000D01*
X12599699Y20274333D01*
X12229049Y20829049D01*
X11674333Y21199699D01*
X11185168Y21297000D01*
X10854832Y21297000D01*
X10365667Y21199699D01*
X9987477Y20947000D01*
X9830690Y20947000D01*
X9699998Y20972996D01*
X9569306Y20947000D01*
X9569302Y20947000D01*
X9182228Y20870006D01*
X8743285Y20576713D01*
X8669252Y20465915D01*
X7634086Y19430748D01*
X7523288Y19356715D01*
X7449255Y19245917D01*
X7449254Y19245916D01*
X7267000Y18973154D01*
X7267000Y27960340D01*
X9029661Y29723000D01*
X9417926Y29723000D01*
X9390984Y29682679D01*
G36*
X9390984Y44922679D02*
X9326799Y44600000D01*
X9326799Y42900000D01*
X9390984Y42577321D01*
X9573767Y42303767D01*
X9847321Y42120984D01*
X10170000Y42056799D01*
X11870000Y42056799D01*
X12192679Y42120984D01*
X12450251Y42293088D01*
X21123000Y33620339D01*
X21123001Y32450699D01*
X21123000Y32450695D01*
X21123001Y22133660D01*
X13900748Y29355912D01*
X13826713Y29466713D01*
X13387770Y29760006D01*
X13000696Y29837000D01*
X13000692Y29837000D01*
X12870000Y29862996D01*
X12739308Y29837000D01*
X12545902Y29837000D01*
X12466233Y29956233D01*
X12355511Y30030215D01*
X12599699Y30395667D01*
X12729854Y31050000D01*
X12599699Y31704333D01*
X12229049Y32259049D01*
X11674333Y32629699D01*
X11185168Y32727000D01*
X10854832Y32727000D01*
X10365667Y32629699D01*
X9987477Y32377000D01*
X8610691Y32377000D01*
X8479999Y32402996D01*
X8349307Y32377000D01*
X8349304Y32377000D01*
X7962230Y32300006D01*
X7523287Y32006713D01*
X7449254Y31895915D01*
X5157010Y29603670D01*
X5157010Y44900350D01*
X5219660Y44963000D01*
X9417926Y44963000D01*
X9390984Y44922679D01*
X9390984Y44922679D01*
G37*
X9390984Y44922679D02*
X9326799Y44600000D01*
X9326799Y42900000D01*
X9390984Y42577321D01*
X9573767Y42303767D01*
X9847321Y42120984D01*
X10170000Y42056799D01*
X11870000Y42056799D01*
X12192679Y42120984D01*
X12450251Y42293088D01*
X21123000Y33620339D01*
X21123001Y32450699D01*
X21123000Y32450695D01*
X21123001Y22133660D01*
X13900748Y29355912D01*
X13826713Y29466713D01*
X13387770Y29760006D01*
X13000696Y29837000D01*
X13000692Y29837000D01*
X12870000Y29862996D01*
X12739308Y29837000D01*
X12545902Y29837000D01*
X12466233Y29956233D01*
X12355511Y30030215D01*
X12599699Y30395667D01*
X12729854Y31050000D01*
X12599699Y31704333D01*
X12229049Y32259049D01*
X11674333Y32629699D01*
X11185168Y32727000D01*
X10854832Y32727000D01*
X10365667Y32629699D01*
X9987477Y32377000D01*
X8610691Y32377000D01*
X8479999Y32402996D01*
X8349307Y32377000D01*
X8349304Y32377000D01*
X7962230Y32300006D01*
X7523287Y32006713D01*
X7449254Y31895915D01*
X5157010Y29603670D01*
X5157010Y44900350D01*
X5219660Y44963000D01*
X9417926Y44963000D01*
X9390984Y44922679D01*
G36*
X9390984Y56352679D02*
X9326799Y56030000D01*
X9326799Y54330000D01*
X9390984Y54007321D01*
X9573767Y53733767D01*
X9847321Y53550984D01*
X10170000Y53486799D01*
X11870000Y53486799D01*
X12192679Y53550984D01*
X12450251Y53723088D01*
X21123000Y45050339D01*
X21123001Y37373660D01*
X13900748Y44595912D01*
X13826713Y44706713D01*
X13387770Y45000006D01*
X13000696Y45077000D01*
X13000692Y45077000D01*
X12870000Y45102996D01*
X12739308Y45077000D01*
X12545902Y45077000D01*
X12466233Y45196233D01*
X12355511Y45270215D01*
X12599699Y45635667D01*
X12729854Y46290000D01*
X12599699Y46944333D01*
X12229049Y47499049D01*
X11674333Y47869699D01*
X11185168Y47967000D01*
X10854832Y47967000D01*
X10365667Y47869699D01*
X9987477Y47617000D01*
X4800691Y47617000D01*
X4669999Y47642996D01*
X4539307Y47617000D01*
X4539304Y47617000D01*
X4152230Y47540006D01*
X3713287Y47246713D01*
X3639252Y47135912D01*
X3457000Y46953660D01*
X3457000Y55900340D01*
X3949661Y56393000D01*
X9417926Y56393000D01*
X9390984Y56352679D01*
X9390984Y56352679D01*
G37*
X9390984Y56352679D02*
X9326799Y56030000D01*
X9326799Y54330000D01*
X9390984Y54007321D01*
X9573767Y53733767D01*
X9847321Y53550984D01*
X10170000Y53486799D01*
X11870000Y53486799D01*
X12192679Y53550984D01*
X12450251Y53723088D01*
X21123000Y45050339D01*
X21123001Y37373660D01*
X13900748Y44595912D01*
X13826713Y44706713D01*
X13387770Y45000006D01*
X13000696Y45077000D01*
X13000692Y45077000D01*
X12870000Y45102996D01*
X12739308Y45077000D01*
X12545902Y45077000D01*
X12466233Y45196233D01*
X12355511Y45270215D01*
X12599699Y45635667D01*
X12729854Y46290000D01*
X12599699Y46944333D01*
X12229049Y47499049D01*
X11674333Y47869699D01*
X11185168Y47967000D01*
X10854832Y47967000D01*
X10365667Y47869699D01*
X9987477Y47617000D01*
X4800691Y47617000D01*
X4669999Y47642996D01*
X4539307Y47617000D01*
X4539304Y47617000D01*
X4152230Y47540006D01*
X3713287Y47246713D01*
X3639252Y47135912D01*
X3457000Y46953660D01*
X3457000Y55900340D01*
X3949661Y56393000D01*
X9417926Y56393000D01*
X9390984Y56352679D01*
G04 #@! TD*
M02*
