M48
;DRILL file {KiCad (5.0.1)-4} date 12/02/2021 09:30:29
;FORMAT={-:-/ absolute / metric / decimal}
FMAT,2
METRIC,TZ
T1C0.800
T2C1.000
T3C1.200
T4C1.300
T5C1.500
T6C3.000
%
G90
G05
M71
T1
X15.Y21.
X15.Y13.
X16.Y45.
X16.Y36.
X19.Y33.
X19.Y27.
X19.Y18.
X26.Y33.
X54.Y14.
X54.Y4.
X30.07Y18.
X40.23Y18.
X29.84Y13.
X40.Y13.
T2
X45.31Y12.
X47.85Y12.
X50.39Y12.
X49.12Y23.43
X51.66Y23.43
X54.2Y23.43
X56.74Y23.43
X11.02Y48.83
X11.02Y46.29
X11.02Y43.75
X11.02Y22.16
X11.02Y19.62
X11.02Y17.08
X57.92Y12.
X60.46Y12.
X63.Y12.
X11.02Y60.26
X11.02Y57.72
X11.02Y55.18
X11.02Y33.59
X11.02Y31.05
X11.02Y28.51
T3
X3.4Y5.65
X7.21Y5.65
X11.02Y5.65
X14.83Y5.65
X18.64Y5.65
X22.45Y5.65
X26.26Y5.65
X30.07Y5.65
X33.88Y5.65
X37.69Y5.65
T4
X18.76Y58.99
X23.84Y58.99
X28.92Y58.99
X34.Y58.99
T5
X31.34Y51.11
X31.34Y28.51
T6
X9.Y39.
X27.Y23.
X43.Y59.
X63.Y59.
T0
M30
