G04 #@! TF.GenerationSoftware,KiCad,Pcbnew,(5.0.1)-4*
G04 #@! TF.CreationDate,2021-02-12T09:32:39+01:00*
G04 #@! TF.ProjectId,R_partiteur,52E97061727469746575722E6B696361,rev?*
G04 #@! TF.SameCoordinates,PX8e18f40PY848f8c0*
G04 #@! TF.FileFunction,Other,User*
%FSLAX46Y46*%
G04 Gerber Fmt 4.6, Leading zero omitted, Abs format (unit mm)*
G04 Created by KiCad (PCBNEW (5.0.1)-4) date 12/02/2021 09:32:39*
%MOMM*%
%LPD*%
G01*
G04 APERTURE LIST*
%ADD10C,0.050000*%
G04 APERTURE END LIST*
D10*
G04 #@! TO.C,J8*
X64800000Y1450000D02*
X64800000Y13800000D01*
X56150000Y1450000D02*
X64800000Y1450000D01*
X56150000Y13800000D02*
X56150000Y1450000D01*
X64800000Y13800000D02*
X56150000Y13800000D01*
G04 #@! TO.C,J1*
X15720000Y63490000D02*
X15720000Y54490000D01*
X15720000Y54490000D02*
X37040000Y54490000D01*
X37040000Y54490000D02*
X37040000Y63490000D01*
X37040000Y63490000D02*
X15720000Y63490000D01*
G04 #@! TO.C,J2*
X40230000Y1205000D02*
X40230000Y10095000D01*
X40230000Y10095000D02*
X860000Y10095000D01*
X860000Y10095000D02*
X860000Y1205000D01*
X860000Y1205000D02*
X40230000Y1205000D01*
G04 #@! TO.C,J3*
X12820000Y15280000D02*
X12820000Y23930000D01*
X12820000Y23930000D02*
X470000Y23930000D01*
X470000Y23930000D02*
X470000Y15280000D01*
X470000Y15280000D02*
X12820000Y15280000D01*
G04 #@! TO.C,J4*
X470000Y26710000D02*
X12820000Y26710000D01*
X470000Y35360000D02*
X470000Y26710000D01*
X12820000Y35360000D02*
X470000Y35360000D01*
X12820000Y26710000D02*
X12820000Y35360000D01*
G04 #@! TO.C,J5*
X12820000Y41950000D02*
X12820000Y50600000D01*
X12820000Y50600000D02*
X470000Y50600000D01*
X470000Y50600000D02*
X470000Y41950000D01*
X470000Y41950000D02*
X12820000Y41950000D01*
G04 #@! TO.C,J6*
X470000Y53380000D02*
X12820000Y53380000D01*
X470000Y62030000D02*
X470000Y53380000D01*
X12820000Y62030000D02*
X470000Y62030000D01*
X12820000Y53380000D02*
X12820000Y62030000D01*
G04 #@! TO.C,J7*
X52190000Y13800000D02*
X43540000Y13800000D01*
X43540000Y13800000D02*
X43540000Y1450000D01*
X43540000Y1450000D02*
X52190000Y1450000D01*
X52190000Y1450000D02*
X52190000Y13800000D01*
G04 #@! TO.C,F1*
X36290000Y28360000D02*
X33190000Y28360000D01*
X36290000Y51260000D02*
X36290000Y28360000D01*
X26390000Y28360000D02*
X26390000Y51260000D01*
X29490000Y28360000D02*
X26390000Y28360000D01*
X29490000Y51260000D02*
X26390000Y51260000D01*
X33190000Y51260000D02*
X36290000Y51260000D01*
X29490000Y51260000D02*
X29490000Y51510000D01*
X31790000Y52960000D02*
X30890000Y52960000D01*
X30890000Y52960000D02*
X30090000Y52560000D01*
X30090000Y52560000D02*
X29590000Y51860000D01*
X29590000Y51860000D02*
X29490000Y51510000D01*
X33190000Y51260000D02*
X33190000Y51510000D01*
X33190000Y51510000D02*
X33090000Y51860000D01*
X33090000Y51860000D02*
X32590000Y52560000D01*
X32590000Y52560000D02*
X31790000Y52960000D01*
X29490000Y28360000D02*
X29490000Y28110000D01*
X29490000Y28110000D02*
X29590000Y27760000D01*
X29590000Y27760000D02*
X30090000Y27060000D01*
X30890000Y26660000D02*
X31790000Y26660000D01*
X32590000Y27060000D02*
X33090000Y27760000D01*
X33090000Y27760000D02*
X33190000Y28110000D01*
X33190000Y28110000D02*
X33190000Y28360000D01*
X32590000Y27060000D02*
X31790000Y26660000D01*
X30890000Y26660000D02*
X30090000Y27060000D01*
G04 #@! TO.C,R1*
X41050000Y11500000D02*
X41050000Y14500000D01*
X41050000Y14500000D02*
X28790000Y14500000D01*
X28790000Y14500000D02*
X28790000Y11500000D01*
X28790000Y11500000D02*
X41050000Y11500000D01*
G04 #@! TO.C,R2*
X29020000Y16500000D02*
X41280000Y16500000D01*
X29020000Y19500000D02*
X29020000Y16500000D01*
X41280000Y19500000D02*
X29020000Y19500000D01*
X41280000Y16500000D02*
X41280000Y19500000D01*
G04 #@! TD*
M02*
