G04 #@! TF.GenerationSoftware,KiCad,Pcbnew,(5.0.1)-4*
G04 #@! TF.CreationDate,2021-02-12T09:32:39+01:00*
G04 #@! TF.ProjectId,R_partiteur,52E97061727469746575722E6B696361,rev?*
G04 #@! TF.SameCoordinates,PX8e18f40PY848f8c0*
G04 #@! TF.FileFunction,Legend,Top*
G04 #@! TF.FilePolarity,Positive*
%FSLAX46Y46*%
G04 Gerber Fmt 4.6, Leading zero omitted, Abs format (unit mm)*
G04 Created by KiCad (PCBNEW (5.0.1)-4) date 12/02/2021 09:32:39*
%MOMM*%
%LPD*%
G01*
G04 APERTURE LIST*
%ADD10C,0.120000*%
%ADD11C,0.150000*%
G04 APERTURE END LIST*
D10*
G04 #@! TO.C,J8*
X64270000Y13270000D02*
X64270000Y12000000D01*
X63000000Y13270000D02*
X64270000Y13270000D01*
X57540000Y10957071D02*
X57540000Y10560000D01*
X58300000Y10957071D02*
X58300000Y10560000D01*
X57540000Y1900000D02*
X57540000Y7900000D01*
X58300000Y1900000D02*
X57540000Y1900000D01*
X58300000Y7900000D02*
X58300000Y1900000D01*
X59190000Y10560000D02*
X59190000Y7900000D01*
X60080000Y10957071D02*
X60080000Y10560000D01*
X60840000Y10957071D02*
X60840000Y10560000D01*
X60080000Y1900000D02*
X60080000Y7900000D01*
X60840000Y1900000D02*
X60080000Y1900000D01*
X60840000Y7900000D02*
X60840000Y1900000D01*
X61730000Y10560000D02*
X61730000Y7900000D01*
X62620000Y10890000D02*
X62620000Y10560000D01*
X63380000Y10890000D02*
X63380000Y10560000D01*
X62720000Y7900000D02*
X62720000Y1900000D01*
X62840000Y7900000D02*
X62840000Y1900000D01*
X62960000Y7900000D02*
X62960000Y1900000D01*
X63080000Y7900000D02*
X63080000Y1900000D01*
X63200000Y7900000D02*
X63200000Y1900000D01*
X63320000Y7900000D02*
X63320000Y1900000D01*
X62620000Y1900000D02*
X62620000Y7900000D01*
X63380000Y1900000D02*
X62620000Y1900000D01*
X63380000Y7900000D02*
X63380000Y1900000D01*
X64330000Y7900000D02*
X64330000Y10560000D01*
X56590000Y7900000D02*
X64330000Y7900000D01*
X56590000Y10560000D02*
X56590000Y7900000D01*
X64330000Y10560000D02*
X56590000Y10560000D01*
G04 #@! TO.C,J1*
X19548712Y57506648D02*
G75*
G02X18760000Y57310000I-788712J1483352D01*
G01*
X20243953Y59779088D02*
G75*
G02X20244000Y58201000I-1483953J-789088D01*
G01*
X17970912Y60473953D02*
G75*
G02X19549000Y60474000I789088J-1483953D01*
G01*
X17276047Y58200912D02*
G75*
G02X17276000Y59779000I1483953J789088D01*
G01*
X18789383Y57309550D02*
G75*
G02X17971000Y57506000I-29383J1680450D01*
G01*
X25520000Y58990000D02*
G75*
G03X25520000Y58990000I-1680000J0D01*
G01*
X30600000Y58990000D02*
G75*
G03X30600000Y58990000I-1680000J0D01*
G01*
X35680000Y58990000D02*
G75*
G03X35680000Y58990000I-1680000J0D01*
G01*
X16160000Y56990000D02*
X36600000Y56990000D01*
X16160000Y60990000D02*
X36600000Y60990000D01*
X16160000Y63050000D02*
X36600000Y63050000D01*
X16160000Y54930000D02*
X36600000Y54930000D01*
X16160000Y63050000D02*
X16160000Y54930000D01*
X36600000Y63050000D02*
X36600000Y54930000D01*
X25115000Y60059000D02*
X25021000Y59966000D01*
X22830000Y57774000D02*
X22771000Y57716000D01*
X24910000Y60265000D02*
X24851000Y60206000D01*
X22660000Y58014000D02*
X22566000Y57921000D01*
X30195000Y60059000D02*
X30101000Y59966000D01*
X27910000Y57774000D02*
X27851000Y57716000D01*
X29990000Y60265000D02*
X29931000Y60206000D01*
X27740000Y58014000D02*
X27646000Y57921000D01*
X35275000Y60059000D02*
X35181000Y59966000D01*
X32990000Y57774000D02*
X32931000Y57716000D01*
X35070000Y60265000D02*
X35011000Y60206000D01*
X32820000Y58014000D02*
X32726000Y57921000D01*
X15920000Y56930000D02*
X15920000Y54690000D01*
X15920000Y54690000D02*
X17920000Y54690000D01*
G04 #@! TO.C,J2*
X37082413Y7081385D02*
G75*
G02X37690000Y7205000I607587J-1431385D01*
G01*
X36257891Y5042258D02*
G75*
G02X36258000Y6258000I1432109J607742D01*
G01*
X38297742Y4217891D02*
G75*
G02X37082000Y4218000I-607742J1432109D01*
G01*
X39122109Y6257742D02*
G75*
G02X39122000Y5042000I-1432109J-607742D01*
G01*
X37662989Y7205492D02*
G75*
G02X38298000Y7082000I27011J-1555492D01*
G01*
X35435000Y5650000D02*
G75*
G03X35435000Y5650000I-1555000J0D01*
G01*
X31625000Y5650000D02*
G75*
G03X31625000Y5650000I-1555000J0D01*
G01*
X27815000Y5650000D02*
G75*
G03X27815000Y5650000I-1555000J0D01*
G01*
X24005000Y5650000D02*
G75*
G03X24005000Y5650000I-1555000J0D01*
G01*
X20195000Y5650000D02*
G75*
G03X20195000Y5650000I-1555000J0D01*
G01*
X16385000Y5650000D02*
G75*
G03X16385000Y5650000I-1555000J0D01*
G01*
X12575000Y5650000D02*
G75*
G03X12575000Y5650000I-1555000J0D01*
G01*
X8765000Y5650000D02*
G75*
G03X8765000Y5650000I-1555000J0D01*
G01*
X4955000Y5650000D02*
G75*
G03X4955000Y5650000I-1555000J0D01*
G01*
X39595000Y7555000D02*
X1495000Y7555000D01*
X39595000Y1840000D02*
X1495000Y1840000D01*
X39595000Y9460000D02*
X1495000Y9460000D01*
X39595000Y1840000D02*
X39595000Y9460000D01*
X1495000Y1840000D02*
X1495000Y9310000D01*
G04 #@! TO.C,J3*
X9580000Y15750000D02*
X9580000Y23490000D01*
X9580000Y23490000D02*
X6920000Y23490000D01*
X6920000Y23490000D02*
X6920000Y15750000D01*
X6920000Y15750000D02*
X9580000Y15750000D01*
X6920000Y16700000D02*
X920000Y16700000D01*
X920000Y16700000D02*
X920000Y17460000D01*
X920000Y17460000D02*
X6920000Y17460000D01*
X6920000Y16760000D02*
X920000Y16760000D01*
X6920000Y16880000D02*
X920000Y16880000D01*
X6920000Y17000000D02*
X920000Y17000000D01*
X6920000Y17120000D02*
X920000Y17120000D01*
X6920000Y17240000D02*
X920000Y17240000D01*
X6920000Y17360000D02*
X920000Y17360000D01*
X9910000Y16700000D02*
X9580000Y16700000D01*
X9910000Y17460000D02*
X9580000Y17460000D01*
X9580000Y18350000D02*
X6920000Y18350000D01*
X6920000Y19240000D02*
X920000Y19240000D01*
X920000Y19240000D02*
X920000Y20000000D01*
X920000Y20000000D02*
X6920000Y20000000D01*
X9977071Y19240000D02*
X9580000Y19240000D01*
X9977071Y20000000D02*
X9580000Y20000000D01*
X9580000Y20890000D02*
X6920000Y20890000D01*
X6920000Y21780000D02*
X920000Y21780000D01*
X920000Y21780000D02*
X920000Y22540000D01*
X920000Y22540000D02*
X6920000Y22540000D01*
X9977071Y21780000D02*
X9580000Y21780000D01*
X9977071Y22540000D02*
X9580000Y22540000D01*
X12290000Y17080000D02*
X12290000Y15810000D01*
X12290000Y15810000D02*
X11020000Y15810000D01*
G04 #@! TO.C,J4*
X12290000Y27240000D02*
X11020000Y27240000D01*
X12290000Y28510000D02*
X12290000Y27240000D01*
X9977071Y33970000D02*
X9580000Y33970000D01*
X9977071Y33210000D02*
X9580000Y33210000D01*
X920000Y33970000D02*
X6920000Y33970000D01*
X920000Y33210000D02*
X920000Y33970000D01*
X6920000Y33210000D02*
X920000Y33210000D01*
X9580000Y32320000D02*
X6920000Y32320000D01*
X9977071Y31430000D02*
X9580000Y31430000D01*
X9977071Y30670000D02*
X9580000Y30670000D01*
X920000Y31430000D02*
X6920000Y31430000D01*
X920000Y30670000D02*
X920000Y31430000D01*
X6920000Y30670000D02*
X920000Y30670000D01*
X9580000Y29780000D02*
X6920000Y29780000D01*
X9910000Y28890000D02*
X9580000Y28890000D01*
X9910000Y28130000D02*
X9580000Y28130000D01*
X6920000Y28790000D02*
X920000Y28790000D01*
X6920000Y28670000D02*
X920000Y28670000D01*
X6920000Y28550000D02*
X920000Y28550000D01*
X6920000Y28430000D02*
X920000Y28430000D01*
X6920000Y28310000D02*
X920000Y28310000D01*
X6920000Y28190000D02*
X920000Y28190000D01*
X920000Y28890000D02*
X6920000Y28890000D01*
X920000Y28130000D02*
X920000Y28890000D01*
X6920000Y28130000D02*
X920000Y28130000D01*
X6920000Y27180000D02*
X9580000Y27180000D01*
X6920000Y34920000D02*
X6920000Y27180000D01*
X9580000Y34920000D02*
X6920000Y34920000D01*
X9580000Y27180000D02*
X9580000Y34920000D01*
G04 #@! TO.C,J5*
X9580000Y42420000D02*
X9580000Y50160000D01*
X9580000Y50160000D02*
X6920000Y50160000D01*
X6920000Y50160000D02*
X6920000Y42420000D01*
X6920000Y42420000D02*
X9580000Y42420000D01*
X6920000Y43370000D02*
X920000Y43370000D01*
X920000Y43370000D02*
X920000Y44130000D01*
X920000Y44130000D02*
X6920000Y44130000D01*
X6920000Y43430000D02*
X920000Y43430000D01*
X6920000Y43550000D02*
X920000Y43550000D01*
X6920000Y43670000D02*
X920000Y43670000D01*
X6920000Y43790000D02*
X920000Y43790000D01*
X6920000Y43910000D02*
X920000Y43910000D01*
X6920000Y44030000D02*
X920000Y44030000D01*
X9910000Y43370000D02*
X9580000Y43370000D01*
X9910000Y44130000D02*
X9580000Y44130000D01*
X9580000Y45020000D02*
X6920000Y45020000D01*
X6920000Y45910000D02*
X920000Y45910000D01*
X920000Y45910000D02*
X920000Y46670000D01*
X920000Y46670000D02*
X6920000Y46670000D01*
X9977071Y45910000D02*
X9580000Y45910000D01*
X9977071Y46670000D02*
X9580000Y46670000D01*
X9580000Y47560000D02*
X6920000Y47560000D01*
X6920000Y48450000D02*
X920000Y48450000D01*
X920000Y48450000D02*
X920000Y49210000D01*
X920000Y49210000D02*
X6920000Y49210000D01*
X9977071Y48450000D02*
X9580000Y48450000D01*
X9977071Y49210000D02*
X9580000Y49210000D01*
X12290000Y43750000D02*
X12290000Y42480000D01*
X12290000Y42480000D02*
X11020000Y42480000D01*
G04 #@! TO.C,J6*
X12290000Y53910000D02*
X11020000Y53910000D01*
X12290000Y55180000D02*
X12290000Y53910000D01*
X9977071Y60640000D02*
X9580000Y60640000D01*
X9977071Y59880000D02*
X9580000Y59880000D01*
X920000Y60640000D02*
X6920000Y60640000D01*
X920000Y59880000D02*
X920000Y60640000D01*
X6920000Y59880000D02*
X920000Y59880000D01*
X9580000Y58990000D02*
X6920000Y58990000D01*
X9977071Y58100000D02*
X9580000Y58100000D01*
X9977071Y57340000D02*
X9580000Y57340000D01*
X920000Y58100000D02*
X6920000Y58100000D01*
X920000Y57340000D02*
X920000Y58100000D01*
X6920000Y57340000D02*
X920000Y57340000D01*
X9580000Y56450000D02*
X6920000Y56450000D01*
X9910000Y55560000D02*
X9580000Y55560000D01*
X9910000Y54800000D02*
X9580000Y54800000D01*
X6920000Y55460000D02*
X920000Y55460000D01*
X6920000Y55340000D02*
X920000Y55340000D01*
X6920000Y55220000D02*
X920000Y55220000D01*
X6920000Y55100000D02*
X920000Y55100000D01*
X6920000Y54980000D02*
X920000Y54980000D01*
X6920000Y54860000D02*
X920000Y54860000D01*
X920000Y55560000D02*
X6920000Y55560000D01*
X920000Y54800000D02*
X920000Y55560000D01*
X6920000Y54800000D02*
X920000Y54800000D01*
X6920000Y53850000D02*
X9580000Y53850000D01*
X6920000Y61590000D02*
X6920000Y53850000D01*
X9580000Y61590000D02*
X6920000Y61590000D01*
X9580000Y53850000D02*
X9580000Y61590000D01*
G04 #@! TO.C,J7*
X51720000Y10560000D02*
X43980000Y10560000D01*
X43980000Y10560000D02*
X43980000Y7900000D01*
X43980000Y7900000D02*
X51720000Y7900000D01*
X51720000Y7900000D02*
X51720000Y10560000D01*
X50770000Y7900000D02*
X50770000Y1900000D01*
X50770000Y1900000D02*
X50010000Y1900000D01*
X50010000Y1900000D02*
X50010000Y7900000D01*
X50710000Y7900000D02*
X50710000Y1900000D01*
X50590000Y7900000D02*
X50590000Y1900000D01*
X50470000Y7900000D02*
X50470000Y1900000D01*
X50350000Y7900000D02*
X50350000Y1900000D01*
X50230000Y7900000D02*
X50230000Y1900000D01*
X50110000Y7900000D02*
X50110000Y1900000D01*
X50770000Y10890000D02*
X50770000Y10560000D01*
X50010000Y10890000D02*
X50010000Y10560000D01*
X49120000Y10560000D02*
X49120000Y7900000D01*
X48230000Y7900000D02*
X48230000Y1900000D01*
X48230000Y1900000D02*
X47470000Y1900000D01*
X47470000Y1900000D02*
X47470000Y7900000D01*
X48230000Y10957071D02*
X48230000Y10560000D01*
X47470000Y10957071D02*
X47470000Y10560000D01*
X46580000Y10560000D02*
X46580000Y7900000D01*
X45690000Y7900000D02*
X45690000Y1900000D01*
X45690000Y1900000D02*
X44930000Y1900000D01*
X44930000Y1900000D02*
X44930000Y7900000D01*
X45690000Y10957071D02*
X45690000Y10560000D01*
X44930000Y10957071D02*
X44930000Y10560000D01*
X50390000Y13270000D02*
X51660000Y13270000D01*
X51660000Y13270000D02*
X51660000Y12000000D01*
D11*
G04 #@! TO.C,P1*
G36*
X50390000Y62800000D02*
X50390000Y65340000D01*
X55470000Y65340000D01*
X55470000Y62800000D01*
X50390000Y62800000D01*
G37*
X50390000Y62800000D02*
X50390000Y65340000D01*
X55470000Y65340000D01*
X55470000Y62800000D01*
X50390000Y62800000D01*
G36*
X49120000Y62800000D02*
X56740000Y62800000D01*
X56740000Y52640000D01*
X49120000Y52640000D01*
X49120000Y62800000D01*
G37*
X49120000Y62800000D02*
X56740000Y62800000D01*
X56740000Y52640000D01*
X49120000Y52640000D01*
X49120000Y62800000D01*
X64360000Y23430000D02*
G75*
G03X64360000Y23430000I-1270000J0D01*
G01*
X44040000Y23430000D02*
G75*
G03X44040000Y23430000I-1270000J0D01*
G01*
X64360000Y60260000D02*
G75*
G03X64360000Y60260000I-1270000J0D01*
G01*
X44040000Y60260000D02*
G75*
G03X44040000Y60260000I-1270000J0D01*
G01*
X63090000Y62800000D02*
X42770000Y62800000D01*
X63090000Y62800000D02*
G75*
G02X65630000Y60260000I0J-2540000D01*
G01*
X40230000Y60260000D02*
G75*
G02X42770000Y62800000I2540000J0D01*
G01*
X65630000Y60260000D02*
X65630000Y23430000D01*
X40230000Y23430000D02*
X40230000Y60260000D01*
X65630000Y23430000D02*
G75*
G02X63090000Y20890000I-2540000J0D01*
G01*
X42770000Y20890000D02*
G75*
G02X40230000Y23430000I0J2540000D01*
G01*
X63090000Y20890000D02*
X42770000Y20890000D01*
D10*
G04 #@! TO.C,F1*
X36140000Y51110000D02*
X33340000Y51110000D01*
X29340000Y51110000D02*
X26540000Y51110000D01*
X29340000Y28510000D02*
X26540000Y28510000D01*
X26540000Y28510000D02*
X26540000Y51110000D01*
X36140000Y28510000D02*
X36140000Y51110000D01*
X36140000Y28510000D02*
X33340000Y28510000D01*
G04 #@! TO.C,R1*
X38190000Y11630000D02*
X38190000Y14370000D01*
X38190000Y14370000D02*
X31650000Y14370000D01*
X31650000Y14370000D02*
X31650000Y11630000D01*
X31650000Y11630000D02*
X38190000Y11630000D01*
X38960000Y13000000D02*
X38190000Y13000000D01*
X30880000Y13000000D02*
X31650000Y13000000D01*
G04 #@! TO.C,R2*
X31110000Y18000000D02*
X31880000Y18000000D01*
X39190000Y18000000D02*
X38420000Y18000000D01*
X31880000Y16630000D02*
X38420000Y16630000D01*
X31880000Y19370000D02*
X31880000Y16630000D01*
X38420000Y19370000D02*
X31880000Y19370000D01*
X38420000Y16630000D02*
X38420000Y19370000D01*
G04 #@! TO.C,J8*
D11*
X64722380Y7281667D02*
X65436666Y7281667D01*
X65579523Y7234048D01*
X65674761Y7138810D01*
X65722380Y6995953D01*
X65722380Y6900715D01*
X65150952Y7900715D02*
X65103333Y7805477D01*
X65055714Y7757858D01*
X64960476Y7710239D01*
X64912857Y7710239D01*
X64817619Y7757858D01*
X64770000Y7805477D01*
X64722380Y7900715D01*
X64722380Y8091191D01*
X64770000Y8186429D01*
X64817619Y8234048D01*
X64912857Y8281667D01*
X64960476Y8281667D01*
X65055714Y8234048D01*
X65103333Y8186429D01*
X65150952Y8091191D01*
X65150952Y7900715D01*
X65198571Y7805477D01*
X65246190Y7757858D01*
X65341428Y7710239D01*
X65531904Y7710239D01*
X65627142Y7757858D01*
X65674761Y7805477D01*
X65722380Y7900715D01*
X65722380Y8091191D01*
X65674761Y8186429D01*
X65627142Y8234048D01*
X65531904Y8281667D01*
X65341428Y8281667D01*
X65246190Y8234048D01*
X65198571Y8186429D01*
X65150952Y8091191D01*
G04 #@! TO.C,J1*
X26046666Y64597620D02*
X26046666Y63883334D01*
X25999047Y63740477D01*
X25903809Y63645239D01*
X25760952Y63597620D01*
X25665714Y63597620D01*
X27046666Y63597620D02*
X26475238Y63597620D01*
X26760952Y63597620D02*
X26760952Y64597620D01*
X26665714Y64454762D01*
X26570476Y64359524D01*
X26475238Y64311905D01*
G04 #@! TO.C,J2*
X20211666Y1117620D02*
X20211666Y403334D01*
X20164047Y260477D01*
X20068809Y165239D01*
X19925952Y117620D01*
X19830714Y117620D01*
X20640238Y1022381D02*
X20687857Y1070000D01*
X20783095Y1117620D01*
X21021190Y1117620D01*
X21116428Y1070000D01*
X21164047Y1022381D01*
X21211666Y927143D01*
X21211666Y831905D01*
X21164047Y689048D01*
X20592619Y117620D01*
X21211666Y117620D01*
G04 #@! TO.C,J3*
X6301666Y15357620D02*
X6301666Y14643334D01*
X6254047Y14500477D01*
X6158809Y14405239D01*
X6015952Y14357620D01*
X5920714Y14357620D01*
X6682619Y15357620D02*
X7301666Y15357620D01*
X6968333Y14976667D01*
X7111190Y14976667D01*
X7206428Y14929048D01*
X7254047Y14881429D01*
X7301666Y14786191D01*
X7301666Y14548096D01*
X7254047Y14452858D01*
X7206428Y14405239D01*
X7111190Y14357620D01*
X6825476Y14357620D01*
X6730238Y14405239D01*
X6682619Y14452858D01*
G04 #@! TO.C,J4*
X6301666Y26787620D02*
X6301666Y26073334D01*
X6254047Y25930477D01*
X6158809Y25835239D01*
X6015952Y25787620D01*
X5920714Y25787620D01*
X7206428Y26454286D02*
X7206428Y25787620D01*
X6968333Y26835239D02*
X6730238Y26120953D01*
X7349285Y26120953D01*
G04 #@! TO.C,J5*
X6301666Y42027620D02*
X6301666Y41313334D01*
X6254047Y41170477D01*
X6158809Y41075239D01*
X6015952Y41027620D01*
X5920714Y41027620D01*
X7254047Y42027620D02*
X6777857Y42027620D01*
X6730238Y41551429D01*
X6777857Y41599048D01*
X6873095Y41646667D01*
X7111190Y41646667D01*
X7206428Y41599048D01*
X7254047Y41551429D01*
X7301666Y41456191D01*
X7301666Y41218096D01*
X7254047Y41122858D01*
X7206428Y41075239D01*
X7111190Y41027620D01*
X6873095Y41027620D01*
X6777857Y41075239D01*
X6730238Y41122858D01*
G04 #@! TO.C,J6*
X6301666Y53457620D02*
X6301666Y52743334D01*
X6254047Y52600477D01*
X6158809Y52505239D01*
X6015952Y52457620D01*
X5920714Y52457620D01*
X7206428Y53457620D02*
X7015952Y53457620D01*
X6920714Y53410000D01*
X6873095Y53362381D01*
X6777857Y53219524D01*
X6730238Y53029048D01*
X6730238Y52648096D01*
X6777857Y52552858D01*
X6825476Y52505239D01*
X6920714Y52457620D01*
X7111190Y52457620D01*
X7206428Y52505239D01*
X7254047Y52552858D01*
X7301666Y52648096D01*
X7301666Y52886191D01*
X7254047Y52981429D01*
X7206428Y53029048D01*
X7111190Y53076667D01*
X6920714Y53076667D01*
X6825476Y53029048D01*
X6777857Y52981429D01*
X6730238Y52886191D01*
G04 #@! TO.C,J7*
X52112380Y7281667D02*
X52826666Y7281667D01*
X52969523Y7234048D01*
X53064761Y7138810D01*
X53112380Y6995953D01*
X53112380Y6900715D01*
X52112380Y7662620D02*
X52112380Y8329286D01*
X53112380Y7900715D01*
G04 #@! TO.C,P1*
X52191904Y33137620D02*
X52191904Y34137620D01*
X52572857Y34137620D01*
X52668095Y34090000D01*
X52715714Y34042381D01*
X52763333Y33947143D01*
X52763333Y33804286D01*
X52715714Y33709048D01*
X52668095Y33661429D01*
X52572857Y33613810D01*
X52191904Y33613810D01*
X53715714Y33137620D02*
X53144285Y33137620D01*
X53430000Y33137620D02*
X53430000Y34137620D01*
X53334761Y33994762D01*
X53239523Y33899524D01*
X53144285Y33851905D01*
G04 #@! TO.C,F1*
X25268571Y39426667D02*
X25268571Y39093334D01*
X25792380Y39093334D02*
X24792380Y39093334D01*
X24792380Y39569524D01*
X25792380Y40474286D02*
X25792380Y39902858D01*
X25792380Y40188572D02*
X24792380Y40188572D01*
X24935238Y40093334D01*
X25030476Y39998096D01*
X25078095Y39902858D01*
G04 #@! TO.C,R1*
X34753333Y10177620D02*
X34420000Y10653810D01*
X34181904Y10177620D02*
X34181904Y11177620D01*
X34562857Y11177620D01*
X34658095Y11130000D01*
X34705714Y11082381D01*
X34753333Y10987143D01*
X34753333Y10844286D01*
X34705714Y10749048D01*
X34658095Y10701429D01*
X34562857Y10653810D01*
X34181904Y10653810D01*
X35705714Y10177620D02*
X35134285Y10177620D01*
X35420000Y10177620D02*
X35420000Y11177620D01*
X35324761Y11034762D01*
X35229523Y10939524D01*
X35134285Y10891905D01*
G04 #@! TO.C,R2*
X34983333Y15177620D02*
X34650000Y15653810D01*
X34411904Y15177620D02*
X34411904Y16177620D01*
X34792857Y16177620D01*
X34888095Y16130000D01*
X34935714Y16082381D01*
X34983333Y15987143D01*
X34983333Y15844286D01*
X34935714Y15749048D01*
X34888095Y15701429D01*
X34792857Y15653810D01*
X34411904Y15653810D01*
X35364285Y16082381D02*
X35411904Y16130000D01*
X35507142Y16177620D01*
X35745238Y16177620D01*
X35840476Y16130000D01*
X35888095Y16082381D01*
X35935714Y15987143D01*
X35935714Y15891905D01*
X35888095Y15749048D01*
X35316666Y15177620D01*
X35935714Y15177620D01*
G04 #@! TD*
M02*
